<mxfile host="app.diagrams.net" modified="2020-03-17T13:06:31.917Z" agent="Mozilla/5.0 (Windows NT 10.0; Win64; x64; rv:74.0) Gecko/20100101 Firefox/74.0" etag="7AzyBb1FEVPeTedFUF9d" version="12.8.5" type="github" pages="5">
  <diagram id="bk7yWxwbMwhnokrNVwg6" name="场景配置-函数">
    <mxGraphModel dx="964" dy="593" grid="1" gridSize="10" guides="1" tooltips="1" connect="1" arrows="1" fold="1" page="1" pageScale="1" pageWidth="827" pageHeight="1169" math="0" shadow="0">
      <root>
        <mxCell id="0" />
        <mxCell id="1" parent="0" />
        <mxCell id="a2SI8e3hPeV6xsrfjzk1-1" value="" style="rounded=0;whiteSpace=wrap;html=1;align=left;" parent="1" vertex="1">
          <mxGeometry x="10" y="100" width="790" height="520" as="geometry" />
        </mxCell>
        <mxCell id="a2SI8e3hPeV6xsrfjzk1-2" value="" style="rounded=0;whiteSpace=wrap;html=1;" parent="1" vertex="1">
          <mxGeometry x="90" y="160" width="480" height="90" as="geometry" />
        </mxCell>
        <mxCell id="a2SI8e3hPeV6xsrfjzk1-3" value="" style="endArrow=none;html=1;" parent="1" edge="1">
          <mxGeometry width="50" height="50" relative="1" as="geometry">
            <mxPoint y="80" as="sourcePoint" />
            <mxPoint x="980" y="80" as="targetPoint" />
          </mxGeometry>
        </mxCell>
        <mxCell id="a2SI8e3hPeV6xsrfjzk1-4" value="" style="rounded=0;whiteSpace=wrap;html=1;align=center;" parent="1" vertex="1">
          <mxGeometry x="827" y="100" width="143" height="520" as="geometry" />
        </mxCell>
        <mxCell id="a2SI8e3hPeV6xsrfjzk1-5" value="摘要" style="text;html=1;strokeColor=none;fillColor=none;align=center;verticalAlign=middle;whiteSpace=wrap;rounded=0;" parent="1" vertex="1">
          <mxGeometry x="827" y="100" width="40" height="20" as="geometry" />
        </mxCell>
        <mxCell id="a2SI8e3hPeV6xsrfjzk1-6" value="已选择的事件：" style="text;html=1;strokeColor=none;fillColor=none;align=center;verticalAlign=middle;whiteSpace=wrap;rounded=0;" parent="1" vertex="1">
          <mxGeometry x="190" y="130" width="90" height="20" as="geometry" />
        </mxCell>
        <mxCell id="a2SI8e3hPeV6xsrfjzk1-7" value="&lt;span style=&quot;line-height: 14.4px&quot;&gt;dpi_app编码_自定义事件&lt;/span&gt;" style="rounded=1;whiteSpace=wrap;html=1;align=center;" parent="1" vertex="1">
          <mxGeometry x="430" y="130" width="150" height="20" as="geometry" />
        </mxCell>
        <mxCell id="a2SI8e3hPeV6xsrfjzk1-8" value="&lt;span style=&quot;line-height: 14.4px&quot;&gt;流量_漫游_省外漫游事件&lt;/span&gt;" style="rounded=1;whiteSpace=wrap;html=1;align=center;" parent="1" vertex="1">
          <mxGeometry x="277.5" y="130" width="142.5" height="20" as="geometry" />
        </mxCell>
        <mxCell id="a2SI8e3hPeV6xsrfjzk1-9" value="" style="rounded=0;whiteSpace=wrap;html=1;align=center;" parent="1" vertex="1">
          <mxGeometry x="837.75" y="210" width="120" height="80" as="geometry" />
        </mxCell>
        <mxCell id="a2SI8e3hPeV6xsrfjzk1-10" value="事件规则：&lt;span style=&quot;line-height: 14.4px ; text-align: center&quot;&gt;流量_漫游_省外漫游事件&lt;/span&gt;&amp;nbsp;AND ( app编码=爱奇艺 OR app编码=腾讯视频 )" style="text;html=1;strokeColor=none;fillColor=none;align=left;verticalAlign=middle;whiteSpace=wrap;rounded=0;" parent="1" vertex="1">
          <mxGeometry x="840.5" y="200" width="121.5" height="90" as="geometry" />
        </mxCell>
        <mxCell id="a2SI8e3hPeV6xsrfjzk1-11" value="" style="rounded=0;whiteSpace=wrap;html=1;align=left;" parent="1" vertex="1">
          <mxGeometry x="90" y="430" width="620" height="180" as="geometry" />
        </mxCell>
        <mxCell id="a2SI8e3hPeV6xsrfjzk1-12" value="" style="rounded=0;whiteSpace=wrap;html=1;align=left;" parent="1" vertex="1">
          <mxGeometry x="90" y="470" width="220" height="140" as="geometry" />
        </mxCell>
        <mxCell id="a2SI8e3hPeV6xsrfjzk1-13" value="运算符选择" style="text;html=1;strokeColor=none;fillColor=none;align=center;verticalAlign=middle;whiteSpace=wrap;rounded=0;" parent="1" vertex="1">
          <mxGeometry x="95" y="440" width="70" height="20" as="geometry" />
        </mxCell>
        <mxCell id="a2SI8e3hPeV6xsrfjzk1-14" value="(" style="rounded=1;whiteSpace=wrap;html=1;align=center;" parent="1" vertex="1">
          <mxGeometry x="95" y="480" width="50" height="20" as="geometry" />
        </mxCell>
        <mxCell id="a2SI8e3hPeV6xsrfjzk1-15" value=")" style="rounded=1;whiteSpace=wrap;html=1;align=center;" parent="1" vertex="1">
          <mxGeometry x="175" y="480" width="50" height="20" as="geometry" />
        </mxCell>
        <mxCell id="a2SI8e3hPeV6xsrfjzk1-16" value="AND" style="rounded=1;whiteSpace=wrap;html=1;align=center;" parent="1" vertex="1">
          <mxGeometry x="95" y="530" width="50" height="20" as="geometry" />
        </mxCell>
        <mxCell id="a2SI8e3hPeV6xsrfjzk1-17" value="OR" style="rounded=1;whiteSpace=wrap;html=1;align=center;" parent="1" vertex="1">
          <mxGeometry x="175" y="530" width="50" height="20" as="geometry" />
        </mxCell>
        <mxCell id="a2SI8e3hPeV6xsrfjzk1-18" value="" style="rounded=0;whiteSpace=wrap;html=1;align=left;" parent="1" vertex="1">
          <mxGeometry x="310" y="470" width="400" height="140" as="geometry" />
        </mxCell>
        <mxCell id="a2SI8e3hPeV6xsrfjzk1-19" value="事件规则表达式" style="text;html=1;strokeColor=none;fillColor=none;align=left;verticalAlign=middle;whiteSpace=wrap;rounded=0;" parent="1" vertex="1">
          <mxGeometry x="410" y="470" width="120" height="20" as="geometry" />
        </mxCell>
        <mxCell id="a2SI8e3hPeV6xsrfjzk1-20" value="app编码=爱奇艺" style="rounded=0;whiteSpace=wrap;html=1;align=left;" parent="1" vertex="1">
          <mxGeometry x="420" y="520" width="90" height="20" as="geometry" />
        </mxCell>
        <mxCell id="a2SI8e3hPeV6xsrfjzk1-21" value="OR" style="rounded=1;whiteSpace=wrap;html=1;align=center;" parent="1" vertex="1">
          <mxGeometry x="520" y="520" width="50" height="20" as="geometry" />
        </mxCell>
        <mxCell id="a2SI8e3hPeV6xsrfjzk1-22" value="app编码=腾讯视频" style="rounded=0;whiteSpace=wrap;html=1;align=left;" parent="1" vertex="1">
          <mxGeometry x="575" y="520" width="115" height="20" as="geometry" />
        </mxCell>
        <mxCell id="a2SI8e3hPeV6xsrfjzk1-23" value="漫游=省外漫游" style="rounded=1;whiteSpace=wrap;html=1;" parent="1" vertex="1">
          <mxGeometry x="415" y="490" width="85" height="20" as="geometry" />
        </mxCell>
        <mxCell id="a2SI8e3hPeV6xsrfjzk1-24" value="AND" style="rounded=1;whiteSpace=wrap;html=1;align=center;" parent="1" vertex="1">
          <mxGeometry x="515" y="490" width="50" height="20" as="geometry" />
        </mxCell>
        <mxCell id="a2SI8e3hPeV6xsrfjzk1-25" value="(" style="rounded=1;whiteSpace=wrap;html=1;align=center;" parent="1" vertex="1">
          <mxGeometry x="575" y="490" width="50" height="20" as="geometry" />
        </mxCell>
        <mxCell id="a2SI8e3hPeV6xsrfjzk1-26" value=")" style="rounded=1;whiteSpace=wrap;html=1;align=center;" parent="1" vertex="1">
          <mxGeometry x="415" y="550" width="50" height="20" as="geometry" />
        </mxCell>
        <mxCell id="a2SI8e3hPeV6xsrfjzk1-27" value="" style="rounded=0;whiteSpace=wrap;html=1;align=center;" parent="1" vertex="1">
          <mxGeometry x="838.5000000000001" y="120" width="120" height="80" as="geometry" />
        </mxCell>
        <mxCell id="a2SI8e3hPeV6xsrfjzk1-28" value="基本信息：&lt;span style=&quot;line-height: 14.4px&quot;&gt;省外漫游看腾讯视频和爱奇艺&lt;/span&gt;&lt;br&gt;场景编码：&lt;span style=&quot;line-height: 14.4px&quot;&gt;SWMYKTXSPH_9902&lt;/span&gt;&lt;br&gt;场景描述：" style="text;html=1;strokeColor=none;fillColor=none;align=left;verticalAlign=middle;whiteSpace=wrap;rounded=0;" parent="1" vertex="1">
          <mxGeometry x="841.25" y="120" width="117.25" height="80" as="geometry" />
        </mxCell>
        <mxCell id="a2SI8e3hPeV6xsrfjzk1-29" value="您关注哪个主体" style="rounded=0;whiteSpace=wrap;html=1;fontSize=7;fillColor=#eeeeee;strokeColor=#36393d;" parent="1" vertex="1">
          <mxGeometry x="90" y="160" width="120" height="20" as="geometry" />
        </mxCell>
        <mxCell id="a2SI8e3hPeV6xsrfjzk1-30" value="&lt;font style=&quot;font-size: 12px&quot;&gt;号码 &amp;nbsp; &amp;nbsp; &amp;nbsp; &amp;nbsp; &amp;nbsp; &amp;nbsp; &amp;nbsp; &amp;nbsp; &amp;nbsp; &amp;nbsp; &amp;nbsp; &amp;nbsp; &amp;nbsp;&amp;gt;&lt;/font&gt;" style="rounded=0;whiteSpace=wrap;html=1;fontSize=7;fillColor=#ffff88;strokeColor=#36393d;" parent="1" vertex="1">
          <mxGeometry x="90" y="180" width="120" height="20" as="geometry" />
        </mxCell>
        <mxCell id="a2SI8e3hPeV6xsrfjzk1-31" value="&lt;span style=&quot;font-size: 12px ; line-height: 14.4px ; white-space: normal&quot;&gt;基站 &amp;nbsp; &amp;nbsp; &amp;nbsp; &amp;nbsp; &amp;nbsp; &amp;nbsp; &amp;nbsp; &amp;nbsp; &amp;nbsp; &amp;nbsp; &amp;nbsp; &amp;nbsp; &amp;nbsp;&amp;gt;&lt;/span&gt;" style="rounded=0;whiteSpace=wrap;html=1;fontSize=7;" parent="1" vertex="1">
          <mxGeometry x="90" y="200" width="120" height="20" as="geometry" />
        </mxCell>
        <mxCell id="a2SI8e3hPeV6xsrfjzk1-32" value="&lt;span style=&quot;font-size: 12px ; line-height: 14.4px ; white-space: normal&quot;&gt;APP &amp;nbsp; &amp;nbsp; &amp;nbsp; &amp;nbsp; &amp;nbsp; &amp;nbsp; &amp;nbsp; &amp;nbsp; &amp;nbsp; &amp;nbsp; &amp;nbsp; &amp;nbsp; &amp;nbsp;&amp;gt;&lt;/span&gt;" style="rounded=0;whiteSpace=wrap;html=1;fontSize=7;" parent="1" vertex="1">
          <mxGeometry x="90" y="220" width="120" height="20" as="geometry" />
        </mxCell>
        <mxCell id="a2SI8e3hPeV6xsrfjzk1-33" value="&lt;font style=&quot;font-size: 12px&quot;&gt;您关注哪个业务&lt;/font&gt;" style="rounded=0;whiteSpace=wrap;html=1;fontSize=7;fillColor=#eeeeee;strokeColor=#36393d;" parent="1" vertex="1">
          <mxGeometry x="210" y="160" width="120" height="20" as="geometry" />
        </mxCell>
        <mxCell id="a2SI8e3hPeV6xsrfjzk1-34" value="&lt;font style=&quot;font-size: 12px&quot;&gt;dpi_app编码 &amp;nbsp; &amp;nbsp; &amp;nbsp; &amp;nbsp; &amp;nbsp; &amp;nbsp; &amp;gt;&lt;/font&gt;" style="rounded=0;whiteSpace=wrap;html=1;fontSize=7;fillColor=#ffff88;strokeColor=#36393d;" parent="1" vertex="1">
          <mxGeometry x="210" y="180" width="120" height="20" as="geometry" />
        </mxCell>
        <mxCell id="a2SI8e3hPeV6xsrfjzk1-35" value="&lt;font style=&quot;font-size: 12px&quot;&gt;预付费_流量&lt;/font&gt;&lt;span style=&quot;font-size: 12px ; line-height: 14.4px&quot;&gt;&amp;nbsp;&amp;nbsp; &amp;nbsp; &amp;nbsp; &amp;nbsp; &amp;nbsp; &amp;nbsp; &amp;gt;&lt;/span&gt;" style="rounded=0;whiteSpace=wrap;html=1;fontSize=7;" parent="1" vertex="1">
          <mxGeometry x="210" y="200" width="120" height="20" as="geometry" />
        </mxCell>
        <mxCell id="a2SI8e3hPeV6xsrfjzk1-36" value="&lt;span style=&quot;line-height: 11.52px ; white-space: normal&quot;&gt;&lt;font style=&quot;font-size: 12px&quot;&gt;后付费_流量&lt;/font&gt;&lt;/span&gt;&lt;span style=&quot;font-size: 12px ; line-height: 14.4px&quot;&gt;&amp;nbsp;&amp;nbsp; &amp;nbsp; &amp;nbsp; &amp;nbsp; &amp;nbsp; &amp;nbsp; &amp;gt;&lt;/span&gt;" style="rounded=0;whiteSpace=wrap;html=1;fontSize=7;" parent="1" vertex="1">
          <mxGeometry x="210" y="220" width="120" height="20" as="geometry" />
        </mxCell>
        <mxCell id="a2SI8e3hPeV6xsrfjzk1-37" value="&lt;font style=&quot;font-size: 12px&quot;&gt;您关注哪个事件&lt;/font&gt;" style="rounded=0;whiteSpace=wrap;html=1;fontSize=7;fillColor=#eeeeee;strokeColor=#36393d;" parent="1" vertex="1">
          <mxGeometry x="330" y="160" width="120" height="20" as="geometry" />
        </mxCell>
        <mxCell id="a2SI8e3hPeV6xsrfjzk1-38" value="&lt;font style=&quot;font-size: 12px&quot;&gt;dpi_app编码_视频&lt;/font&gt;" style="rounded=0;whiteSpace=wrap;html=1;fontSize=7;" parent="1" vertex="1">
          <mxGeometry x="330" y="180" width="120" height="20" as="geometry" />
        </mxCell>
        <mxCell id="a2SI8e3hPeV6xsrfjzk1-39" value="&lt;span style=&quot;font-size: 12px ; line-height: 14.4px&quot;&gt;dpi_app编码_游戏&lt;/span&gt;" style="rounded=0;whiteSpace=wrap;html=1;fontSize=7;" parent="1" vertex="1">
          <mxGeometry x="330" y="200" width="120" height="20" as="geometry" />
        </mxCell>
        <mxCell id="a2SI8e3hPeV6xsrfjzk1-40" value="&lt;span style=&quot;font-size: 12px ; line-height: 14.4px&quot;&gt;dpi_app编码_自定义&lt;/span&gt;" style="rounded=0;whiteSpace=wrap;html=1;fontSize=7;fillColor=#ffff88;strokeColor=#36393d;" parent="1" vertex="1">
          <mxGeometry x="330" y="220" width="120" height="20" as="geometry" />
        </mxCell>
        <mxCell id="a2SI8e3hPeV6xsrfjzk1-41" style="edgeStyle=orthogonalEdgeStyle;rounded=0;orthogonalLoop=1;jettySize=auto;html=1;" parent="1" source="a2SI8e3hPeV6xsrfjzk1-42" target="a2SI8e3hPeV6xsrfjzk1-44" edge="1">
          <mxGeometry relative="1" as="geometry" />
        </mxCell>
        <mxCell id="a2SI8e3hPeV6xsrfjzk1-42" value="场景基本信息" style="rounded=0;whiteSpace=wrap;html=1;align=center;" parent="1" vertex="1">
          <mxGeometry x="10" y="10" width="120" height="60" as="geometry" />
        </mxCell>
        <mxCell id="a2SI8e3hPeV6xsrfjzk1-43" style="edgeStyle=orthogonalEdgeStyle;rounded=0;orthogonalLoop=1;jettySize=auto;html=1;" parent="1" source="a2SI8e3hPeV6xsrfjzk1-44" target="a2SI8e3hPeV6xsrfjzk1-46" edge="1">
          <mxGeometry relative="1" as="geometry">
            <mxPoint x="370" y="40" as="targetPoint" />
          </mxGeometry>
        </mxCell>
        <mxCell id="a2SI8e3hPeV6xsrfjzk1-44" value="&lt;span style=&quot;line-height: 14.4px&quot;&gt;配置事件规则&lt;/span&gt;" style="rounded=0;whiteSpace=wrap;html=1;align=center;fillColor=#fff2cc;strokeColor=#d6b656;" parent="1" vertex="1">
          <mxGeometry x="220" y="10" width="120" height="60" as="geometry" />
        </mxCell>
        <mxCell id="a2SI8e3hPeV6xsrfjzk1-45" style="edgeStyle=orthogonalEdgeStyle;rounded=0;orthogonalLoop=1;jettySize=auto;html=1;" parent="1" source="a2SI8e3hPeV6xsrfjzk1-46" target="a2SI8e3hPeV6xsrfjzk1-48" edge="1">
          <mxGeometry relative="1" as="geometry">
            <mxPoint x="610" y="40" as="targetPoint" />
          </mxGeometry>
        </mxCell>
        <mxCell id="a2SI8e3hPeV6xsrfjzk1-46" value="配置标签" style="rounded=0;whiteSpace=wrap;html=1;align=center;" parent="1" vertex="1">
          <mxGeometry x="450" y="10" width="120" height="60" as="geometry" />
        </mxCell>
        <mxCell id="a2SI8e3hPeV6xsrfjzk1-47" style="edgeStyle=orthogonalEdgeStyle;rounded=0;orthogonalLoop=1;jettySize=auto;html=1;" parent="1" source="a2SI8e3hPeV6xsrfjzk1-48" target="a2SI8e3hPeV6xsrfjzk1-49" edge="1">
          <mxGeometry relative="1" as="geometry" />
        </mxCell>
        <mxCell id="a2SI8e3hPeV6xsrfjzk1-48" value="配置&lt;span style=&quot;line-height: 14.4px ; text-align: left&quot;&gt;消息格式&lt;/span&gt;" style="rounded=0;whiteSpace=wrap;html=1;align=center;direction=west;" parent="1" vertex="1">
          <mxGeometry x="690" y="10" width="120" height="60" as="geometry" />
        </mxCell>
        <mxCell id="a2SI8e3hPeV6xsrfjzk1-49" value="完成" style="ellipse;whiteSpace=wrap;html=1;aspect=fixed;align=center;" parent="1" vertex="1">
          <mxGeometry x="910" y="10" width="60" height="60" as="geometry" />
        </mxCell>
        <mxCell id="a2SI8e3hPeV6xsrfjzk1-50" value="事件规则表达式" style="text;html=1;strokeColor=none;fillColor=none;align=center;verticalAlign=middle;whiteSpace=wrap;rounded=0;" parent="1" vertex="1">
          <mxGeometry x="315" y="440" width="100" height="20" as="geometry" />
        </mxCell>
        <mxCell id="a2SI8e3hPeV6xsrfjzk1-51" value="" style="rounded=0;whiteSpace=wrap;html=1;align=left;" parent="1" vertex="1">
          <mxGeometry x="90" y="260" width="620" height="160" as="geometry" />
        </mxCell>
        <mxCell id="a2SI8e3hPeV6xsrfjzk1-52" value="事件规则" style="text;html=1;strokeColor=none;fillColor=none;align=center;verticalAlign=middle;whiteSpace=wrap;rounded=0;fontStyle=1" parent="1" vertex="1">
          <mxGeometry x="95" y="270" width="95" height="20" as="geometry" />
        </mxCell>
        <mxCell id="a2SI8e3hPeV6xsrfjzk1-53" value="" style="shape=image;verticalLabelPosition=bottom;labelBackgroundColor=#ffffff;verticalAlign=top;aspect=fixed;imageAspect=0;image=data:image/png,iVBORw0KGgoAAAANSUhEUgAAABcAAAAbCAYAAACX6BTbAAAA10lEQVRIDe2UMQ6EIBBFPSFngcbGi3EL291mS40VNBRS+DdDzJKViYvj2jnJJASHN59vhgYXRnMhGzecdfe2pc6WZVkgSY5eeK61hiSr4dM0wXtflVRLYrhglRO4Nqj2AviMEGK6HQ9/luNPhb+VzxhsB9VaPP6rfAV3FmPEjnLsKI8BYd46/w2mryLPB9tCdRbDp0EJFsOBiJF8TQ148Ak4HV0bKJWakMfbENmSIRGvvk8/L+/l1Ul4BnGrw3AaaedcVR4af2MMJMndqnhbuCLp3g1nnXsDSHY0UUpMASAAAAAASUVORK5CYII=;" parent="1" vertex="1">
          <mxGeometry x="95" y="290" width="23" height="27" as="geometry" />
        </mxCell>
        <mxCell id="a2SI8e3hPeV6xsrfjzk1-54" value="&lt;span style=&quot;font-weight: normal&quot;&gt;窗口&lt;/span&gt;" style="text;html=1;strokeColor=none;fillColor=none;align=center;verticalAlign=middle;whiteSpace=wrap;rounded=0;fontStyle=1" parent="1" vertex="1">
          <mxGeometry x="120" y="293.5" width="40" height="20" as="geometry" />
        </mxCell>
        <mxCell id="a2SI8e3hPeV6xsrfjzk1-55" value="&lt;span style=&quot;font-weight: normal&quot;&gt;自定义流量&lt;/span&gt;" style="text;html=1;strokeColor=none;fillColor=none;align=left;verticalAlign=middle;whiteSpace=wrap;rounded=0;fontStyle=1" parent="1" vertex="1">
          <mxGeometry x="100" y="350" width="90" height="20" as="geometry" />
        </mxCell>
        <mxCell id="a2SI8e3hPeV6xsrfjzk1-56" value="30" style="rounded=0;whiteSpace=wrap;html=1;" parent="1" vertex="1">
          <mxGeometry x="200" y="320" width="80" height="20" as="geometry" />
        </mxCell>
        <mxCell id="a2SI8e3hPeV6xsrfjzk1-57" value="" style="shape=image;verticalLabelPosition=bottom;labelBackgroundColor=#ffffff;verticalAlign=top;aspect=fixed;imageAspect=0;image=data:image/png,iVBORw0KGgoAAAANSUhEUgAAAD0AAAAiCAYAAADs4tGnAAABkUlEQVRoBe2ZUZKDIAyGvRPPXsThMtzEg3gFD6BH8G33aV9qOkHdZjEU4rR2BZhxqhCMH38StVaQYasyZIbq6/sHctiouBb6dpthntPckA1Fpc1CI3CqDdkKNMCS00XpxOK8hPcqaClkfGR3YJSGdsDRAVqtQC8HvPk/6z0U3p1RoEz3QBla0L+L8Oh+9940TVEuXDsx9NBqULoFKzJxafuVAbIUZPT1u33fQ9M04AK5nnAc7dB+ayLoEFhofHP6qt8QOAeMviOhl7zlFN4BdAaUOi/HfeA+4GjoXQ7vSN0OwSK5Uw8cu+DPgPH0kUqj6QqilFUS1eS38/Kars8GPo7jLoepnRCaTLXVmoGzoc30k6nv3EXwuq7/FC3On0BpMh3hmAoOH4bGK8TQDrVD0Jjj3MOI73YWuoizx8XQz25LSULbKu598loLHX1SO1vCSH9xSnvuvcsi0Cr+uSIWyWvN4qAlZ7yAbYFeRSrv0xeIVvElesM7y/+9s/vCIY6XBCbk+QEvAeHECEVp8ZJddMIdjneiMXUYqSgAAAAASUVORK5CYII=;" parent="1" vertex="1">
          <mxGeometry x="294.12" y="320" width="35.88" height="20" as="geometry" />
        </mxCell>
        <mxCell id="a2SI8e3hPeV6xsrfjzk1-58" value="&lt;span style=&quot;font-weight: normal&quot;&gt;窗口保留策略：&lt;/span&gt;" style="text;html=1;strokeColor=none;fillColor=none;align=left;verticalAlign=middle;whiteSpace=wrap;rounded=0;fontStyle=1" parent="1" vertex="1">
          <mxGeometry x="100" y="320" width="90" height="20" as="geometry" />
        </mxCell>
        <mxCell id="a2SI8e3hPeV6xsrfjzk1-59" value="&amp;gt;" style="rounded=0;whiteSpace=wrap;html=1;" parent="1" vertex="1">
          <mxGeometry x="200" y="350" width="50" height="20" as="geometry" />
        </mxCell>
        <mxCell id="a2SI8e3hPeV6xsrfjzk1-61" value="100" style="rounded=0;whiteSpace=wrap;html=1;" parent="1" vertex="1">
          <mxGeometry x="260" y="350" width="60" height="20" as="geometry" />
        </mxCell>
        <mxCell id="a2SI8e3hPeV6xsrfjzk1-62" value="&lt;span style=&quot;font-weight: normal&quot;&gt;MB&lt;/span&gt;" style="text;html=1;strokeColor=none;fillColor=none;align=left;verticalAlign=middle;whiteSpace=wrap;rounded=0;fontStyle=1" parent="1" vertex="1">
          <mxGeometry x="325" y="350" width="35" height="20" as="geometry" />
        </mxCell>
        <mxCell id="a2SI8e3hPeV6xsrfjzk1-63" value="插入标签" style="text;html=1;align=center;verticalAlign=middle;whiteSpace=wrap;rounded=0;fontColor=#3333FF;" parent="1" vertex="1">
          <mxGeometry x="360" y="350" width="50" height="20" as="geometry" />
        </mxCell>
        <mxCell id="a2SI8e3hPeV6xsrfjzk1-64" value="" style="rounded=0;whiteSpace=wrap;html=1;fontSize=7;fillColor=#eeeeee;strokeColor=#36393d;" parent="1" vertex="1">
          <mxGeometry x="450" y="160" width="120" height="20" as="geometry" />
        </mxCell>
        <mxCell id="a2SI8e3hPeV6xsrfjzk1-65" value="&lt;font style=&quot;font-size: 12px&quot;&gt;dpi_app编码_视频&lt;/font&gt;" style="rounded=0;whiteSpace=wrap;html=1;fontSize=7;" parent="1" vertex="1">
          <mxGeometry x="450" y="180" width="120" height="20" as="geometry" />
        </mxCell>
        <mxCell id="a2SI8e3hPeV6xsrfjzk1-66" value="&lt;span style=&quot;font-size: 12px ; line-height: 14.4px&quot;&gt;dpi_app编码_游戏&lt;/span&gt;" style="rounded=0;whiteSpace=wrap;html=1;fontSize=7;" parent="1" vertex="1">
          <mxGeometry x="450" y="200" width="120" height="20" as="geometry" />
        </mxCell>
        <mxCell id="a2SI8e3hPeV6xsrfjzk1-67" value="&lt;span style=&quot;font-size: 12px ; line-height: 14.4px&quot;&gt;dpi_app编码_自定义&lt;/span&gt;" style="rounded=0;whiteSpace=wrap;html=1;fontSize=7;fillColor=#ffff88;strokeColor=#36393d;" parent="1" vertex="1">
          <mxGeometry x="450" y="220" width="120" height="20" as="geometry" />
        </mxCell>
        <mxCell id="a2SI8e3hPeV6xsrfjzk1-68" value="" style="endArrow=none;html=1;exitX=0;exitY=1;exitDx=0;exitDy=0;entryX=0.75;entryY=1;entryDx=0;entryDy=0;strokeWidth=9;strokeColor=#B5B5B5;" parent="1" edge="1">
          <mxGeometry width="50" height="50" relative="1" as="geometry">
            <mxPoint x="90" y="245" as="sourcePoint" />
            <mxPoint x="450" y="245" as="targetPoint" />
          </mxGeometry>
        </mxCell>
        <mxCell id="a2SI8e3hPeV6xsrfjzk1-69" value="函数：" style="text;html=1;strokeColor=none;fillColor=none;align=center;verticalAlign=middle;whiteSpace=wrap;rounded=0;fontStyle=1" parent="1" vertex="1">
          <mxGeometry x="180" y="293.5" width="40" height="20" as="geometry" />
        </mxCell>
        <mxCell id="a2SI8e3hPeV6xsrfjzk1-70" value="count" style="text;html=1;strokeColor=none;fillColor=none;align=center;verticalAlign=middle;whiteSpace=wrap;rounded=0;fontStyle=1" parent="1" vertex="1">
          <mxGeometry x="294.12" y="293.5" width="40" height="20" as="geometry" />
        </mxCell>
        <mxCell id="a2SI8e3hPeV6xsrfjzk1-71" value="" style="rounded=0;whiteSpace=wrap;html=1;" parent="1" vertex="1">
          <mxGeometry x="222.5" y="295" width="50" height="20" as="geometry" />
        </mxCell>
        <mxCell id="a2SI8e3hPeV6xsrfjzk1-72" value="sum" style="text;html=1;strokeColor=none;fillColor=none;align=center;verticalAlign=middle;whiteSpace=wrap;rounded=0;fontStyle=1" parent="1" vertex="1">
          <mxGeometry x="225" y="293.5" width="40" height="20" as="geometry" />
        </mxCell>
        <mxCell id="u8XT7-E8wBgZD-2OsvR0-1" value="事件描述：适配类事件" style="text;html=1;strokeColor=none;fillColor=none;align=left;verticalAlign=middle;whiteSpace=wrap;rounded=0;fontStyle=1" vertex="1" parent="1">
          <mxGeometry x="100" y="380" width="140" height="20" as="geometry" />
        </mxCell>
        <mxCell id="a2SI8e3hPeV6xsrfjzk1-60" value="=&lt;br&gt;!=&lt;br&gt;&amp;gt;&lt;br&gt;&amp;lt;&lt;br&gt;in&lt;br&gt;not in" style="rounded=0;whiteSpace=wrap;html=1;align=center;" parent="1" vertex="1">
          <mxGeometry x="200" y="370" width="50" height="90" as="geometry" />
        </mxCell>
      </root>
    </mxGraphModel>
  </diagram>
  <diagram id="aNn-BnNXP9hAeUtPsyeA" name="码表-导入类">
    <mxGraphModel dx="964" dy="593" grid="1" gridSize="10" guides="1" tooltips="1" connect="1" arrows="1" fold="1" page="1" pageScale="1" pageWidth="827" pageHeight="1169" math="0" shadow="0">
      <root>
        <mxCell id="GdD8tUNiGo03zhgDsvI8-0" />
        <mxCell id="GdD8tUNiGo03zhgDsvI8-1" parent="GdD8tUNiGo03zhgDsvI8-0" />
        <mxCell id="Zl8XC0yy374mK50osEl1-0" value="" style="rounded=0;whiteSpace=wrap;html=1;align=left;" vertex="1" parent="GdD8tUNiGo03zhgDsvI8-1">
          <mxGeometry x="10" y="100" width="790" height="520" as="geometry" />
        </mxCell>
        <mxCell id="Zl8XC0yy374mK50osEl1-1" value="" style="rounded=0;whiteSpace=wrap;html=1;" vertex="1" parent="GdD8tUNiGo03zhgDsvI8-1">
          <mxGeometry x="90" y="160" width="480" height="90" as="geometry" />
        </mxCell>
        <mxCell id="Zl8XC0yy374mK50osEl1-2" value="" style="endArrow=none;html=1;" edge="1" parent="GdD8tUNiGo03zhgDsvI8-1">
          <mxGeometry width="50" height="50" relative="1" as="geometry">
            <mxPoint y="80" as="sourcePoint" />
            <mxPoint x="980" y="80" as="targetPoint" />
          </mxGeometry>
        </mxCell>
        <mxCell id="Zl8XC0yy374mK50osEl1-3" value="" style="rounded=0;whiteSpace=wrap;html=1;align=center;" vertex="1" parent="GdD8tUNiGo03zhgDsvI8-1">
          <mxGeometry x="827" y="100" width="143" height="520" as="geometry" />
        </mxCell>
        <mxCell id="Zl8XC0yy374mK50osEl1-4" value="摘要" style="text;html=1;strokeColor=none;fillColor=none;align=center;verticalAlign=middle;whiteSpace=wrap;rounded=0;" vertex="1" parent="GdD8tUNiGo03zhgDsvI8-1">
          <mxGeometry x="827" y="100" width="40" height="20" as="geometry" />
        </mxCell>
        <mxCell id="Zl8XC0yy374mK50osEl1-5" value="已选择的事件：" style="text;html=1;strokeColor=none;fillColor=none;align=center;verticalAlign=middle;whiteSpace=wrap;rounded=0;" vertex="1" parent="GdD8tUNiGo03zhgDsvI8-1">
          <mxGeometry x="190" y="130" width="90" height="20" as="geometry" />
        </mxCell>
        <mxCell id="Zl8XC0yy374mK50osEl1-6" value="&lt;span style=&quot;line-height: 14.4px&quot;&gt;dpi_app编码_自定义事件&lt;/span&gt;" style="rounded=1;whiteSpace=wrap;html=1;align=center;" vertex="1" parent="GdD8tUNiGo03zhgDsvI8-1">
          <mxGeometry x="430" y="130" width="150" height="20" as="geometry" />
        </mxCell>
        <mxCell id="Zl8XC0yy374mK50osEl1-7" value="&lt;span style=&quot;line-height: 14.4px&quot;&gt;流量_漫游_省外漫游事件&lt;/span&gt;" style="rounded=1;whiteSpace=wrap;html=1;align=center;" vertex="1" parent="GdD8tUNiGo03zhgDsvI8-1">
          <mxGeometry x="277.5" y="130" width="142.5" height="20" as="geometry" />
        </mxCell>
        <mxCell id="Zl8XC0yy374mK50osEl1-8" value="" style="rounded=0;whiteSpace=wrap;html=1;align=center;" vertex="1" parent="GdD8tUNiGo03zhgDsvI8-1">
          <mxGeometry x="837.75" y="210" width="120" height="80" as="geometry" />
        </mxCell>
        <mxCell id="Zl8XC0yy374mK50osEl1-9" value="事件规则：&lt;span style=&quot;line-height: 14.4px ; text-align: center&quot;&gt;流量_漫游_省外漫游事件&lt;/span&gt;&amp;nbsp;AND ( app编码=爱奇艺 OR app编码=腾讯视频 )" style="text;html=1;strokeColor=none;fillColor=none;align=left;verticalAlign=middle;whiteSpace=wrap;rounded=0;" vertex="1" parent="GdD8tUNiGo03zhgDsvI8-1">
          <mxGeometry x="840.5" y="200" width="121.5" height="90" as="geometry" />
        </mxCell>
        <mxCell id="Zl8XC0yy374mK50osEl1-10" value="" style="rounded=0;whiteSpace=wrap;html=1;align=left;" vertex="1" parent="GdD8tUNiGo03zhgDsvI8-1">
          <mxGeometry x="90" y="430" width="620" height="180" as="geometry" />
        </mxCell>
        <mxCell id="Zl8XC0yy374mK50osEl1-11" value="" style="rounded=0;whiteSpace=wrap;html=1;align=left;" vertex="1" parent="GdD8tUNiGo03zhgDsvI8-1">
          <mxGeometry x="90" y="470" width="220" height="140" as="geometry" />
        </mxCell>
        <mxCell id="Zl8XC0yy374mK50osEl1-12" value="运算符选择" style="text;html=1;strokeColor=none;fillColor=none;align=center;verticalAlign=middle;whiteSpace=wrap;rounded=0;" vertex="1" parent="GdD8tUNiGo03zhgDsvI8-1">
          <mxGeometry x="95" y="440" width="70" height="20" as="geometry" />
        </mxCell>
        <mxCell id="Zl8XC0yy374mK50osEl1-13" value="(" style="rounded=1;whiteSpace=wrap;html=1;align=center;" vertex="1" parent="GdD8tUNiGo03zhgDsvI8-1">
          <mxGeometry x="95" y="480" width="50" height="20" as="geometry" />
        </mxCell>
        <mxCell id="Zl8XC0yy374mK50osEl1-14" value=")" style="rounded=1;whiteSpace=wrap;html=1;align=center;" vertex="1" parent="GdD8tUNiGo03zhgDsvI8-1">
          <mxGeometry x="175" y="480" width="50" height="20" as="geometry" />
        </mxCell>
        <mxCell id="Zl8XC0yy374mK50osEl1-15" value="AND" style="rounded=1;whiteSpace=wrap;html=1;align=center;" vertex="1" parent="GdD8tUNiGo03zhgDsvI8-1">
          <mxGeometry x="95" y="530" width="50" height="20" as="geometry" />
        </mxCell>
        <mxCell id="Zl8XC0yy374mK50osEl1-16" value="OR" style="rounded=1;whiteSpace=wrap;html=1;align=center;" vertex="1" parent="GdD8tUNiGo03zhgDsvI8-1">
          <mxGeometry x="175" y="530" width="50" height="20" as="geometry" />
        </mxCell>
        <mxCell id="Zl8XC0yy374mK50osEl1-17" value="" style="rounded=0;whiteSpace=wrap;html=1;align=left;" vertex="1" parent="GdD8tUNiGo03zhgDsvI8-1">
          <mxGeometry x="310" y="470" width="400" height="140" as="geometry" />
        </mxCell>
        <mxCell id="Zl8XC0yy374mK50osEl1-18" value="事件规则表达式" style="text;html=1;strokeColor=none;fillColor=none;align=left;verticalAlign=middle;whiteSpace=wrap;rounded=0;" vertex="1" parent="GdD8tUNiGo03zhgDsvI8-1">
          <mxGeometry x="410" y="470" width="120" height="20" as="geometry" />
        </mxCell>
        <mxCell id="Zl8XC0yy374mK50osEl1-19" value="app编码=爱奇艺" style="rounded=0;whiteSpace=wrap;html=1;align=left;" vertex="1" parent="GdD8tUNiGo03zhgDsvI8-1">
          <mxGeometry x="420" y="520" width="90" height="20" as="geometry" />
        </mxCell>
        <mxCell id="Zl8XC0yy374mK50osEl1-20" value="OR" style="rounded=1;whiteSpace=wrap;html=1;align=center;" vertex="1" parent="GdD8tUNiGo03zhgDsvI8-1">
          <mxGeometry x="520" y="520" width="50" height="20" as="geometry" />
        </mxCell>
        <mxCell id="Zl8XC0yy374mK50osEl1-21" value="app编码=腾讯视频" style="rounded=0;whiteSpace=wrap;html=1;align=left;" vertex="1" parent="GdD8tUNiGo03zhgDsvI8-1">
          <mxGeometry x="575" y="520" width="115" height="20" as="geometry" />
        </mxCell>
        <mxCell id="Zl8XC0yy374mK50osEl1-22" value="漫游=省外漫游" style="rounded=1;whiteSpace=wrap;html=1;" vertex="1" parent="GdD8tUNiGo03zhgDsvI8-1">
          <mxGeometry x="415" y="490" width="85" height="20" as="geometry" />
        </mxCell>
        <mxCell id="Zl8XC0yy374mK50osEl1-23" value="AND" style="rounded=1;whiteSpace=wrap;html=1;align=center;" vertex="1" parent="GdD8tUNiGo03zhgDsvI8-1">
          <mxGeometry x="515" y="490" width="50" height="20" as="geometry" />
        </mxCell>
        <mxCell id="Zl8XC0yy374mK50osEl1-24" value="(" style="rounded=1;whiteSpace=wrap;html=1;align=center;" vertex="1" parent="GdD8tUNiGo03zhgDsvI8-1">
          <mxGeometry x="575" y="490" width="50" height="20" as="geometry" />
        </mxCell>
        <mxCell id="Zl8XC0yy374mK50osEl1-25" value=")" style="rounded=1;whiteSpace=wrap;html=1;align=center;" vertex="1" parent="GdD8tUNiGo03zhgDsvI8-1">
          <mxGeometry x="415" y="550" width="50" height="20" as="geometry" />
        </mxCell>
        <mxCell id="Zl8XC0yy374mK50osEl1-26" value="" style="rounded=0;whiteSpace=wrap;html=1;align=center;" vertex="1" parent="GdD8tUNiGo03zhgDsvI8-1">
          <mxGeometry x="838.5000000000001" y="120" width="120" height="80" as="geometry" />
        </mxCell>
        <mxCell id="Zl8XC0yy374mK50osEl1-27" value="基本信息：&lt;span style=&quot;line-height: 14.4px&quot;&gt;省外漫游看腾讯视频和爱奇艺&lt;/span&gt;&lt;br&gt;场景编码：&lt;span style=&quot;line-height: 14.4px&quot;&gt;SWMYKTXSPH_9902&lt;/span&gt;&lt;br&gt;场景描述：" style="text;html=1;strokeColor=none;fillColor=none;align=left;verticalAlign=middle;whiteSpace=wrap;rounded=0;" vertex="1" parent="GdD8tUNiGo03zhgDsvI8-1">
          <mxGeometry x="841.25" y="120" width="117.25" height="80" as="geometry" />
        </mxCell>
        <mxCell id="Zl8XC0yy374mK50osEl1-28" value="您关注哪个主体" style="rounded=0;whiteSpace=wrap;html=1;fontSize=7;fillColor=#eeeeee;strokeColor=#36393d;" vertex="1" parent="GdD8tUNiGo03zhgDsvI8-1">
          <mxGeometry x="90" y="160" width="120" height="20" as="geometry" />
        </mxCell>
        <mxCell id="Zl8XC0yy374mK50osEl1-29" value="&lt;font style=&quot;font-size: 12px&quot;&gt;号码 &amp;nbsp; &amp;nbsp; &amp;nbsp; &amp;nbsp; &amp;nbsp; &amp;nbsp; &amp;nbsp; &amp;nbsp; &amp;nbsp; &amp;nbsp; &amp;nbsp; &amp;nbsp; &amp;nbsp;&amp;gt;&lt;/font&gt;" style="rounded=0;whiteSpace=wrap;html=1;fontSize=7;fillColor=#ffff88;strokeColor=#36393d;" vertex="1" parent="GdD8tUNiGo03zhgDsvI8-1">
          <mxGeometry x="90" y="180" width="120" height="20" as="geometry" />
        </mxCell>
        <mxCell id="Zl8XC0yy374mK50osEl1-30" value="&lt;span style=&quot;font-size: 12px ; line-height: 14.4px ; white-space: normal&quot;&gt;基站 &amp;nbsp; &amp;nbsp; &amp;nbsp; &amp;nbsp; &amp;nbsp; &amp;nbsp; &amp;nbsp; &amp;nbsp; &amp;nbsp; &amp;nbsp; &amp;nbsp; &amp;nbsp; &amp;nbsp;&amp;gt;&lt;/span&gt;" style="rounded=0;whiteSpace=wrap;html=1;fontSize=7;" vertex="1" parent="GdD8tUNiGo03zhgDsvI8-1">
          <mxGeometry x="90" y="200" width="120" height="20" as="geometry" />
        </mxCell>
        <mxCell id="Zl8XC0yy374mK50osEl1-31" value="&lt;span style=&quot;font-size: 12px ; line-height: 14.4px ; white-space: normal&quot;&gt;APP &amp;nbsp; &amp;nbsp; &amp;nbsp; &amp;nbsp; &amp;nbsp; &amp;nbsp; &amp;nbsp; &amp;nbsp; &amp;nbsp; &amp;nbsp; &amp;nbsp; &amp;nbsp; &amp;nbsp;&amp;gt;&lt;/span&gt;" style="rounded=0;whiteSpace=wrap;html=1;fontSize=7;" vertex="1" parent="GdD8tUNiGo03zhgDsvI8-1">
          <mxGeometry x="90" y="220" width="120" height="20" as="geometry" />
        </mxCell>
        <mxCell id="Zl8XC0yy374mK50osEl1-32" value="&lt;font style=&quot;font-size: 12px&quot;&gt;您关注哪个业务&lt;/font&gt;" style="rounded=0;whiteSpace=wrap;html=1;fontSize=7;fillColor=#eeeeee;strokeColor=#36393d;" vertex="1" parent="GdD8tUNiGo03zhgDsvI8-1">
          <mxGeometry x="210" y="160" width="120" height="20" as="geometry" />
        </mxCell>
        <mxCell id="Zl8XC0yy374mK50osEl1-33" value="&lt;font style=&quot;font-size: 12px&quot;&gt;dpi_app编码 &amp;nbsp; &amp;nbsp; &amp;nbsp; &amp;nbsp; &amp;nbsp; &amp;nbsp; &amp;gt;&lt;/font&gt;" style="rounded=0;whiteSpace=wrap;html=1;fontSize=7;fillColor=#ffff88;strokeColor=#36393d;" vertex="1" parent="GdD8tUNiGo03zhgDsvI8-1">
          <mxGeometry x="210" y="180" width="120" height="20" as="geometry" />
        </mxCell>
        <mxCell id="Zl8XC0yy374mK50osEl1-34" value="&lt;font style=&quot;font-size: 12px&quot;&gt;预付费_流量&lt;/font&gt;&lt;span style=&quot;font-size: 12px ; line-height: 14.4px&quot;&gt;&amp;nbsp;&amp;nbsp; &amp;nbsp; &amp;nbsp; &amp;nbsp; &amp;nbsp; &amp;nbsp; &amp;gt;&lt;/span&gt;" style="rounded=0;whiteSpace=wrap;html=1;fontSize=7;" vertex="1" parent="GdD8tUNiGo03zhgDsvI8-1">
          <mxGeometry x="210" y="200" width="120" height="20" as="geometry" />
        </mxCell>
        <mxCell id="Zl8XC0yy374mK50osEl1-35" value="&lt;span style=&quot;line-height: 11.52px ; white-space: normal&quot;&gt;&lt;font style=&quot;font-size: 12px&quot;&gt;后付费_流量&lt;/font&gt;&lt;/span&gt;&lt;span style=&quot;font-size: 12px ; line-height: 14.4px&quot;&gt;&amp;nbsp;&amp;nbsp; &amp;nbsp; &amp;nbsp; &amp;nbsp; &amp;nbsp; &amp;nbsp; &amp;gt;&lt;/span&gt;" style="rounded=0;whiteSpace=wrap;html=1;fontSize=7;" vertex="1" parent="GdD8tUNiGo03zhgDsvI8-1">
          <mxGeometry x="210" y="220" width="120" height="20" as="geometry" />
        </mxCell>
        <mxCell id="Zl8XC0yy374mK50osEl1-36" value="&lt;font style=&quot;font-size: 12px&quot;&gt;您关注哪个事件&lt;/font&gt;" style="rounded=0;whiteSpace=wrap;html=1;fontSize=7;fillColor=#eeeeee;strokeColor=#36393d;" vertex="1" parent="GdD8tUNiGo03zhgDsvI8-1">
          <mxGeometry x="330" y="160" width="120" height="20" as="geometry" />
        </mxCell>
        <mxCell id="Zl8XC0yy374mK50osEl1-37" value="&lt;font style=&quot;font-size: 12px&quot;&gt;dpi_app编码_视频&lt;/font&gt;" style="rounded=0;whiteSpace=wrap;html=1;fontSize=7;" vertex="1" parent="GdD8tUNiGo03zhgDsvI8-1">
          <mxGeometry x="330" y="180" width="120" height="20" as="geometry" />
        </mxCell>
        <mxCell id="Zl8XC0yy374mK50osEl1-38" value="&lt;span style=&quot;font-size: 12px ; line-height: 14.4px&quot;&gt;dpi_app编码_游戏&lt;/span&gt;" style="rounded=0;whiteSpace=wrap;html=1;fontSize=7;" vertex="1" parent="GdD8tUNiGo03zhgDsvI8-1">
          <mxGeometry x="330" y="200" width="120" height="20" as="geometry" />
        </mxCell>
        <mxCell id="Zl8XC0yy374mK50osEl1-39" value="&lt;span style=&quot;font-size: 12px ; line-height: 14.4px&quot;&gt;dpi_app编码_自定义&lt;/span&gt;" style="rounded=0;whiteSpace=wrap;html=1;fontSize=7;fillColor=#ffff88;strokeColor=#36393d;" vertex="1" parent="GdD8tUNiGo03zhgDsvI8-1">
          <mxGeometry x="330" y="220" width="120" height="20" as="geometry" />
        </mxCell>
        <mxCell id="Zl8XC0yy374mK50osEl1-40" style="edgeStyle=orthogonalEdgeStyle;rounded=0;orthogonalLoop=1;jettySize=auto;html=1;" edge="1" parent="GdD8tUNiGo03zhgDsvI8-1" source="Zl8XC0yy374mK50osEl1-41" target="Zl8XC0yy374mK50osEl1-43">
          <mxGeometry relative="1" as="geometry" />
        </mxCell>
        <mxCell id="Zl8XC0yy374mK50osEl1-41" value="场景基本信息" style="rounded=0;whiteSpace=wrap;html=1;align=center;" vertex="1" parent="GdD8tUNiGo03zhgDsvI8-1">
          <mxGeometry x="10" y="10" width="120" height="60" as="geometry" />
        </mxCell>
        <mxCell id="Zl8XC0yy374mK50osEl1-42" style="edgeStyle=orthogonalEdgeStyle;rounded=0;orthogonalLoop=1;jettySize=auto;html=1;" edge="1" parent="GdD8tUNiGo03zhgDsvI8-1" source="Zl8XC0yy374mK50osEl1-43" target="Zl8XC0yy374mK50osEl1-45">
          <mxGeometry relative="1" as="geometry">
            <mxPoint x="370" y="40" as="targetPoint" />
          </mxGeometry>
        </mxCell>
        <mxCell id="Zl8XC0yy374mK50osEl1-43" value="&lt;span style=&quot;line-height: 14.4px&quot;&gt;配置事件规则&lt;/span&gt;" style="rounded=0;whiteSpace=wrap;html=1;align=center;fillColor=#fff2cc;strokeColor=#d6b656;" vertex="1" parent="GdD8tUNiGo03zhgDsvI8-1">
          <mxGeometry x="220" y="10" width="120" height="60" as="geometry" />
        </mxCell>
        <mxCell id="Zl8XC0yy374mK50osEl1-44" style="edgeStyle=orthogonalEdgeStyle;rounded=0;orthogonalLoop=1;jettySize=auto;html=1;" edge="1" parent="GdD8tUNiGo03zhgDsvI8-1" source="Zl8XC0yy374mK50osEl1-45" target="Zl8XC0yy374mK50osEl1-47">
          <mxGeometry relative="1" as="geometry">
            <mxPoint x="610" y="40" as="targetPoint" />
          </mxGeometry>
        </mxCell>
        <mxCell id="Zl8XC0yy374mK50osEl1-45" value="配置标签" style="rounded=0;whiteSpace=wrap;html=1;align=center;" vertex="1" parent="GdD8tUNiGo03zhgDsvI8-1">
          <mxGeometry x="450" y="10" width="120" height="60" as="geometry" />
        </mxCell>
        <mxCell id="Zl8XC0yy374mK50osEl1-46" style="edgeStyle=orthogonalEdgeStyle;rounded=0;orthogonalLoop=1;jettySize=auto;html=1;" edge="1" parent="GdD8tUNiGo03zhgDsvI8-1" source="Zl8XC0yy374mK50osEl1-47" target="Zl8XC0yy374mK50osEl1-48">
          <mxGeometry relative="1" as="geometry" />
        </mxCell>
        <mxCell id="Zl8XC0yy374mK50osEl1-47" value="配置&lt;span style=&quot;line-height: 14.4px ; text-align: left&quot;&gt;消息格式&lt;/span&gt;" style="rounded=0;whiteSpace=wrap;html=1;align=center;direction=west;" vertex="1" parent="GdD8tUNiGo03zhgDsvI8-1">
          <mxGeometry x="690" y="10" width="120" height="60" as="geometry" />
        </mxCell>
        <mxCell id="Zl8XC0yy374mK50osEl1-48" value="完成" style="ellipse;whiteSpace=wrap;html=1;aspect=fixed;align=center;" vertex="1" parent="GdD8tUNiGo03zhgDsvI8-1">
          <mxGeometry x="910" y="10" width="60" height="60" as="geometry" />
        </mxCell>
        <mxCell id="Zl8XC0yy374mK50osEl1-49" value="事件规则表达式" style="text;html=1;strokeColor=none;fillColor=none;align=center;verticalAlign=middle;whiteSpace=wrap;rounded=0;" vertex="1" parent="GdD8tUNiGo03zhgDsvI8-1">
          <mxGeometry x="315" y="440" width="100" height="20" as="geometry" />
        </mxCell>
        <mxCell id="Zl8XC0yy374mK50osEl1-50" value="" style="rounded=0;whiteSpace=wrap;html=1;align=left;" vertex="1" parent="GdD8tUNiGo03zhgDsvI8-1">
          <mxGeometry x="90" y="260" width="620" height="160" as="geometry" />
        </mxCell>
        <mxCell id="Zl8XC0yy374mK50osEl1-51" value="事件规则" style="text;html=1;strokeColor=none;fillColor=none;align=center;verticalAlign=middle;whiteSpace=wrap;rounded=0;fontStyle=1" vertex="1" parent="GdD8tUNiGo03zhgDsvI8-1">
          <mxGeometry x="95" y="270" width="70" height="20" as="geometry" />
        </mxCell>
        <mxCell id="Zl8XC0yy374mK50osEl1-54" value="视频事件" style="text;html=1;strokeColor=none;fillColor=none;align=left;verticalAlign=middle;whiteSpace=wrap;rounded=0;fontStyle=1" vertex="1" parent="GdD8tUNiGo03zhgDsvI8-1">
          <mxGeometry x="100" y="350" width="90" height="20" as="geometry" />
        </mxCell>
        <mxCell id="Zl8XC0yy374mK50osEl1-58" value="in" style="rounded=0;whiteSpace=wrap;html=1;" vertex="1" parent="GdD8tUNiGo03zhgDsvI8-1">
          <mxGeometry x="200" y="350" width="50" height="20" as="geometry" />
        </mxCell>
        <mxCell id="Zl8XC0yy374mK50osEl1-60" value="腾讯、优酷" style="rounded=0;whiteSpace=wrap;html=1;" vertex="1" parent="GdD8tUNiGo03zhgDsvI8-1">
          <mxGeometry x="260" y="350" width="80" height="20" as="geometry" />
        </mxCell>
        <mxCell id="Zl8XC0yy374mK50osEl1-62" value="导入" style="text;html=1;align=center;verticalAlign=middle;whiteSpace=wrap;rounded=0;fontColor=#3333FF;" vertex="1" parent="GdD8tUNiGo03zhgDsvI8-1">
          <mxGeometry x="360" y="350" width="50" height="20" as="geometry" />
        </mxCell>
        <mxCell id="Zl8XC0yy374mK50osEl1-63" value="" style="rounded=0;whiteSpace=wrap;html=1;fontSize=7;fillColor=#eeeeee;strokeColor=#36393d;" vertex="1" parent="GdD8tUNiGo03zhgDsvI8-1">
          <mxGeometry x="450" y="160" width="120" height="20" as="geometry" />
        </mxCell>
        <mxCell id="Zl8XC0yy374mK50osEl1-64" value="&lt;font style=&quot;font-size: 12px&quot;&gt;dpi_app编码_视频&lt;/font&gt;" style="rounded=0;whiteSpace=wrap;html=1;fontSize=7;" vertex="1" parent="GdD8tUNiGo03zhgDsvI8-1">
          <mxGeometry x="450" y="180" width="120" height="20" as="geometry" />
        </mxCell>
        <mxCell id="Zl8XC0yy374mK50osEl1-65" value="&lt;span style=&quot;font-size: 12px ; line-height: 14.4px&quot;&gt;dpi_app编码_游戏&lt;/span&gt;" style="rounded=0;whiteSpace=wrap;html=1;fontSize=7;" vertex="1" parent="GdD8tUNiGo03zhgDsvI8-1">
          <mxGeometry x="450" y="200" width="120" height="20" as="geometry" />
        </mxCell>
        <mxCell id="Zl8XC0yy374mK50osEl1-66" value="&lt;span style=&quot;font-size: 12px ; line-height: 14.4px&quot;&gt;dpi_app编码_自定义&lt;/span&gt;" style="rounded=0;whiteSpace=wrap;html=1;fontSize=7;fillColor=#ffff88;strokeColor=#36393d;" vertex="1" parent="GdD8tUNiGo03zhgDsvI8-1">
          <mxGeometry x="450" y="220" width="120" height="20" as="geometry" />
        </mxCell>
        <mxCell id="Zl8XC0yy374mK50osEl1-67" value="" style="endArrow=none;html=1;exitX=0;exitY=1;exitDx=0;exitDy=0;entryX=0.75;entryY=1;entryDx=0;entryDy=0;strokeWidth=9;strokeColor=#B5B5B5;" edge="1" parent="GdD8tUNiGo03zhgDsvI8-1">
          <mxGeometry width="50" height="50" relative="1" as="geometry">
            <mxPoint x="90" y="245" as="sourcePoint" />
            <mxPoint x="450" y="245" as="targetPoint" />
          </mxGeometry>
        </mxCell>
        <mxCell id="lz0Az-moAFI5BCxEGC6E-2" value="事件描述：适配类事件" style="text;html=1;strokeColor=none;fillColor=none;align=left;verticalAlign=middle;whiteSpace=wrap;rounded=0;fontStyle=1" vertex="1" parent="GdD8tUNiGo03zhgDsvI8-1">
          <mxGeometry x="100" y="380" width="140" height="20" as="geometry" />
        </mxCell>
        <mxCell id="Zl8XC0yy374mK50osEl1-59" value="in&lt;br&gt;not in" style="rounded=0;whiteSpace=wrap;html=1;align=center;" vertex="1" parent="GdD8tUNiGo03zhgDsvI8-1">
          <mxGeometry x="200" y="370" width="50" height="50" as="geometry" />
        </mxCell>
        <mxCell id="lz0Az-moAFI5BCxEGC6E-3" value="" style="shape=image;verticalLabelPosition=bottom;labelBackgroundColor=#ffffff;verticalAlign=top;aspect=fixed;imageAspect=0;image=data:image/png,iVBORw0KGgoAAAANSUhEUgAAARcAAAEgCAYAAACerDfBAAAY1ElEQVR4nO3c327iaJ7G8bonboNrCFcw3ICPZveA1bY0Bz6enNpRyxIyOYmoA0cKk5kgvQqWqEVsZp1KpjPQpNNOKnHcobM8e9D7MsbY+CXhpYE8H+mVphLKpnrK3/r5D/n0v6+v+PXXMV5efkH8HOHp6RHfvt3j4f5n3Id3CH++Q/jzT1xcXFw56w734c94uA/x+O0B0dMj4vgZn3799Ve8vPyC5yjC47cHhD/f4afbHzH6cYAfBzcYDn7A4J8/YPDPf3BxcXGl1g8YDn7Aj8Mb3P44wN1PI9yHP+Px8Rs+jccviONnWMEYRER5rq6u4HkeHMfB999/D8dx4Hkerq6upq+xgjFuR0Pch3f49PLyC6LoiXEholydTgfff/997up0OgB+i8s/b67x0+2P+PTLLzGeHr8xLkSU6erqamFY5Lq6uoIVjHF9FeDH4Q0+/RI/4/HbA+NCRJk8z1OKi+d5sIIxvgYXGNz8A5/i+BnfHu4ZFyLKJK+xFC3HcWAFYwR/7+Pmhyt8ip+f8e0hZFyIKJNKWOSygjH+56KHm398xaf4OcID40JEOZaNy98veviBcSGiIkvH5b+TcblnXIgo2/Jx+S/GhYiKMS5EpAXjQkRaMC5EpMVGxmUymaDf76PZbKLRaBSuo6MjdLtdvL6+rvy9ENHbbGRc+v0+Go0G2u02er1e4RJCoNFowPf9lb8XInqbjYxLs9lEu93G3d2d8vJ9H4eHh5xeiDbERsalXq+j2+1iNBopr4uLC9TrdTw+Pi69vyAIsLe3hyAIFr5OCAHTNOd+b7lchhBi7uvVahVhGM583TRNuK5b+J7iOIZhGCiVSiiVSiiXy4Xvj2iTbGRcHMfB+fk5bm5ulFev14PjOHh4eFh6f6px+fz5MyqVCgzDwJcvX1Aul6cHv1yGYSCOYwghpv9bkl8vl8uoVCoIwxCu685tgzGhXbCRcbFtG+12G5eXl8rL933Yto37+/ul96caFwAIwxCVSgW2bc9NJq7rToPium7uhCKnkvQUlNx+ehIi2jYbGRfLsnB2doYgCJRXp9OBZVkL45I3JRStrAjI06GsySUMw5lTmmUmEcaFdsWHikselclFBkNOKlnXVOTkMhgMUK1WEQTBdEoRQsxMNnIbWYHKW+nTLKJNxrhAPS61Wg2lUglCiIWTS6vVmk4qYRhOQ/PlyxdUKhWUSqXcUyZOLrQrGBcsd83Fdd2Z06QgCFCr1aYTRfIujxBiJi7JbcgLummMC+2KDxOXt15vkavo4qyMQRiGME0TtVoNruvm3pLOw7jQrvgwcckjD+ZSqZQ7TaQVXSuRd4pM08y8JZ2cfpL7f0vciDbVRsbFcRwcHx8vFZfT01NYloXn52fl/cipw7Zt7O3twbbtzDtD6dfLA10IkRskGRU5wSSZpjn9fVmnTYv2SbQtNjIuMhQnJyfodDqFS77e8zzlx/+TB23ymsuiJ2jTpyyL4iJfm74FLb8u98G40K7ayLjc3t6i1Wrh4OAAlmUpLc/zMBgMMJlMCrefPmDTF3TzApN+XdZ1nOTvS996Bn4LkrzYCzAutLveHJd//7c/4rv//A8tcYnjGKPRCMPhENfX14VrMBhgNBohiqLCbcvrJcmDNetukWmamWGQX8t6yjYZpbzJJXlKJF/HuNAu2sjJBQDG4zGiKMLT01PhiqIILy8vhduUk0bWhwyzbkWnX5+8EJv+wGLyrlEyPMnpRQYnGSRe0KVdtbFxWbWsSURa9JyLPPj/9Kc/TScIGY/k9uTrWq3WzPeSoZFP7ibjxsmFdtWHicsiqk/oyou5ydOj5OQhn87N+jR0rVbjp5zpQ2FciEgLxoWItGBciEgLxoWItGBciEgLxoWItGBciEgLxoWItGBciEgLxoWItGBciEgLxoWItGBciEgLxoWItGBciEgLxoWItFhZXKxgzMXFxTVdnFyISAvGhYi0YFyISAvGhYi0YFyISAvGhYi0YFyISAvGhYi0YFyISAvGhYi0YFyISAvGhYi0YFyISIuNjMtkMkG/30ez2USj0ShcR0dH6Ha7eH19Xfl7IaK32ci49Pt9NBoNtNtt9Hq9wiWEQKPRgO/7K38vRPQ2GxmXZrOJdruNu7s75eX7Pg4PD9cyvcRxDMMwIITI/Z7rutrfB9Em28i41Ot1dLtdjEYj5XVxcYF6vY7Hx8el9uW6LgzDQBzHS/0+IQQqlQrCMJz5ehiGqFarCIJgqe0R7ZqNjIvjODg/P8fNzY3y6vV6cBwHDw8PyvsJwxCVSuVNU0Ycx3NhAfKjIwVBgL29vZn4JAMn31OpVJpZi7ZJtIk2Mi62baPdbuPy8lJ5+b4P27Zxf3+fuU0hxNwBu8yybTvzoE8uIQRM08z8Xrlcxp///OeFv79cLk/jlDzlKgoW0SbayLhYloWzszMEQaC8Op0OLMvKjUtaEATTg3lV5DaTk5AQYua0S3VyYVxo233YuJim+aZrLUEQoFqtIgzDuesrcmoxTXP6+vQ1HcaFPooPGZdlTpHSU0ipVEKr1Zoe6PJrtm2jWq1if39/Jiamac7ERk436f3wmgvtmg8XF3lwq0wtpmlO45KcWLK2WavVEMfxzJSRdcuakwt9FB8qLvLA/cMf/rB0XCQhxNw0kzWZCCEyQ6ISl/StbMaFttGHiYsMi2mabz4tAoAvX75Mb19nTSbyazJM6YipnBYxLrQLNjIujuPg+Ph4qbicnp7Csiw8Pz9nbjM5haTv4OTJmlyA2UBkbScZr/TdqKLJJS8+jAttm42MiwzFyckJOp1O4ZKv9zxP6fH/98YFyL7tLMnpJWsfKnFJX9vh5ELbaCPjcnt7i1arhYODA1iWpbQ8z8NgMMBkMinc/nvjkr6jk55OXNedfi95PSbvAbvkdJK+2yTfL+NC22Yj4xLHMUajEYbDIa6vrwvXYDDAaDRCFEVK23/PNZfktRvgt2CUy+XpJCLDIoSY7ifrorAMiOu6c3eXsl7PuNC22ci4AMB4PEYURXh6eipcURTh5eVFedtvnVyyToWSF3XToZH7koGRr5V3k+T+ZTwMw8iMCONC22hj46KTSlzSU0TRxwVM08wNQPLZmrz9pu8SpU+9+CMcaNswLgnpOzWcFoje7kPGhYj0Y1yISAvGhYi0cBxHKSyO4zAuRKTO8zyluHiex7gQkbqrqyuluFxdXTEuRLScTqezMCydTgcAGBciWt7V1RU8z5teg3EcB57n4erqavoaxoWItGBciEgLxoWItGBciEgLxoWItGBciEgLxoWItGBciEgLxoWItGBciEiLhXGxgjEXFxfXdK0sLkREb8W4EJEWjAsRacG4EJEWjAsRacG4EJEWjAsRacG4EJEWjAsRacG4EJEWjAsRacG4EJEWjAsRabG2uEwmE/T7fTSbTTQajcJ1dHSEbreL19fXlb8XItJvbXHp9/toNBpot9vo9XqFSwiBRqMB3/dX/l6ISL+1xaXZbKLdbuPu7k55+b6Pw8NDTi9EW2htcanX6+h2uxiNRsrr4uIC9Xodj4+PS+/PdV0YhoE4jpVeH4YhKpUKhBBz3zNNE6ZpLv0eVsF1XVQqFYRh+LvsX5UQAqVSCa7r/t5vhTbE2uLiOA7Oz89xc3OjvHq9HhzHwcPDw9L7C4IA5XJZ+S+7ECL3IC6KSxAE2NvbQxAE068l4ybDVSqVZpZKNFTjIg/uZdcqYpD885XL5Zn/Dov+XOt8j7R+a4uLbdtot9u4vLxUXr7vw7Zt3N/fZ25zmb+gRX9pZUCWOUgNw4DjOAtfUy6Xp+FKTkWLYpb+M75ncpEHvsoBmo6gyn7jOIZhGDAMA2EYTv930cSoMlnKbTMu22ltcbEsC2dnZwiCQHl1Oh1YlpUblyzJv+zLnBJVq9Xcf3FXNbkUxUW+9+S+knF5y8GmGhf5uuS+TdNcOInI95P8c2RtJwvjsvt2Ki55YQmCALVaLfcvcvpAV5mIkgfPquKSt53k60zTXGqSUY1L1oS06PdmhSX9+xYFhnHZfTsTl6KJJe+gzDpIXNctPDDScSmXy5mnTctcc8k64NIH/bLXkpY5LVL9vfI9LIpD0f8fvOay+3YiLvIgKPqXMGvMl9dYfu/JJe9Azpoo0qE0TfNd156yQpo3mch9pe+qua6beQol/1tmvZ6Ty27b+rjkTQ1FF1mDIJhea7Ft+92TS1Fc0td00nHJu8CbFZdlppe3TC7JWMkoqEwieddnsk6TGJfdt/VxSRNCzPylzTrw5QXaIAjw+fPnzGsuqz4tWhSXRQdR3t0i1Wsv7zktkn8ulWd8FsUl7/WMy25b63Mux8fHS8Xl9PQUlmXh+flZeT8qU0Wa7gu6efGR+xRC5B6YeXFRfWjtPXGR+1eJxrJxMU2Tcdlxa4uLDMXJyQk6nU7hkq/3PE/58f+sv4xvjcsqT4uCIEC1Wp0JhNzncDicu/2c3pfqhegsmxgX+d55QXe3rS0ut7e3aLVaODg4gGVZSsvzPAwGA0wmE6V9qN7eTV8/eE9cii6mVioV7O/vz/0rLff59evX6QNoefvKC4gQAtVqFYPBIPe9qsYlb5JQPf1aJi6q74mTy3ZbW1ziOMZoNMJwOMT19XXhGgwGGI1GiKJIafvyNCF9V2JRXGQg3ntaJLchD06VB9827QndrIvE8r+DysG9TFzy/r9KY1y221p/WNR4PEYURXh6eipcURTh5eWlcJvyL2DeX+ysuKQPuPdMLsn9CyGm//LLbeaduqjGZdmH5tLe8/j/shdoVV6/zBPUjMt22+qfRCdPSVRG/kUPsCU/+7Psbe1FB0r6LlH64M1631kXf4v+hS/6874nTqp0XJtZ9El12nxbHZdVUZ0iKJ9KNFQmkfQp6TKfEaPNwrgQkRaMCxFpwbgQkRaMCxFpwbgQkRaMCxFpwbgQkRaMCxFpwbgQkRaMCxFpwbgQkRaMCxFpwbgQkRaMCxFpwbgQkRaMCxFpsTAuVjDm4uLimq6VxYWI6K0YFyLSgnEhIi0YFyLSgnEhIi0YFyLSgnEhIi0YFyLSgnEhIi0YFyLSgnEhIi0YFyLSgnEhIi3WFpfJZIJ+v49ms4lGo1G4jo6O0O128fr6uvL3QkT6rS0u/X4fjUYD7XYbvV6vcAkh0Gg04Pv+yt8LEem3trg0m020223c3d0pL9/3cXh4WDi9CCFQqVQQhuHK3zcRvc3a4lKv19HtdjEajZTXxcUF6vU6Hh8fF27bNE2Ypjnza9d1p79OxyeOY9RqNQRBkLvNMAxRrVYXvoaI8q0tLo7j4Pz8HDc3N8qr1+vBcRw8PDzkbjcMQ1QqFQgh5r4mA5OMSxzHMAwDtVpt4aQThiFqtRrK5XJhYIIgwN7e3szrXNeFYRiI43j6fkql0szitEW7bG1xsW0b7XYbl5eXysv3fdi2jfv7+9ztuq47c8DKGCQP+GRchBDTgx74LTzpg151CSHm9p9e5XJ5uv9kAHkqR7tubXGxLAtnZ2fTA19ldTodWJaVGxeV0xtg8YH8loM8PS2pTi6MC30kWx0XIcTMtZbk14umjuQkw7gQrd5Wx2V/fx+1Wm0mGoZhoNVqLTxwgyBAtVpd2YEdBAHK5fJcwHjNhT6yrY6LlHUdJXngpmMif/3169fMg151yX1yciGa96HjUnRgqwZAJS7p29qMC+06xuX/vScAKqdFjAt9NGt9zuX4+HipuJyensKyLDw/P2du0zTNzOsYnz9/njlwi2KT97VVTS558WFcaJetLS4yFCcnJ+h0OoVLvt7zPKXH/xdNLunvZ4UkGYPkdouut8jtFcXlreEi2lZWMMbZX0/Q/ttf9Mbl9vYWrVYLBwcHsCxLaXmeh8FggMlksnDbRXExTXPmSdv0wS6f2k0f7CoByJqe0tPJ/v5+ZrgYF9pla5tc4jjGaDTCcDjE9fV14RoMBhiNRoiiqHDb6bgkyalC3rJO3rFJvkaetiSfm1kmAMn34Lru3McNkp91WnbbRNtorT8sajweI4oiPD09Fa4oivDy8qK0XXlgy88DJScU+fh98tfJgMiD3zTN6S1jOeWoBED+frmf9PSUNRElv8+40K7aiZ9El/x8jwxJ+lRIkgHJmjIk1c8bVSoVfPfdd7lTU/ouUfphuvQ0Q7RLdiIuyR+xIK+BZJ3+SHLa2N/fX+mTukT0LzsRFyLaPIwLEWnBuBCRFowLEWnBuBCRFowLEWnBuBCRFowLEWnBuBCRFowLEWnBuBCRFowLEWnBuBCRFowLEWnBuBCRFowLEWnBuBCRFgvjYgVjLi4urulaWVyIiN6KcSEiLRgXItKCcSEiLRgXItKCcSEiLRgXItKCcSEiLRgXItKCcSEiLRgXItKCcSEiLRgXItJibXGZTCbo9/toNptoNBqF6+joCN1uF6+vryt/L0Sk39ri0u/30Wg00G630ev1CpcQAo1GA77vr/y9EJF+a4tLs9lEu93G3d2d8vJ9H4eHh9qnlziOYRgGTNNc+H0hhNb3QbRL1haXer2ObreL0WikvC4uLlCv1/H4+Ljy95MUBAH29vYQBAEAIAxDGIaBMAwBZMfFdd3C2LiuC8MwEMexvjdPtKHWFhfHcXB+fo6bmxvl1ev14DgOHh4eMrfpui5KpdLcMgwDtVot83vp18VxPBeBMAzRarVQLpcRBMFcXGSMWq3Wwj/zly9fUKlUGBj6kKxgjLO/nqD9t7/ojYtt22i327i8vFRevu/Dtm3c398r7SMIApTL5bmJIgxDVCqVzElDhiMrOkKI6QQj4yK35bruzHZM0yyMWXrxNIt22domF8uycHZ2hiAIlFen04FlWQvjIoSAaZq5YZGvyZseFn1PSk4ucn9ppmnOBSfPotgR7Yqtj0ty8kge3PIAzpsaKpUKhsNh7oValUkkuT/GhWjW1scFyL7bE4YhqtXq9CJtkhAClUoFvu+jVqvNRUhOJ3mxkPtjXIjybXVc8qaLSqWCy8vLmbgkD34Zl0V3gxgXovfZ6rhIyYNVhmMVcVn2tIgXdIn+Zefi4rouTNOcOy3i5EK0Xmt9zuX4+HipuJyensKyLDw/Py/ctjxYW63W9KBXiYvv+yiXy7nPyajGJSs2RB/d2uIiQ3FycoJOp1O45Os9zyt8/D9rEkjGJT2ZrHpy4ccDiOatLS63t7dotVo4ODiAZVlKy/M8DAYDTCaThdsuikv68f5VX3NJb5+I1hiXOI4xGo0wHA5xfX1duAaDAUajEaIoKtz2Mk/gLnrNWycXlQfxiD6atf6wqPF4jCiK8PT0VLiiKMLLy4vSdvPiIiOQfJy/VCrNPWGb9QSualx4vYUo2078JLqs05K8kMgQpT+oKB+kk19XjUv6FIuIfrPVcUl+KlpGQR74RQe8nE6A3+JUrVZnXp+Oi/zsUvJBvTAMl7oFTfSRbHVciGhzMS5EpAXjQkRaMC5EpAXjQkRaMC5EpAXjQkRaMC5EpAXjQkRaMC5EpAXjQkRaMC5EpAXjQkRaMC5EpAXjQkRaMC5EpMXCuFjBmIuLi2u6VhYXIqK3YlyISAvGhYi0YFyISAvGhYi0YFyISAvGhYi0YFyISAvGhYi0YFyISAvGhYi0YFyISAvGhYi0WFtcJpMJ+v0+ms0mGo1G4To6OkK328Xr6+vK3wsR6be2uPT7fTQaDbTbbfR6vcIlhECj0YDv+yt/L0Sk39ri0mw20W63cXd3p7x838fh4WHh9CKEQLlcRhAEud83DANxHK/8z0VE2dYWl3q9jm63i9FopLwuLi5Qr9fx+Pi4cNumacI0zemvXdeF67rTX6fjEoYhTNNcGJswDFGpVCCEeOefnOhjWltcHMfB+fk5bm5ulFev14PjOHh4eMjdblYEgiCAYRjT4KTjYppm4SQThiFs20apVGJgiN5gbXGxbRvtdhuXl5fKy/d92LaN+/v73O0KIVAqlWaWEAJxHMMwDAghZuLiui4qlQrCMJxuIwgClMvlue0sWjzNIlpsbXGxLAtnZ2cIgkB5dTodWJaVG5dkQBaRcQnDELVabe7aTBAEqFarM8FZxHVdxoWowFbHJe9CrcokkpxeGBei1dvquOzv76NWq82drnz58mVhLIQQjAuRZlsdFyk9wRTFgnEh0m9n47LsaREv6BKt1s7GhZML0e9rrc+5HB8fLxWX09NTWJaF5+fnzG2appk5Vdi2vVRc0r8movdbW1xkKE5OTtDpdAqXfL3neUqP/79ncuHHA4hWb21xub29RavVwsHBASzLUlqe52EwGGAymSzc9nuvuaQ/PkBE77e2uMRxjNFohOFwiOvr68I1GAwwGo0QRVHhtt8zuag+iEdEy1nrD4saj8eIoghPT0+FK4oivLy8KG03/QTu58+flePC6y1EeuzET6JzXXfmc0Wqk8twOIRhGDOfoCai1diJuJimOROIrLik7yy5rrv0LWgiUrcTcSGizcO4EJEWjAsRacG4EJEWjAsRacG4EJEWjAsRaZGMy/8By89UaX3nV0EAAAAASUVORK5CYII=;" vertex="1" parent="GdD8tUNiGo03zhgDsvI8-1">
          <mxGeometry x="258.19" y="372" width="191.81" height="198" as="geometry" />
        </mxCell>
      </root>
    </mxGraphModel>
  </diagram>
  <diagram id="c1vCk78HPqFWh3QQeDS_" name="场景配置-事件离线标签">
    <mxGraphModel dx="964" dy="593" grid="1" gridSize="10" guides="1" tooltips="1" connect="1" arrows="1" fold="1" page="1" pageScale="1" pageWidth="827" pageHeight="1169" math="0" shadow="0">
      <root>
        <mxCell id="CzsrFGAkAEV4UGydM-g0-0" />
        <mxCell id="CzsrFGAkAEV4UGydM-g0-1" parent="CzsrFGAkAEV4UGydM-g0-0" />
        <mxCell id="CzsrFGAkAEV4UGydM-g0-2" value="" style="rounded=0;whiteSpace=wrap;html=1;align=left;" vertex="1" parent="CzsrFGAkAEV4UGydM-g0-1">
          <mxGeometry x="10" y="100" width="790" height="520" as="geometry" />
        </mxCell>
        <mxCell id="CzsrFGAkAEV4UGydM-g0-3" value="" style="rounded=0;whiteSpace=wrap;html=1;" vertex="1" parent="CzsrFGAkAEV4UGydM-g0-1">
          <mxGeometry x="90" y="160" width="480" height="90" as="geometry" />
        </mxCell>
        <mxCell id="CzsrFGAkAEV4UGydM-g0-4" value="" style="endArrow=none;html=1;" edge="1" parent="CzsrFGAkAEV4UGydM-g0-1">
          <mxGeometry width="50" height="50" relative="1" as="geometry">
            <mxPoint y="80" as="sourcePoint" />
            <mxPoint x="980" y="80" as="targetPoint" />
          </mxGeometry>
        </mxCell>
        <mxCell id="CzsrFGAkAEV4UGydM-g0-5" value="" style="rounded=0;whiteSpace=wrap;html=1;align=center;" vertex="1" parent="CzsrFGAkAEV4UGydM-g0-1">
          <mxGeometry x="827" y="100" width="143" height="520" as="geometry" />
        </mxCell>
        <mxCell id="CzsrFGAkAEV4UGydM-g0-6" value="摘要" style="text;html=1;strokeColor=none;fillColor=none;align=center;verticalAlign=middle;whiteSpace=wrap;rounded=0;" vertex="1" parent="CzsrFGAkAEV4UGydM-g0-1">
          <mxGeometry x="827" y="100" width="40" height="20" as="geometry" />
        </mxCell>
        <mxCell id="CzsrFGAkAEV4UGydM-g0-7" value="已选择的事件：" style="text;html=1;strokeColor=none;fillColor=none;align=center;verticalAlign=middle;whiteSpace=wrap;rounded=0;" vertex="1" parent="CzsrFGAkAEV4UGydM-g0-1">
          <mxGeometry x="190" y="130" width="90" height="20" as="geometry" />
        </mxCell>
        <mxCell id="CzsrFGAkAEV4UGydM-g0-8" value="&lt;span style=&quot;line-height: 14.4px&quot;&gt;dpi_app编码_自定义事件&lt;/span&gt;" style="rounded=1;whiteSpace=wrap;html=1;align=center;" vertex="1" parent="CzsrFGAkAEV4UGydM-g0-1">
          <mxGeometry x="430" y="130" width="150" height="20" as="geometry" />
        </mxCell>
        <mxCell id="CzsrFGAkAEV4UGydM-g0-9" value="&lt;span style=&quot;line-height: 14.4px&quot;&gt;流量_漫游_省外漫游事件&lt;/span&gt;" style="rounded=1;whiteSpace=wrap;html=1;align=center;" vertex="1" parent="CzsrFGAkAEV4UGydM-g0-1">
          <mxGeometry x="277.5" y="130" width="142.5" height="20" as="geometry" />
        </mxCell>
        <mxCell id="CzsrFGAkAEV4UGydM-g0-10" value="" style="rounded=0;whiteSpace=wrap;html=1;align=center;" vertex="1" parent="CzsrFGAkAEV4UGydM-g0-1">
          <mxGeometry x="837.75" y="210" width="120" height="80" as="geometry" />
        </mxCell>
        <mxCell id="CzsrFGAkAEV4UGydM-g0-11" value="事件规则：&lt;span style=&quot;line-height: 14.4px ; text-align: center&quot;&gt;流量_漫游_省外漫游事件&lt;/span&gt;&amp;nbsp;AND ( app编码=爱奇艺 OR app编码=腾讯视频 )" style="text;html=1;strokeColor=none;fillColor=none;align=left;verticalAlign=middle;whiteSpace=wrap;rounded=0;" vertex="1" parent="CzsrFGAkAEV4UGydM-g0-1">
          <mxGeometry x="840.5" y="200" width="121.5" height="90" as="geometry" />
        </mxCell>
        <mxCell id="CzsrFGAkAEV4UGydM-g0-12" value="" style="rounded=0;whiteSpace=wrap;html=1;align=left;" vertex="1" parent="CzsrFGAkAEV4UGydM-g0-1">
          <mxGeometry x="90" y="430" width="620" height="180" as="geometry" />
        </mxCell>
        <mxCell id="CzsrFGAkAEV4UGydM-g0-13" value="" style="rounded=0;whiteSpace=wrap;html=1;align=left;" vertex="1" parent="CzsrFGAkAEV4UGydM-g0-1">
          <mxGeometry x="90" y="470" width="220" height="140" as="geometry" />
        </mxCell>
        <mxCell id="CzsrFGAkAEV4UGydM-g0-14" value="运算符选择" style="text;html=1;strokeColor=none;fillColor=none;align=center;verticalAlign=middle;whiteSpace=wrap;rounded=0;" vertex="1" parent="CzsrFGAkAEV4UGydM-g0-1">
          <mxGeometry x="95" y="440" width="70" height="20" as="geometry" />
        </mxCell>
        <mxCell id="CzsrFGAkAEV4UGydM-g0-15" value="(" style="rounded=1;whiteSpace=wrap;html=1;align=center;" vertex="1" parent="CzsrFGAkAEV4UGydM-g0-1">
          <mxGeometry x="95" y="480" width="50" height="20" as="geometry" />
        </mxCell>
        <mxCell id="CzsrFGAkAEV4UGydM-g0-16" value=")" style="rounded=1;whiteSpace=wrap;html=1;align=center;" vertex="1" parent="CzsrFGAkAEV4UGydM-g0-1">
          <mxGeometry x="175" y="480" width="50" height="20" as="geometry" />
        </mxCell>
        <mxCell id="CzsrFGAkAEV4UGydM-g0-17" value="AND" style="rounded=1;whiteSpace=wrap;html=1;align=center;" vertex="1" parent="CzsrFGAkAEV4UGydM-g0-1">
          <mxGeometry x="95" y="530" width="50" height="20" as="geometry" />
        </mxCell>
        <mxCell id="CzsrFGAkAEV4UGydM-g0-18" value="OR" style="rounded=1;whiteSpace=wrap;html=1;align=center;" vertex="1" parent="CzsrFGAkAEV4UGydM-g0-1">
          <mxGeometry x="175" y="530" width="50" height="20" as="geometry" />
        </mxCell>
        <mxCell id="CzsrFGAkAEV4UGydM-g0-19" value="" style="rounded=0;whiteSpace=wrap;html=1;align=left;" vertex="1" parent="CzsrFGAkAEV4UGydM-g0-1">
          <mxGeometry x="310" y="470" width="400" height="140" as="geometry" />
        </mxCell>
        <mxCell id="CzsrFGAkAEV4UGydM-g0-20" value="事件规则表达式" style="text;html=1;strokeColor=none;fillColor=none;align=left;verticalAlign=middle;whiteSpace=wrap;rounded=0;" vertex="1" parent="CzsrFGAkAEV4UGydM-g0-1">
          <mxGeometry x="410" y="470" width="120" height="20" as="geometry" />
        </mxCell>
        <mxCell id="CzsrFGAkAEV4UGydM-g0-21" value="app编码=爱奇艺" style="rounded=0;whiteSpace=wrap;html=1;align=left;" vertex="1" parent="CzsrFGAkAEV4UGydM-g0-1">
          <mxGeometry x="420" y="520" width="90" height="20" as="geometry" />
        </mxCell>
        <mxCell id="CzsrFGAkAEV4UGydM-g0-22" value="OR" style="rounded=1;whiteSpace=wrap;html=1;align=center;" vertex="1" parent="CzsrFGAkAEV4UGydM-g0-1">
          <mxGeometry x="520" y="520" width="50" height="20" as="geometry" />
        </mxCell>
        <mxCell id="CzsrFGAkAEV4UGydM-g0-23" value="app编码=腾讯视频" style="rounded=0;whiteSpace=wrap;html=1;align=left;" vertex="1" parent="CzsrFGAkAEV4UGydM-g0-1">
          <mxGeometry x="575" y="520" width="115" height="20" as="geometry" />
        </mxCell>
        <mxCell id="CzsrFGAkAEV4UGydM-g0-24" value="漫游=省外漫游" style="rounded=1;whiteSpace=wrap;html=1;" vertex="1" parent="CzsrFGAkAEV4UGydM-g0-1">
          <mxGeometry x="415" y="490" width="85" height="20" as="geometry" />
        </mxCell>
        <mxCell id="CzsrFGAkAEV4UGydM-g0-25" value="AND" style="rounded=1;whiteSpace=wrap;html=1;align=center;" vertex="1" parent="CzsrFGAkAEV4UGydM-g0-1">
          <mxGeometry x="515" y="490" width="50" height="20" as="geometry" />
        </mxCell>
        <mxCell id="CzsrFGAkAEV4UGydM-g0-26" value="(" style="rounded=1;whiteSpace=wrap;html=1;align=center;" vertex="1" parent="CzsrFGAkAEV4UGydM-g0-1">
          <mxGeometry x="575" y="490" width="50" height="20" as="geometry" />
        </mxCell>
        <mxCell id="CzsrFGAkAEV4UGydM-g0-27" value=")" style="rounded=1;whiteSpace=wrap;html=1;align=center;" vertex="1" parent="CzsrFGAkAEV4UGydM-g0-1">
          <mxGeometry x="415" y="550" width="50" height="20" as="geometry" />
        </mxCell>
        <mxCell id="CzsrFGAkAEV4UGydM-g0-28" value="" style="rounded=0;whiteSpace=wrap;html=1;align=center;" vertex="1" parent="CzsrFGAkAEV4UGydM-g0-1">
          <mxGeometry x="838.5000000000001" y="120" width="120" height="80" as="geometry" />
        </mxCell>
        <mxCell id="CzsrFGAkAEV4UGydM-g0-29" value="基本信息：&lt;span style=&quot;line-height: 14.4px&quot;&gt;省外漫游看腾讯视频和爱奇艺&lt;/span&gt;&lt;br&gt;场景编码：&lt;span style=&quot;line-height: 14.4px&quot;&gt;SWMYKTXSPH_9902&lt;/span&gt;&lt;br&gt;场景描述：" style="text;html=1;strokeColor=none;fillColor=none;align=left;verticalAlign=middle;whiteSpace=wrap;rounded=0;" vertex="1" parent="CzsrFGAkAEV4UGydM-g0-1">
          <mxGeometry x="841.25" y="120" width="117.25" height="80" as="geometry" />
        </mxCell>
        <mxCell id="CzsrFGAkAEV4UGydM-g0-30" value="您关注哪个主体" style="rounded=0;whiteSpace=wrap;html=1;fontSize=7;fillColor=#eeeeee;strokeColor=#36393d;" vertex="1" parent="CzsrFGAkAEV4UGydM-g0-1">
          <mxGeometry x="90" y="160" width="120" height="20" as="geometry" />
        </mxCell>
        <mxCell id="CzsrFGAkAEV4UGydM-g0-31" value="&lt;font style=&quot;font-size: 12px&quot;&gt;号码 &amp;nbsp; &amp;nbsp; &amp;nbsp; &amp;nbsp; &amp;nbsp; &amp;nbsp; &amp;nbsp; &amp;nbsp; &amp;nbsp; &amp;nbsp; &amp;nbsp; &amp;nbsp; &amp;nbsp;&amp;gt;&lt;/font&gt;" style="rounded=0;whiteSpace=wrap;html=1;fontSize=7;fillColor=#ffff88;strokeColor=#36393d;" vertex="1" parent="CzsrFGAkAEV4UGydM-g0-1">
          <mxGeometry x="90" y="180" width="120" height="20" as="geometry" />
        </mxCell>
        <mxCell id="CzsrFGAkAEV4UGydM-g0-32" value="&lt;span style=&quot;font-size: 12px ; line-height: 14.4px ; white-space: normal&quot;&gt;基站 &amp;nbsp; &amp;nbsp; &amp;nbsp; &amp;nbsp; &amp;nbsp; &amp;nbsp; &amp;nbsp; &amp;nbsp; &amp;nbsp; &amp;nbsp; &amp;nbsp; &amp;nbsp; &amp;nbsp;&amp;gt;&lt;/span&gt;" style="rounded=0;whiteSpace=wrap;html=1;fontSize=7;" vertex="1" parent="CzsrFGAkAEV4UGydM-g0-1">
          <mxGeometry x="90" y="200" width="120" height="20" as="geometry" />
        </mxCell>
        <mxCell id="CzsrFGAkAEV4UGydM-g0-33" value="&lt;span style=&quot;font-size: 12px ; line-height: 14.4px ; white-space: normal&quot;&gt;APP &amp;nbsp; &amp;nbsp; &amp;nbsp; &amp;nbsp; &amp;nbsp; &amp;nbsp; &amp;nbsp; &amp;nbsp; &amp;nbsp; &amp;nbsp; &amp;nbsp; &amp;nbsp; &amp;nbsp;&amp;gt;&lt;/span&gt;" style="rounded=0;whiteSpace=wrap;html=1;fontSize=7;" vertex="1" parent="CzsrFGAkAEV4UGydM-g0-1">
          <mxGeometry x="90" y="220" width="120" height="20" as="geometry" />
        </mxCell>
        <mxCell id="CzsrFGAkAEV4UGydM-g0-34" value="&lt;font style=&quot;font-size: 12px&quot;&gt;您关注哪个业务&lt;/font&gt;" style="rounded=0;whiteSpace=wrap;html=1;fontSize=7;fillColor=#eeeeee;strokeColor=#36393d;" vertex="1" parent="CzsrFGAkAEV4UGydM-g0-1">
          <mxGeometry x="210" y="160" width="120" height="20" as="geometry" />
        </mxCell>
        <mxCell id="CzsrFGAkAEV4UGydM-g0-35" value="&lt;font style=&quot;font-size: 12px&quot;&gt;dpi_app编码 &amp;nbsp; &amp;nbsp; &amp;nbsp; &amp;nbsp; &amp;nbsp; &amp;nbsp; &amp;gt;&lt;/font&gt;" style="rounded=0;whiteSpace=wrap;html=1;fontSize=7;fillColor=#ffff88;strokeColor=#36393d;" vertex="1" parent="CzsrFGAkAEV4UGydM-g0-1">
          <mxGeometry x="210" y="180" width="120" height="20" as="geometry" />
        </mxCell>
        <mxCell id="CzsrFGAkAEV4UGydM-g0-36" value="&lt;font style=&quot;font-size: 12px&quot;&gt;预付费_流量&lt;/font&gt;&lt;span style=&quot;font-size: 12px ; line-height: 14.4px&quot;&gt;&amp;nbsp;&amp;nbsp; &amp;nbsp; &amp;nbsp; &amp;nbsp; &amp;nbsp; &amp;nbsp; &amp;gt;&lt;/span&gt;" style="rounded=0;whiteSpace=wrap;html=1;fontSize=7;" vertex="1" parent="CzsrFGAkAEV4UGydM-g0-1">
          <mxGeometry x="210" y="200" width="120" height="20" as="geometry" />
        </mxCell>
        <mxCell id="CzsrFGAkAEV4UGydM-g0-37" value="&lt;span style=&quot;line-height: 11.52px ; white-space: normal&quot;&gt;&lt;font style=&quot;font-size: 12px&quot;&gt;后付费_流量&lt;/font&gt;&lt;/span&gt;&lt;span style=&quot;font-size: 12px ; line-height: 14.4px&quot;&gt;&amp;nbsp;&amp;nbsp; &amp;nbsp; &amp;nbsp; &amp;nbsp; &amp;nbsp; &amp;nbsp; &amp;gt;&lt;/span&gt;" style="rounded=0;whiteSpace=wrap;html=1;fontSize=7;" vertex="1" parent="CzsrFGAkAEV4UGydM-g0-1">
          <mxGeometry x="210" y="220" width="120" height="20" as="geometry" />
        </mxCell>
        <mxCell id="CzsrFGAkAEV4UGydM-g0-38" value="&lt;font style=&quot;font-size: 12px&quot;&gt;您关注哪个事件&lt;/font&gt;" style="rounded=0;whiteSpace=wrap;html=1;fontSize=7;fillColor=#eeeeee;strokeColor=#36393d;" vertex="1" parent="CzsrFGAkAEV4UGydM-g0-1">
          <mxGeometry x="330" y="160" width="120" height="20" as="geometry" />
        </mxCell>
        <mxCell id="CzsrFGAkAEV4UGydM-g0-39" value="&lt;font style=&quot;font-size: 12px&quot;&gt;dpi_app编码_视频&lt;/font&gt;" style="rounded=0;whiteSpace=wrap;html=1;fontSize=7;" vertex="1" parent="CzsrFGAkAEV4UGydM-g0-1">
          <mxGeometry x="330" y="180" width="120" height="20" as="geometry" />
        </mxCell>
        <mxCell id="CzsrFGAkAEV4UGydM-g0-40" value="&lt;span style=&quot;font-size: 12px ; line-height: 14.4px&quot;&gt;dpi_app编码_游戏&lt;/span&gt;" style="rounded=0;whiteSpace=wrap;html=1;fontSize=7;" vertex="1" parent="CzsrFGAkAEV4UGydM-g0-1">
          <mxGeometry x="330" y="200" width="120" height="20" as="geometry" />
        </mxCell>
        <mxCell id="CzsrFGAkAEV4UGydM-g0-41" value="&lt;span style=&quot;font-size: 12px ; line-height: 14.4px&quot;&gt;dpi_app编码_自定义&lt;/span&gt;" style="rounded=0;whiteSpace=wrap;html=1;fontSize=7;fillColor=#ffff88;strokeColor=#36393d;" vertex="1" parent="CzsrFGAkAEV4UGydM-g0-1">
          <mxGeometry x="330" y="220" width="120" height="20" as="geometry" />
        </mxCell>
        <mxCell id="CzsrFGAkAEV4UGydM-g0-42" style="edgeStyle=orthogonalEdgeStyle;rounded=0;orthogonalLoop=1;jettySize=auto;html=1;" edge="1" parent="CzsrFGAkAEV4UGydM-g0-1" source="CzsrFGAkAEV4UGydM-g0-43" target="CzsrFGAkAEV4UGydM-g0-45">
          <mxGeometry relative="1" as="geometry" />
        </mxCell>
        <mxCell id="CzsrFGAkAEV4UGydM-g0-43" value="场景基本信息" style="rounded=0;whiteSpace=wrap;html=1;align=center;" vertex="1" parent="CzsrFGAkAEV4UGydM-g0-1">
          <mxGeometry x="10" y="10" width="120" height="60" as="geometry" />
        </mxCell>
        <mxCell id="CzsrFGAkAEV4UGydM-g0-44" style="edgeStyle=orthogonalEdgeStyle;rounded=0;orthogonalLoop=1;jettySize=auto;html=1;" edge="1" parent="CzsrFGAkAEV4UGydM-g0-1" source="CzsrFGAkAEV4UGydM-g0-45" target="CzsrFGAkAEV4UGydM-g0-47">
          <mxGeometry relative="1" as="geometry">
            <mxPoint x="370" y="40" as="targetPoint" />
          </mxGeometry>
        </mxCell>
        <mxCell id="CzsrFGAkAEV4UGydM-g0-45" value="&lt;span style=&quot;line-height: 14.4px&quot;&gt;配置事件规则&lt;/span&gt;" style="rounded=0;whiteSpace=wrap;html=1;align=center;fillColor=#fff2cc;strokeColor=#d6b656;" vertex="1" parent="CzsrFGAkAEV4UGydM-g0-1">
          <mxGeometry x="220" y="10" width="120" height="60" as="geometry" />
        </mxCell>
        <mxCell id="CzsrFGAkAEV4UGydM-g0-46" style="edgeStyle=orthogonalEdgeStyle;rounded=0;orthogonalLoop=1;jettySize=auto;html=1;" edge="1" parent="CzsrFGAkAEV4UGydM-g0-1" source="CzsrFGAkAEV4UGydM-g0-47" target="CzsrFGAkAEV4UGydM-g0-49">
          <mxGeometry relative="1" as="geometry">
            <mxPoint x="610" y="40" as="targetPoint" />
          </mxGeometry>
        </mxCell>
        <mxCell id="CzsrFGAkAEV4UGydM-g0-47" value="配置标签" style="rounded=0;whiteSpace=wrap;html=1;align=center;" vertex="1" parent="CzsrFGAkAEV4UGydM-g0-1">
          <mxGeometry x="450" y="10" width="120" height="60" as="geometry" />
        </mxCell>
        <mxCell id="CzsrFGAkAEV4UGydM-g0-48" style="edgeStyle=orthogonalEdgeStyle;rounded=0;orthogonalLoop=1;jettySize=auto;html=1;" edge="1" parent="CzsrFGAkAEV4UGydM-g0-1" source="CzsrFGAkAEV4UGydM-g0-49" target="CzsrFGAkAEV4UGydM-g0-50">
          <mxGeometry relative="1" as="geometry" />
        </mxCell>
        <mxCell id="CzsrFGAkAEV4UGydM-g0-49" value="配置&lt;span style=&quot;line-height: 14.4px ; text-align: left&quot;&gt;消息格式&lt;/span&gt;" style="rounded=0;whiteSpace=wrap;html=1;align=center;direction=west;" vertex="1" parent="CzsrFGAkAEV4UGydM-g0-1">
          <mxGeometry x="690" y="10" width="120" height="60" as="geometry" />
        </mxCell>
        <mxCell id="CzsrFGAkAEV4UGydM-g0-50" value="完成" style="ellipse;whiteSpace=wrap;html=1;aspect=fixed;align=center;" vertex="1" parent="CzsrFGAkAEV4UGydM-g0-1">
          <mxGeometry x="910" y="10" width="60" height="60" as="geometry" />
        </mxCell>
        <mxCell id="CzsrFGAkAEV4UGydM-g0-51" value="事件规则表达式" style="text;html=1;strokeColor=none;fillColor=none;align=center;verticalAlign=middle;whiteSpace=wrap;rounded=0;" vertex="1" parent="CzsrFGAkAEV4UGydM-g0-1">
          <mxGeometry x="315" y="440" width="100" height="20" as="geometry" />
        </mxCell>
        <mxCell id="CzsrFGAkAEV4UGydM-g0-52" value="" style="rounded=0;whiteSpace=wrap;html=1;align=left;" vertex="1" parent="CzsrFGAkAEV4UGydM-g0-1">
          <mxGeometry x="90" y="260" width="620" height="160" as="geometry" />
        </mxCell>
        <mxCell id="CzsrFGAkAEV4UGydM-g0-53" value="事件规则" style="text;html=1;strokeColor=none;fillColor=none;align=center;verticalAlign=middle;whiteSpace=wrap;rounded=0;fontStyle=1" vertex="1" parent="CzsrFGAkAEV4UGydM-g0-1">
          <mxGeometry x="95" y="270" width="70" height="20" as="geometry" />
        </mxCell>
        <mxCell id="CzsrFGAkAEV4UGydM-g0-56" value="&lt;span style=&quot;font-weight: normal&quot;&gt;自定义流量&lt;/span&gt;" style="text;html=1;strokeColor=none;fillColor=none;align=left;verticalAlign=middle;whiteSpace=wrap;rounded=0;fontStyle=1" vertex="1" parent="CzsrFGAkAEV4UGydM-g0-1">
          <mxGeometry x="95" y="310" width="90" height="20" as="geometry" />
        </mxCell>
        <mxCell id="CzsrFGAkAEV4UGydM-g0-60" value="&amp;gt;" style="rounded=0;whiteSpace=wrap;html=1;" vertex="1" parent="CzsrFGAkAEV4UGydM-g0-1">
          <mxGeometry x="195" y="310" width="50" height="20" as="geometry" />
        </mxCell>
        <mxCell id="CzsrFGAkAEV4UGydM-g0-62" value="上月月均流量" style="rounded=0;whiteSpace=wrap;html=1;" vertex="1" parent="CzsrFGAkAEV4UGydM-g0-1">
          <mxGeometry x="255" y="310" width="85" height="20" as="geometry" />
        </mxCell>
        <mxCell id="CzsrFGAkAEV4UGydM-g0-63" value="&lt;span style=&quot;font-weight: normal&quot;&gt;MB&lt;/span&gt;" style="text;html=1;strokeColor=none;fillColor=none;align=left;verticalAlign=middle;whiteSpace=wrap;rounded=0;fontStyle=1" vertex="1" parent="CzsrFGAkAEV4UGydM-g0-1">
          <mxGeometry x="360" y="310" width="35" height="20" as="geometry" />
        </mxCell>
        <mxCell id="CzsrFGAkAEV4UGydM-g0-64" value="插入标签" style="text;html=1;align=center;verticalAlign=middle;whiteSpace=wrap;rounded=0;fontColor=#3333FF;" vertex="1" parent="CzsrFGAkAEV4UGydM-g0-1">
          <mxGeometry x="400" y="310" width="50" height="20" as="geometry" />
        </mxCell>
        <mxCell id="CzsrFGAkAEV4UGydM-g0-65" value="" style="rounded=0;whiteSpace=wrap;html=1;fontSize=7;fillColor=#eeeeee;strokeColor=#36393d;" vertex="1" parent="CzsrFGAkAEV4UGydM-g0-1">
          <mxGeometry x="450" y="160" width="120" height="20" as="geometry" />
        </mxCell>
        <mxCell id="CzsrFGAkAEV4UGydM-g0-66" value="&lt;font style=&quot;font-size: 12px&quot;&gt;dpi_app编码_视频&lt;/font&gt;" style="rounded=0;whiteSpace=wrap;html=1;fontSize=7;" vertex="1" parent="CzsrFGAkAEV4UGydM-g0-1">
          <mxGeometry x="450" y="180" width="120" height="20" as="geometry" />
        </mxCell>
        <mxCell id="CzsrFGAkAEV4UGydM-g0-67" value="&lt;span style=&quot;font-size: 12px ; line-height: 14.4px&quot;&gt;dpi_app编码_游戏&lt;/span&gt;" style="rounded=0;whiteSpace=wrap;html=1;fontSize=7;" vertex="1" parent="CzsrFGAkAEV4UGydM-g0-1">
          <mxGeometry x="450" y="200" width="120" height="20" as="geometry" />
        </mxCell>
        <mxCell id="CzsrFGAkAEV4UGydM-g0-68" value="&lt;span style=&quot;font-size: 12px ; line-height: 14.4px&quot;&gt;dpi_app编码_自定义&lt;/span&gt;" style="rounded=0;whiteSpace=wrap;html=1;fontSize=7;fillColor=#ffff88;strokeColor=#36393d;" vertex="1" parent="CzsrFGAkAEV4UGydM-g0-1">
          <mxGeometry x="450" y="220" width="120" height="20" as="geometry" />
        </mxCell>
        <mxCell id="CzsrFGAkAEV4UGydM-g0-69" value="" style="endArrow=none;html=1;exitX=0;exitY=1;exitDx=0;exitDy=0;entryX=0.75;entryY=1;entryDx=0;entryDy=0;strokeWidth=9;strokeColor=#B5B5B5;" edge="1" parent="CzsrFGAkAEV4UGydM-g0-1">
          <mxGeometry width="50" height="50" relative="1" as="geometry">
            <mxPoint x="90" y="245" as="sourcePoint" />
            <mxPoint x="450" y="245" as="targetPoint" />
          </mxGeometry>
        </mxCell>
        <mxCell id="uQxvgQEwzavMmPquv9gu-0" value="" style="shape=image;verticalLabelPosition=bottom;labelBackgroundColor=#ffffff;verticalAlign=top;aspect=fixed;imageAspect=0;image=data:image/png,iVBORw0KGgoAAAANSUhEUgAAAnQAAAIACAYAAAAL2vEYAAAgAElEQVR4nO3d7W8cV3r3+ft/amCFgbGAIiSCNmZeGDOjaF+QxCKrmQWCNARhjRtxQ7MJIC3fRBFciewJQnphr2BhJlIW1R4BGXMydmJSG2fcEkVHHBdDFdVSW2X3hC6SsrrNEVvXvvCemuJhPXf1w2l+P8ABZvqh6lSrpf75Og/13wTD83xP5M0fiHSfjronKNN//x9G3QOUqNfryWeffSYvXrwYdVcAILP/NuoOHDn/938X+cXfj7oXKBOBbqJ8/vnnsrGxMepuAEAuBLphW/tXkb/730R+MS/S/XrUvUEZCHQTodfryZMnT8RxHNne3h51dwAgFwLdKKz967eVujd/IPJ/Tn0bCGjGtm+s/0U++eQTmsFtdXVVPvvsM3nw4IH4vj/qfyEAIDcC3Sg93xt1DwD8/5gzB8BkBDoAAADDEegAAAAMR6ADAAAwHIEOAADAcAQ6AAAAwxHoAAAADEegAwAAMByBDgAAwHAEOgAAAMMR6AAAAAxHoAMAADAcgQ4AAMBwBDoAAADDHQp0n3zyCY1Go9FoNBrNkBYb6AAAMNknn3wiDx8+pNEmvhHoAAATi0BHOyqNQAcAmFgEOtpRaQQ6AMDEItDRjkoj0AEAJhaBjnZUGoEOADCxCHS0o9IIdACAiUWgox2VRqADAEwsAh3tqDQCHQBgYhHoaEelEegAABOLQEc7Km2gga7X68kXX3whn332mdy7d0/u3r0r//Ef/yGbm5vy9OnTvo8PAEASAh3tqLSBBLoXL17I559/LisrK/Lpp59Kq9WS3d1defbsmWxtbcl//ud/yp07d+Szzz6Tbrdb/G9qDteuXZNr164lvmZxcTHxNdeuXZNXX31VVldXy+4eAGAACHST2W7duiXnzp0Tx3FG3pdxaaUHuhcvXsiDBw/k7t278vnnn8uLFy8iX9fpdGRtbU3u3bsn29vbhc6lNJtNuXHjRuJr0gJdt9uVq1evyuLiYuw5Lly4IK+++mpqMOzXtWvXEkPj6uqqXL16NTIMLy4uxj6nNJtNuXz58qHPvdvtyrVr1/r+8wCAcXGUA93q6qqcPXtWlpaWcj338OFDcRxHLl68KKurq4WOr9rS0pKcPXs29jhFgxmB7nArPdA9fvxY7t69K1988UXqa58/fy6fffaZfPrpp/Ls2bNC5xP5XdhSYUxV0rI0FX62t7fl0qVLkUFKPbe4uBicK61Kl1bti9PtdmV1dVUuXLgQGczU+W/cuHHoubRQGj5GXKC7evXqgfNm/SwHHXIBoAgCXfFAd+7cObl48WKh46umB7qLFy9KpVKRSqUiZ86ckXfffVfOnTsnV69eDR4/deqULC0tBX1Qj+dpSf2e1FZqoNvd3ZV79+7Jw4cPM7/n2bNnsrq6Kq7r5j5f2OrqauJwaFyFToUYPaBcuHBBms1m8Hz4vYuLi3Lp0qXESlaz2Tz0vjz0kCpyMFgmvUd9BuGq4tWrV+W9996LDGPha4kKdWmyDGcDwCgQ6IoFuocPvw1jZ86ckaWlJVlaWpJTp05lDlRvvfVWcAw90Kmw5ThOEOhUpS18zqRro0J3uJUa6JrNpqyuruauthV9n+7GjRvyq1/96kCQSWsq/EQNVcaFm6yhJ6nqF2VxcTFzZVEPniKHq2nhawsHrnCFbnV19VA4bTabsrCwQKADYLyjGuguXrwoly9fljNnzgQB69atW6lB7NatW4eOE1ftSgqFUec6d+6cvPbaaweOpwczAl3xVmqgW1tbE8dxcr9ve3tb7t27J+12O/d7s0oLHdeuXYushl26dCkyHF6+fFkuX76cGuqiAlNeaghWBbcocUPBzWZTLl26JB999FFiyI3qY5ZgrMIigQ7AODqKgU4NVV6+fFnOnj0rt27dkjNnzgRVs4cPD4ex1dVVOXPmzKFAlzQHrswh13/8x388NOSaJYDGtTNnziTO/5vEVlqg63a78umnn8qjR49y/4XrdDqyuroqjx8/zv1eNdQang8XJSl0qPD20UcfyeXLl2V9fT3zcGlamFFVt7R5bUmyBLrw5xCu3OlBVSS9QpcXgQ7AuDqKgU6Fs3fffTcIXLdu3SoU6MIt67Br+BhJQ64PHyZX6FQQDQezLHP7ot53FFppga6fUNbPexW18nN9fT3zcKsKPv/+7/8uly9flkePHsnly5djhzD10JK2olQNzV66dClyEUKea0sLdOE+qX7qix/ihnQvXbokjx8/lkuXLh0axs2CQAdgXB3FQKdC0a1bt2IraPrQZjjQ6YsRVEDTw5keCtX7BhXo3nrrraB6p96v+h0+BoEu4i9BHi9evJD79+/LxsZG7r9wajFFlpWxcZK28kijQtD29vahQKfPQwu/Ji3QqeFOVfErWqUrGujCAS7cz6QKnf4ZZEGgAzCujmKgU4FmeXk5MdDp4Uyv0OkBrZ9Ad/ny5WAOXVqFTw9tDx8eHKqNmpvHXLqS59C5riuffvqp7O3t5Xqf53ly79492d3dzX1ORQ90WRYYqBAStTWHCin9BLpr164Fz6cNbRZZEBGuMv7yl7+Mvb7V1dXYRRE6PdCp4eikBSUEOgDj6igGOtXCgSvPfDQVkKICXZ4hVxUSw6te9VZkcUP4Wm7dupVpLt9RaKUGuq+++kpWVlbkyZMnmd/z/PlzWVtbk/X19dhNiLOICnRpiyD056MqdHpAyhro9EUKWfeI06n35a3Qqfetrq4eWLiQtiAiLtCFF1vojxHoAIwrAl100HnrrbdS92tLqtCpsBaupoVfr6qEati3rI2FVaVO77fqT1xwPAqt1ED34sUL2djYyLVR8KNHj+TevXvi+37u84X1U6FTyhxyDVfnFDUEm2c4U1X2Pvroo0yhKRxk1XtVsAv3I2+FjkAHwEQEusOBTgWvq1evJm4REjWE+vDh7ypk4W1RooZJHz5MXuWatodd1Dn16iFDsL9rpd8p4vnz5/LrX/9aPv30U/n6669jX/fixQt5/PixNBqNvu8UIVJehU4NL169elUWFhYKVeiS5rxFBb04+kbCUStWdeq61d5+alGG6lPaXnYEOgCThEB3ONCFFw0k7TOnBzpVBVPvDR9ff04dI2rbk7iqXNSiB/V41rl26vVHsVJXeqATEfnmm2/EcRy5c+eOPHz48NCcuq+++kru378vKysrcv/+ffnkk0/6DnUqvGxvb8t7770Xe1cEPaDpd4rQN+rNW6GLusNDWNahVxWawkEp7U4Rqp8LCwuysLAQ9FEPl1krdB999FFQ5WMOHQATEejORq4K1efFRW1XEg50KlSFXxd1fH31bNw+dhcvXjwQ6qKOn/fajnobSKBT/uu//kvW1tbkzp07cvfuXbl7967cuXNH7t27J48ePZLnz5/L8+fPxXGcvkNdeB+28LyxOFnn0MXdbUE9pq8eTQpzStr9YNW1JN2qLO7a1Dy51dXV4HpUuI3bzkT/DFSAUwE27W4XBDoA44pAd3ivOb0ip4Yz9TClQlbcEGaRjYWjjp9UbQsfJxw8o6qDR3WoVbWBBrqsygh1as5cUgALKzvQqRCWddFD0r1asyyAUMEt6V6v+jXGLYoIL4xICpNJfSHQARhHBLqzB+7FGje8qkKdGqp866235MyZM/LJJ5/IuXPnCoelpM2B0247Fu6XHviibhGmAmJaOJzUNhaBTqS/UBde0anoASxpaFWJCnQfffRRULFaXV09dJzFxcUgBGW9Z2v4fGpYNVxZy3vdUe9LqsIl+dWvfiU3btxIfI1+S7C8GxEDwLAQ6KJv/RX3+jNnzshf/uVfymuvvRYZlrK2N954I1gwcfHixdjNisMtvGDij//4j+VP//RPD4RBfduUtHCadfh2UtrYBDqRcip1AAAoRznQ0Y5WG6tAJ/K7UPfgwYO+9qUDAIBARzsqbewCHQAAZSHQ0Y5KI9ABACYWgY52VBqBDgAwsQh0tKPSCHQAgIlFoKMdlUagAwBMLAId7ag0Ah0AYGIR6GhHpRHoAAATi0BHOyqNQAcAmFgEOtpRaQQ6AMDEItDRjkoj0AEAJhaBjnZUWmKgo9FoNBqNRqOZ0SIDHQAAAMxCoAMAADAcgQ4AAMBwBDoAAADDEegAAAAMR6ADAAAwHIEOAADAcIcC3dbWFo1Go9FoNBrNoBYZ6PzdfRqNRqPRaDSaIY1AR6PRaDQajWZ4I9DRaDQajUajGd4IdDQajUaj0WiGNwIdjUaj0Wg0muGNQEej0Wg0Go1meCPQ0Wg0Go1Goxne+gp0u1/vyzd7L6TX048CAACArJrNpnzwwQdy48YN+elPfyo3btyQX/zil/JrZ3Owga7zDSkOAACgXysrK/LTn/40tn3873cHE+gIcwAAAP1rNpuJYU61tEpd7kC38/S3o7heAACAifPBBx9kCnS/+MUvyw10u0+fjeJ6AQAAJo6aM5fWbty4UW6g297eHsX1AgAATJwsYU61UgPdV199NYrrBQAAmDgEOgAAAMMR6AAAAAxHoAMAADAcgQ4AAMBwBDoAAADDEeiOENd1ZWZmRlzX7es4jUZDKpWKNBqNyOdt25apqam+zwMAALKZ2EC3vr4u8/Pzfbfl5eVC57csSyqVSqFmWVYpx9EDV1Sgy3L8cH+63a7UarUDj4WlPQ8AAMo3sYGuXq/LsWPH5PTp0zI9PV2oHT9+XObm5gqd37KsQqFGf1+R4/i+L7Ozs5kCXV6qOhfV1DmnpqZin/d9v/C5AQBAtIkOdCdPnpSVlRXZ2dkp1KrV6kACXZ7n+g10qmKWVnnLc9xarSbdbvfQ8+pctm3nOi4AAOjPRAe6U6dOycbGRuFjnD9/fiwCXa1Wk1qtFlS34oY1VeBaWFiIrNCp6lmRCp06p6qyNRqNQ8HOdV2pVqvi+z7hDgCAITqygW53d1fef/99efToUewxygh0SUOUUXPe4ip0tm0Hj6uh08XFRZmbmwtClQpsjUYjMtBZllU40HmeJ7Va7dD8O9Un27alUqkEAa7b7cqTJ0+kVqvFLp4AAADlOLKBbmNjQ06dOiX1ej32GONSobMs68Awqm3bQcUuXAWLeq2iHgsHOhXCsrSkSpsKivfv36cqBwDACBDoDAl0IgcXJKjQFK7WqQUPUYFOvXdqakpmZmZiQ1eeOXuu68rU1NSBoVc11Bo3zw4AAJSPQDeEQJe0MKFSqRwIP0mBTp/HFn5NeJFDVKCzLEvm5uZkampKrl+/HgzNJvU7Tvh6koJh0l51AACgPEcm0Pm+L7dv3w7azZs35cSJE3LlypUDj7dareAYZQe6qPCjhk+zBLqoYVOR31XK1PH1QKcWKzQajaCKp+bkqfeq12YZtlVBLm3IVp2jyIpaAACQ3ZEJdLdv3840V2x+fj44xrgFOtu2g21D9PeE93nTw5haVBG1D506pqr4hc+nVth2u90g+BUJZur6uXsEAACDcWQCnekVunAlTf/fMzMzwYIEvbrW7XaDx/RAp14X7lf4/Hr1Lu16o+bNqZW+AABgcI5MoNOZNIdubm7uUFVODWeq6ptI+rYleqCzLCtyPl7UPnjhoBYV0qKqf+qxpaWlQp8hAADIhkA3xEBXtEKnVqfqw5UquOmBLG5j4XDo0ufdRfVbvUev0kWdN67axxYmAAAMHoFuBNuW5Hlf2hYnUcOZWe7lqgfJuPNF3ZUiLqCGq3lRoQ8AAAzGkQ10w7hTRNZNe5PusdrvvVzDooZFw/Lcrivq1l9p5wcAAINxZANdFuNeoQvTtxCJCltRgU6f35dUVctzZ4m8d5sAAADFTXSgO3nypKysrMjOzk6hVq1WCwc6AACAYZnoQHfs2DE5ffq0TE9PF2rHjx8n0AEAgLE3sYFufX1d5ufn+27Ly8sD7ScAAEC/JjbQAQAAHBUEOgAAAMMR6AAAAAxHoAMAADAcgQ4AAMBwBDoAAADDEegAAAAMR6ADAAAwHIEOAADAcAQ6AAAAwxHoAAAADEegAwAAMByBDgAAwHAEOgAAAMMR6AAAAAxHoAMAADAcgQ4AAMBwExvo1tfXZX5+vu+2vLw8kP7tdF/I9Du7cu7m04EcP8rHD5/LH765LR8/fN7XcezVPfnOZV/s1b3I56980JETVv/nAQAA2UxsoKvX63Ls2DE5ffq0TE9PF2rHjx+Xubm5vvty7uZT+c5lX6bf2ZWd7gsRSQ9F+nuLNP3YUYEuy/HDoTMtiI4iqAIAcNRNdKA7efKkrKysyM7OTqFWrVYLBToV1lS78kHnwPMtvycvv7kdG6BefnNbWn5PRL4NXHnDkTp+lkDX77Xp/bZX9+SEFX1t4esCAADlmehAd+rUKdnY2Ch8jPPnz/dVoVPVqnCgU4+Fq3X6c+EA12+gU8dMq7zlOW5U3+OuFwAADB6BLsEgAt25m0/l5Te35bX3vj4UqNRz4SrWuZtPgwCoHo8b1lSB67X3vo6s0KnqWZEKnTqn6p+9unco2H388Ll8b2FHWn6PcAcAwBAR6BKUHejs1b0gEKnwde7m0+B1UWFLVeiufNAJApwaOv375a788PrTA/PyTljbwXn0QHfu5tPCge7XX+zL9Du7h+bfqT5d+aBzYHh5p/tC1rxv35M2TxAAAPSHQJegaKCLW2igV7TCc+ni5pep0BQeRr3yQSeo2IUDY9Rr9XOFA50KYVlaUqVNBcV/dn5LVQ4AgBEg0CXot0L38cPncsLajg04KvglzWULV8HCCxLUMcPVOrXgISrQqfeesLblD99M7lPWuXXq+sJBNWmOIAAAGIwjE+h835fbt2+ntlarFRyj30CnD0Pqj6uAlTQEGg5Y+jy28GvCwTAq0J27+VR+eP3bStrFf3oWDM0mnS9OeKFFWlhluBUAgME7MoHu9u3bUqlUUtv8/HxwjH4CXXg49bvzO3Lu5tOgoqUCU5bQEw5YUcOmIocrgXqgU4sV7NW9oIqn5uSp96rXZhm2VUEubchWnaPIiloAAJDdkQl0w67QXfmgI99b2JHvLewEVbVwqMkShkQOLzxQ24aEhzRVaNIXXIRD2pUPOpH70KljRu17p1bY7nRfHAqjeSQt+gAAAP07MoGuiKKBTgWqdz/5Jlgk0PJ78r2FHfn44fNgPlvUcKV+BwkVsMKVNP1//+Gbv1uQoFfXdrovgsf0QKdep2+rEl5NGzc0qwuHP/1xhl0BABgsAl2CooEubhWqeu47l335++Xugb3lROTAViaKmvumV+XUcKaqvomkb1uiB7q4fe/08+tBLSqkRVX/1GPvfvJN7s8QAABkR6BLUDTQvfbe1/Lxw+eH9qFTQW+n+0J+/cV+MBwbHtKMCk9xiyfC+9qFXx+3sXA4dMWtwNUDXVSVLuq8cdU+tjABAGDwCHQJBnGniDD9nq5xQ5Zx89bihjOz3Ms1HC6Tzhd1V4q46wpX86JCHwAAGAwCXYJBBzpV/Urb/qOfe7nq59OHRfP0Nyzq1l9p5wcAAIMx0YHu5MmTsrKyIjs7O4VatVodSKCL2iA4TtZAp6+ajQpbUYEuvKdc0h0ros6RtzH8CgDAYEx0oDt27JicPn1apqenC7Xjx4+XGujUfDjuogAAAMo0sYFufX1d5ufn+27Ly8sD7ScAAEC/JjbQAQAAHBUEOgAAAMMR6AAAAAxHoAMAADAcgQ4AAMBwBDoAAADDEegAAAAMR6ADAAAwHIEOAADAcAQ6AAAAwxHoAAAADEegAwAAMByBDgAAwHAEOgAAAMMR6AAAAAxHoAMAADAcgQ4AAMBwBDqMxJUPOjL9zq7sdF/Evubczady7ubTXMe1V/fk5Te3peX3Mr/n44fP5Q/f3JaPHz4v3Ffl3M2ncuWDTuZzAwBQBgLdkK2vr8v8/HzfbXl5edSX0pdJDHRXPujICWtb3v3kG/n44XM5YW3Ldy77qY0ACADoF4FuyOr1uhw7dkxOnz4t09PThdrx48dlbm6ur36sfv5c/td3d+V/vPJtqPif3tiWHy91ZS860wQu/tOzzNUq3ZUPOpkCTj/BJ0+gU6+1V/cOBLos/TxhHQyA6j326l7s+Vp+LzgfAABlItANWb1el5MnT8rKyors7OwUatVqta9A96vmc/n9vzlcPXrpr335P249k6io1vntC6l/uie//zfbhQNdWNEKnQpF/QRDdUzVh392flu4QrfTfSHT7+ymhrlw3wl0AICyEeiGrF6vy6lTp2RjY6PwMc6fP1840P12X+TP/uGpvPTXvlz6+TPZ7b6QFyKy/ODbUPP7f7MtK62DwUavWJUV6PKEryzCw5xZ3nfu5tPIc+qBKynQ6cO1Lb8n0+/sRlYICXQAgEEh0A3ZqANd86ueTP14R/7n/2tXvnp2MKD8eKkr37nsy/zt7oHHBxXoypxDpypl524+lZff3JYfXn8aW3ETORiuylwUoebRRR2LQAcAGBQC3ZCNOtCpKtb//v98nes5kd+FpnGs0NmrezL9zq68+8k3QWj64fWnsf0Mz7ULBzp7dS/z0K0+V08PbHoQJNABAAaFQDdkow50KrBELTD49Mlz+YO/3Y4NUWUHurIqdHogU0EraQuRdz/5Rl577+tD7++H3l8CHQBgWAh0QzbOgU4FjqKBLqq6FTf8WFagU31W1xMOdC2/J99b2EkNairQ/bPz28ShWnX9UZ+dqjiGn4sLdElVPgAAiiDQDZke6Hzfl9u3b6e2VqsVHGNcK3RJga6M1al6+Inqj75tSZZtTNRQc1z41M+nf3bhxRhZAh0VOgBA2Qh0Q6YHutu3b0ulUklt8/PzwTHKmENXe+/wPLn/d/O38nuvD2cOXXgRQ57nwtQCiHBYiwpw524+jexzOIAWCZ4vv7ktt/5jL9hMWA97BDoAwLAQ6IZs1BW6IqtclbICnQqV4fATNY/tyged2OpaVJgTiQ50cZU89f+jzv3ae18fqtZFVeiufNCRKx90Yp8j0AEAhoFAN2SjnkMXtQ/dfk/kXzfi96FTygh0au+3i//0LPXWWCesbbn4T88ODGWqPsQNj8YNsar3RT2nB7qd7gv5++VubDCMGq4m0AEARolAN2SjDnQi8XeK+M5lXy787OtDd4pI2mIk631IVVUubhg1baXpuZtP5YS1LW9//M2B18VtDhw19y4ukMadW1+UQaADAIwrAt2QjUOgE/n2Xq7T72S7l2sZgS5NWVuH5LmXa9q59bs+EOgAAOOKQDdk4xLoRqGfla5ZQ1qZgS6u/1GBLBzo8mxOnGfzZAAA4hDohuwoB7phKDvQhbckSbrtWVL1DgCAQSPQDVm9XpeTJ0/KysqK7OzsFGrVapVAF6NIoAMAwHQEuiGr1+ty7NgxOX36tExPTxdqx48fJ9ABAIAAgW7I1tfXZX5+vu+2vLw86ksBAABjgkAHAABgOAIdAACA4Qh0AAAAhiPQAQAAGI5ABwAAYDgCHQAAgOEIdAAAAIYj0AEAABiOQAcAAGA4Ah0AAIDhCHQAAACGI9ABAAAYjkAHAABgOAIdAACA4Qh0AAAAhiPQAQAAGI5Ah7HW7XalVqtJrVaTbreb672NRkOmpqbEdd3I513XlWq1Kr7vl9HVRJZliWVZsc83Gg2ZnZ0dSl8AAJOHQIfA+vq6zM/P992Wl5dL61Oj0ZBKpSKNRiP3ey3LSgyCKtBtbm7K7OzsoXOoMFmpVHI3/bxRgS4c4gh0AIB+EOgQqNfrcuzYMTl9+rRMT08XasePH5e5ublC5y8aoKJCm+u6MjU1lfhaPUTpoUv1x7btXNdh23amQBcOnAQ6AEA/CHQI1Ot1OXnypKysrMjOzk6hVq1W+w50eQJUVHgSia7O6aEqLUSVXaGrVCrB+X3fl9nZ2eBaCXQAgH4Q6BCo1+ty6tQp2djYKHyM8+fPjzzQua4rMzMz0mg0xLIs6Xa7wbHn5uYiK3fhpoZei1bowhqNRnDeWq0WDO2qoeQi1UcAAHQEOgTSAt3u7q68//778ujRo9hjjDrQqWNYliW+78vc3FwQomZmZg4skLBtO3F+njrW9evXc1fqVCVOVQVVc11XarWaVKvVXNVCAACSEOgQSAt0GxsbcurUKanX67HHKCPQ9TO8aVnWoWCkglvaMGhcf+ICZtoq2fD7w8O9UatvCXQAgH4Q6BAYl0BXtELX7XZlYWFBGo2G2LZ9YAWpXolTiyaiAmBUf/KETdUfNfTruu6BQJe24hUAgLwIdAiYHujCnjx5ElTmoqpwKsipLUuizhkV6MKvi6rQqTlzUYs02IcOADAoBDoE9EDn+77cvn07aDdv3pQTJ07IlStXDjzearWCY4xLoBP5XRVOf16v2IWreXH9KVKhCwsHujzH6mdBBgDg6CDQIaAHutu3b2cKHfPz88ExxiXQqdAWF+ai9pvTX6u2FolbNJHnThNU6AAAg0SgQ2BcKnRl7/mmqCHYqGClwls4VPm+L9VqNZgDl6dPejgj0AEABolAh8AkzKGL24pEDb8m3UJM3+w3XIGLCmTh58Nz56LCGYEOADBIBDoEJiHQhY+jApT+mqihVMuyDoW98PvC+8glbUysNg0m0AEAholAh8CkBDp9n7eo6px+azD9Paov6j0qkKkwGDdvr1arydLSEoEOADBUBDoExuVOEf3ModOrc0pagNNfowestEAWllShU4Ewz/UlDRMDACBCoEPIJNzL1bbtQ0FN5HDIijqXWgTx61//+kB1TiQ90OlDsfo15AmEAADkRaBDoF6vy8mTJ2VlZUV2dnYKtWq1WjjQAQCAYgh0CNTrdTl27JicPn1apqenC7Xjx48T6AAAGDICHQLr6+syPz/fd1teXh71pQAAcKQQ6AAAAAxHoAMAADAcgQ4AAMBwBDoAAADDEegAAAAMR6ADAAAwHIEOAADAcAQ6AAAAwxHoAAAADEegAwAAMByBDgAAwHAEOgAAAMMR6AAAAAxHoAMAADAcgQ4AAMBwBDoAAADDEegAAAAMR6DDxHJdV6ampqTRaGm4SF8AACAASURBVASPWZYltVpNut1uX8cREfF9X6rVqrium7tvjUZDpqamCr0XAAAdgQ6Bu3fvyl/8xV/03X72s58VOr9t21KpVAo127Yjjzc7Oyu+74vItwFsdnY28rVp/QofJ8yyrNjn0o6ZN1gCABCHQIdAvV6Xl156Sc6fP184zL388ssyNzdXar+63a7UarVcAUi9x7Ks4LFGo5E7fKnjXL9+XWq1WqGQqY6R571FQiIA4Ogi0CFQr9fl1KlTsrGxUfgY58+fH4tA57quzMzMBEOaeUJVuIJXJATG9T9rZbCMcwIAjhYCHQKTFOj0Ic1wSNLDXtp5w1W+fvpPhQ4AMCgEOgTSAt2XX34pf/VXfyV3796NPcY4BDo1V069Xp87lzXQNRoNqVQqQaArWuWjQgcAGDQCHQJpgW5jY0NOnTol9Xo99hjjEOjU4gr1en1la5ZAFw5vVOgAAOOOQIfAJAQ6VY37sz/7M6nVauL7vszNzR0Ib2obkqggpc6hhmzn5uZKC3RU6AAAg0KgQ2ASAp1lWWJZVuK2IGkVOlXV830/OF64H0WHXKnQAQAGhUCHgB7oNjY2DmxJcv78eXnppZfkT/7kTw48/i//8i/BMUYZ6MJBrJ9AFxYOdP32nwodAGBQCHQImB7owsYp0CUdO+8mxwAARCHQITAJQ67KoAKdZVmZhkzVbcLCW5+o+X3qOTWXLyowWpZ16FZjAADEIdAhcJQCXdyiCP3+qlGBLqlip4e28D1b9efU68P3g1XH516vAIA8CHQIHKVA10+FLmug0zcmjgp0Yfpcu6R7yAIAEEagQ2BSNhYWGY9ApzYmVgFO3+A4S78YegUAZEGgQ2CUt/5SmwH308JBaVzm0OlUyMtyDQAAZEWgQ2Bc7+VaxDhU6AAAGBYCHQL1el1eeuklOX/+/IFtSfK0l19+eSwCHQAARwmBDoG7d+8WDnLh9rOf/WzUlwIAwJFCoAMAADAcgQ4AAMBwBDoAAADDEegAAAAMR6ADAAAwHIEOAADAcAQ6AAAAwxHoAAAADEegAwAAMByBDgAAwHAEOgAAAMMR6AAAAAxHoAMAADAcgQ4AAMBwBDoAAADDEegAAAAMR6ADAAAwHIEOY8myLKnVatLtdkVExHVdqVar4vv+0Pviuq5MTU1Jo9E48Ljv+1KtVsV13dzHbDQaMjU1Vei9AADoCHQIrK+vy/z8fN9teXm5r340Gg2ZnZ09FN4sy4p8PKzb7UqtVpNKpVKo2bZ96Ji2bceeN0ufoti2fSCwAgDQDwIdAvV6XY4dOyanT5+W6enpQu348eMyNzdXuA+qGpY3iKlQpQJdVDBLEvc+9fj169dzB0V1rCIhs0hIBAAcXQQ6BOr1upw8eVJWVlZkZ2enUKtWq4UDne/7Mjs7K5VKJXJ4c3Z29tDjuiyBLupYce+LqxbmkTdklnFOAMDRQqBDoF6vy6lTp2RjY6PwMc6fP18o0KnQs7CwEIS6PE2FszIDnXrMsqzc1xN1bVToAACDQqBDIC3Q7e7uyvvvvy+PHj2KPUbRQGdZlliWFVuJK1Khsywrc4Cam5s7FOgajYZUKpUg0OUJZlHBkAodAGBQCHQIpAW6jY0NOXXqlNTr9dhjFA10SnjYdRAVurhhXf194fBGhQ4AMO4IdAiMU6Ab1Bw6y7JkcXExdchVrUKdm5srLdBRoQMADAqBDoFxCnR5K3RqT7ek8JQ0rBt+X7fbDV6n3hN+TdEhVyp0AIBBIdAhoAc63/fl9u3bQbt586acOHFCrly5cuDxVqsVHGNQFbqs4gJdeKPiPKtcw4GuKCp0AIBBI9AhoAe627dvZ6omzc/PB8foN9DFyboRb9xcuPB7hx3o4liWlXu/PAAAohDoEBiHCl2cIoFObVKsB7J+Al3WlbP6Io2ood64/qnzFK1SAgCOHgIdAqOcQ1f0DhF6iFIBam5uLvL+qyLR91HNE+iSKnZ6aAufKypI6veDVcfnXq8AgDwIdAiMw6IInW3bMjU1JXNzczIzMyNTU1OJw5RJd3yIW7SQ9L5+Ap2+MXHa/MColbbMpQMAZEGgQ2CcAp0+HBkeclUhL6p6Vfa9XPsJdCpEqgCnnovrm+u6MjMzc+C6GHoFAGRBoENglHeKUFQI0ufL6XPowluB9LtFSFLlrt85dHHXl/X8AABkQaBDYJT3clVBKa76lbQowrbtIAT6vj82FToAAIaFQIdAvV6XkydPysrKiuzs7BRq1Wp1IKtcAQBAPAIdAvV6XY4dOyanT5+W6enpQu348eMEOgAAhoxAh8D6+rrMz8/33ZaXl0d9KQAAHCkEOgAAAMMR6AAAAAxHoAMAADAcgQ4AAMBwBDoAAADDEegAAAAMR6ADAAAwHIEOAADAcAQ6AAAAwxHoAAAADEegAwAAMByBDgAAwHAEugm1u7srnufJ5uamOI4ja2trNNqB5jiObG5uiud5sru7O+qvLACgDwS6CdLr9eTJkyfy+PFjabVa4nmefPHFF9Jut2m0yPbFF1+I53nSarXk8ePH0m63pdfrjfqrDADIiUA3IXzfF8dx5PPPP5cvv/xy5EGBZl778ssvxfM8cRxHfN8f9VcaAJADgW4CeJ4nrutKp9MZeSigmd1ERDqdjriuK57njfibDQDIikBnuFarJa1WK/j/ow4ENLNb0ncLADC+CHQGU3OfwkYdCGhmN52aiwkAGG8EOkP5vi+u6x56vIwf9Tt37sj3v/99+clPfjLygJHWWq2WXLhwIbavd+7ckbNnz8qdO3dG3lcTWhTXdZlTBwBjjkBnoF6vJ47jSKfTOfRcGT/qP/nJT+T73/9+rhD04MED+cEPfiCVSiV3+8EPfiAPHjwYaaArM/ipz+LChQvSarUOfK55PpeoP4MPP/xQKpWKfPjhh0MLdJ1ORxzHYfUrAIwxAp2B2u127DBYkTBUJITpoUOFmLxB48MPPzwQ6F5//fXI88Qdt4xAp87585//vHCw1MPc66+/fui5PEH5ww8/jH1t0nODCHQi3w7vJz0PABgtAp2BHMeRvb29yOf6/UEvUp0LB5kyAl04DKUdt59ApypmUeGraHv99dcPVebKDnTqmsvsd1qg29vbE8dxBvWVBgD0iUBnmN3dXWk2m7HP9/NjHlddyhLWwu8Nv1/Nx9PfqwLL22+/nSnQ2badaUhXH76NCnSqIld2IIq71rIDXZbnyw50IiLNZpM7SgDAmCLQGcbzPNna2op9vp8f87jAkSfQ/fznP5cLFy4Er/3JT34iFy5ckLfffvtAFU1Vsn7+858PrUKnKnKDmn+mrjWqOld2oFOfS9kLV5JsbW2x4hUAxhSBzjCbm5uRiyGUoj/kSQEhT6D78MMPg2HUtbW1IGyFg1XUa0cx5FpmS+tH2YEu6rMadKDrdDqyublZ8jcaAFAGAp1hHMeR/f392OeL/pC//vrrsatN8wY6dTx9pWa4WqcqWXkWRTx48EDOnz9/IOSMS6BLG24dRKBLqwiWHej29/eZRwcAY4pAZ5i1tbXE54v8iKutMFQ4yLq9Rjhw6IFOBZyoalt42DNPhe7BgwcyNzd3IMREBTp17n5W7+YdyswSHMvYtkQ/Xj9bvuQNdFm+fwCA0SDQGabsQBcOWXHVniIVOj0kxlWp8g656kPDRSp0gwhCWQNd2RU6Ah0AQIRAZ5yyh1zV4oTwMGi/gU6FrAsXLhwIX+HwqEJbkTl0H374YdDXIoFuEAsKjkKgY8gVAMYXgc4wZS6KuHPnjpw/f14ePHiQOB8rb6ALBw39f1+4cEH+7d/+LZhvNqpFEWVv+3EU5tCxKAIAxheBzjCD2rakrED39ttvH7gPrApctm0fWNAwim1L9OeSFoLkbVmqfqavcmXbEgAYXwQ6wwxqY+GyAl3cXLyooHb+/PnIjYWHdesv9d6yQl3SXSLKDnSj2IeOjYUBYHwR6Aw0iFt/lTnkGvXchQsXIkNTv0OuacEm7k4R+ibHZWw4nDaPzuQ7RXDrLwAYbwQ6A7Xb7dihr34D3dtvv11oa42y7uWa1lRVLdyHpKqYClm2bQdbmUSFP7Uqt99qXdIwaFnbloziXq6e5yU+DwAYLQKdgXq9njiOE7k4ot9AV3SCfdZAFxXIyh421AOdCnJZApAKdkXDUtLiiLIqdIOqzsUFtk6nI47jSK/XG/RXGwBQEIHOUL7vi+u6hx4fVDAytQ1ia48sYWxQQVUde1D3o43iuq74vj/orzQAoA8EOoN5nietVuvAY6MOUDSzm67VarGyFQAMQKAznNpcVxl1IKCZ3ZK+WwCA8UWgmwCe54nrutLpdEYeCGhmN5Fv58y5rktlDgAMQqCbEL7vi+M48vnnn8uXX3458mBAM699+eWX4nmeOI7DnDkAMAyBboL0ej158uSJPH78OJj79MUXX4w8KNDGt33xxRfBXMzHjx9Lu91mNSsAGIhAN6F2d3fF8zzZ3NwUx3FkbW2NRjvQHMeRzc1N8TyPO0AAgOEIdAAAAIYj0AEAABiOQAcAAGA4Ah0AAIDhCHQAAACGI9ABAAAYjkAHAABgOALdhGIfOlpaYx86AJgcBLoJ0uv1pN1ui+M40mw2ZWtrSzqdjuzv74+6axhD+/v70ul0ZGtrS5rNpjiOw50iAMBQBLoJoe7l6nme7O3tjbo7MNDe3h73cgUAQxHoJoDneeK6rnQ6nVF3BROg0+mI67ried6ouwIAyIhAZ7hWqyWtVmvU3cAE4rsFAOYg0BnM8zx+cDFQrVaLSh0AGIBAZyjf98V13VF3IxPbtsWyrELvq9Vq0u12Dzzu+77Mzs5Ko9Eo1B/XdaVarTJPLCPXdfmsAGDMEegM1Ov1xHGc0ubMua4rU1NTUqlUcrXZ2dlMP/S2bUulUskdwLIEuiLhrNFoZO57Eap/et/V55C1TU1NHQrtjUaj0GfZj06nI47jsPoVAMYYgc5A7Xa71GEw13VlZmbmUHjodrtSq9XEtu1D78kTitRxosJZkiyBrtFoSLVazRVybNseWKBTfYuqSNq2HRnSojQajdjXJj03KJ7nSbvdHtr5AAD5EOgM5DhOqVuTlBXoVJjJW+lT4UedT/3/PEOu+msty8rdj3CLuuYsLMuKDa5lBTr9cxqGvb09cRxnaOcDAORDoDPM7u6uNJvNUo9ZdqDLMxxoWdaBYBIOPYOYQ6eudWZmpnBoSzr21NRUbL/KCnRZnh+EZrPJHSUAYEwR6AzjeZ5sbW2VesxxCnThIUsV6K5fv5672hdFr2zp5+5XXAANP19WoFOfU9mhNMnW1hYrXgFgTBHoDLO5uVn6BsJlLYooI9CJ/G6O28LCQmRAUv3NE2bihinzhKwsx0/qU5mBTqT8QJqm0+nI5ubm0M4HAMiOQGcYx3FKvzfrOFXowuIqXmqlZ9Ywo16/sLAgs7Ozh/qtrrOf1aNpw63qesoMdGkVwbLt7+8zjw4AxhSBzjBra2ulH3NcFkXo4gKL2v4jbaWqCnJR24fEvVctpshb+Yr7DKP63c+2JfrxBrn9SpRBfP8AAP0j0BlmnANdllCji6vQxYUx9Z65uTmp1WqRFTFVLRvmcGTWQFd2hY5ABwAQIdAZZ5yHXIsEuiiNRiNYDKEHuvCwbpE7UPi+L9VqNbKPtm0XXmRwFAIdQ64AML4IdIYZxKIIVQ3rd1FEGXdgCA+zRg25hkNMWohSr/U8Lwimvu/L0tJS5F5zS0tLuRdbKEdhDh2LIgBgfBHoDDOIbUviKj15K3T9Bgz9mPrxorbqiBuyDb826jrCtwwLn7fICtq4vulMX+XKtiUAML4IdIYZxMbCcXc3yBPosmzbkZce6KICY1xlLBxS0/qmH7dopTHpLhHqPCbvQ8fGwgAwvgh0Birz1l9JFak8ga6s+XNh4aCVFHD0CqN+TWm3yiqr0pVlCNjUO0Vw6y8AGG8EOgO12+3Shr4sy4qtRmUNdIO6t6gKdGrOW9L8tKTrUP0tuj1IHmn76pWxbcko7uXqeZ602+2hnQ8AkA+BzkC9Xk8cx+l7cYQKBnFBSQ90+g3v1ePh+WhlCgegtKFF1ddhLhKIkrQ4oqwK3bCrc51ORxzHkV6vN5TzAQDyI9AZSk3gx/hR1cBBzG9Txy56R4siXNcd6l53AID8CHQG8zxPWq3WqLuBCdZqtVjZCgAGINAZrtVqEeowEHy3AMAcBLoJ4HmeuK5b+obDOJo6nY64rktlDgAMQqCbEL7vi+M44nleaVua4GjZ29sTz/PEcRzmzAGAYQh0E6TX60m73RbHcaTZbMrW1pZ0Op3S7/2KybC/vy+dTke2trak2WyK4zjSbrdZzQoABiLQTajd3V3xPE82NzfFcRxZW1uj0Q40x3Fkc3NTPM/jDhAAYDgCHQAAgOEIdAAAAIYj0AEAABiOQAcAAGA4Ah0AAIDhCHQAAACGI9ABAAAYjkA3odiHjmZSY088AOgPgW6CcKcImIq7VgBAfwh0E4J7uWKScF9ZAMiHQDcBPM8T13Wl0+mMuitAqTqdjriuK57njborADDWCHSGa7Va0mq1Rt0NYKD4ngNAMgKdwTzP40duRLrdrtRqNWk0GqPuypHRarWo1AFADAKdoXzfF9d1R92NgWo0GmJZVinHcl1XpqamDgQw27Zldna20BwtFehqtZp0u91S+oh0rusypw4AIhDoDNTr9cRxnFLnzFmWJZVKJXMLByPf92V2djbX+8MtKlSpYy4sLEi32xXbtlOPkxSuyg50It8GTv2ziKPOX8Znk5dlWTI1NXXoPwBU/4v8mYevybbtvvqXR6fTEcdxWP0KABoCnYHa7XbpQ0+WZWWqhqmglWeoMS5QpL2nzOpX0UCXN/TEBUzXdWVmZubQZ6AqfVGhqNFo9B3oLMuKPUaj0cj055L0Zx71uQ6a53nSbreHdj4AMAGBzkCO45S+NUk/Fbosx80bAMseyuwn0OUNo3HnH3agS+t7GYFOZDB/Xkn29vbEcZyhnAsATEGgM8zu7q40m83Sj1t2hU4FFRUALcvKFKDCFSXf96VWq+UONFEhKWug0z+HpNCT9TNT5x9moFPHTepfWYFuFFW6ZrPJHSUAIIRAZxjP82Rra6v045YZ6NQPvAoL4WOruXBxASZc6bFtu3B1TK8aZQl06trCfVOhR4Wr8HNRgVAdQ/8shx3o4s6nH7+MqmyW8Fi2ra0tVrwCQAiBzjCbm5sD2UC4rCFXdZzwj7seFlUASAprRebqhekBLkugi6pYhR/LUr2LWygx7EURtm2nDoOWVaHLer4ydTod2dzcHMq5AMAEBDrDOI4zkHuz9luhU0EmKiDEHVu9J+q5qKpenoUIetUoLdDFVZnCoSdLRS9uEcIwK3RZK2ZlBroyFnDksb+/zzw6AAgh0BlmbW1t1F04JG0Va1JYjApFScOyYWlzt8IBLC3QxR0rHHr01+jBKSlIjSLQpX1+ZQe6MhaP5DGOfxcAYFQIdIYp80es3/3j0vZ+KyI8NNlvoAvvk5YW6OIWbISDSlxFTn0GSf0Z10CX5fgEOgAYfwQ6wwxqyDVK3nlsRfZsCx9bBaLr169nCiRZVleqwHX//v3YQLe5uXkoqOmvCQ/L6gs30kKh6uu4Bbo8Q9lpW88MO9Ax5AoABxHoDDOoRRFRIaBIoMsaQKKObdu22LadOZBkCXSqT+HVquHzzc7OyuLiYmwY0Sf7xy2kuH//fuK8taIbFA9yDl3W/ePGcQ4diyIA4CACnWEGtW1JVIUlbUg2agFBP4FOKTPQJb026754+srWpFWsWebzhQ1q25K0sJb1MxYZz1WubFsCAAcR6AwziI2Fw5sAj7JCp/dn1IEuqo9x9y9NO1ZcwBpUoCvrLhEi6d+DUexDx8bCAHAQgc5AZd/6Kzz0GJ4vddQDXdbrSQs0STexH/SdIpLOmbWiNm53iuDWXwBwGIHOQO12u7Thpqi7MeSZLK/PJ+tnUYSSZ5Wmfgz9lmNF240bN4I+FF0NrD6buL3p0q61jHu5Rr0/7x040qp5w76Xq+d50m63h3IuADAFgc5AvV5PHMfpe3FE2RPZB12hiwpWgwoSZX026lrShivVtep37Mgyxy3t3PpdOhYWFhKPGxWK414/7Opcp9MRx3Gk1+sN5XwAYAoCnaHUZrhAEhWCBxF8k4aSB0XtBwgAOIhAZzDP86TVao26G8BQtFotVrYCQAwCneFarRahDhOP7zkAJCPQTQDP88R13YFsOAyMUqfTEdd1qcwBQAoC3YTwfV8cxxHP80rd0gQYhb29PfE8TxzHYc4cAGRAoJsgvV5P2u22OI4jzWZTtra2pNPpDO3er0BR+/v70ul0ZGtrS5rNpjiOI+12m9WsAJARgW5C7e7uiud5srm5KY7jyNraGo02ts1xHNnc3BTP87gDBAAUQKADAAAwHIEOAADAcAQ6AAAAwxHoAAAADEegAwAAMByBDgAAwHAEOgAAAMMR6AAAAAxHoAMAADAcgQ4AAMBwBDoAAADDEehgBMuyxLbtUXejsEajIbOzs+L7fuTzvu/L7OysNBqNIfcMADAJCHQIrK+vy/z8fN9teXm51H51u11ZXFyUSqWSKdTZti2VSuVAs207CE36c+FmWdaBY1mWlfj6uKaHt6hAFw5xgwp0ruvK1NTUoetSj2e9nqjP3bKsxJAKABgeAh0C9Xpdjh07JqdPn5bp6elC7fjx4zI3N1fo/FFBLE9TYci2banVatLtdqXb7UqtVjsQ6OJCU1QV0LKsQ2EoTVR4i3tsampKXNcdSKBToS0qjKnn0s4X/vyiWJYVfNYAgNEh0CFQr9fl5MmTsrKyIjs7O4VatVrtK9CFw4EKOWlVOT0MFQl0ccGlzAqd/ng4DJUd6NT1xIXRsgJd1uMAAAaLQIdAvV6XU6dOycbGRuFjnD9/vpRApwKOqmAlKSPQxQWTIhU6vW/ValWuX78us7OzQcjKMvxbqVQyXX+UcPUvSlmBToQqHQCMAwIdAmmBbnd3V95//3159OhR7DH6CXRK1rATVQkTSZ9Dp0KMXn2LmyemWp4KnQo4aqh1cXFRZmdnxfM8mZubk7m5uQN9L7tClxZEy5hDp6SFRwDA4BHoEEgLdBsbG3Lq1Cmp1+uxx+g30KmhST0Y6VRoiwpARefQRUkKRqr6lhRkVF+WlpaCABc1lFxmoMtyrDIrdKzQBYDRI9AhMOpAp8JcODyoypgKC1Fz0XRpgS5LZS18fhXoslbpVN/C5w4vikhb8dqvLBWzMgNdltcAAAaLQIfAqANdnPDwYJZtMtICnRr+zDJfTg904eejKnSu60q1Wj3Ux2HuQ5d2LtXPsgNdP3MNAQD9IdAhoAc63/fl9u3bQbt586acOHFCrly5cuDxVqsVHKOsQKcPvYYXPGQZjk0KdEtLS4dCSlyg6qdCp19P+PGsW7QUWWyQNdDNzMykznsj0AGAGQh0COiB7vbt25lCx/z8fHCMooFODzhZwoE+sV+FmCyLIvQtUmzbPhSC0sJMljl0yrhV6PTA3M+iCAIdAIwegQ6BcanQ5QkbUXPFsiyKiPrfemhR71UBME8A0vs17ECXNocuKsBGYQ4dAJiBQIfAuMyhy1JhEokfNsy6ylWdp1arRZ4vXIHTK3r68+G5c1H9GmagyzI/Luv+eqxyBQAzEOgQmJRAFw4rSYFOPRe3/Um4HyrQeZ6XuFLWtu2RB7qy7hIRPhb70AHAeCPQITAJgU4PIEmBzrIsmZqakpmZmcjFB+F7u6pA5/t+bEVPVekajcZIA13a+SzLyvT5inCnCAAwBYEOgXG5U0Q/c+j0alFcoNNDjb7fnR4Wo4Zc46RV6PLedaLIYoO4IKY+26zBMa2ax71cAWA8EOgQGPW9XJV+KnS2bR+6V6oKeOHHosKZer5Wq8lf//VfHwhDaYFO37RYD2FZr6lMUUOh169fl4WFhcT36YEzKVBSnQOA8UCgQ6Ber8vJkydlZWVFdnZ2CrVqtVr6xsIoLukWaf3KM3QLABgsAh0C9Xpdjh07JqdPn5bp6elC7fjx4wQ6AACGjECHwPr6uszPz/fdlpeXR30pAAAcKQQ6AAAAwxHoAAAADEegAwAAMByBDgAAwHAEOgAAAMMR6AAAAAxHoAMAADAcgQ4AAMBwBDoAAADDEegAAAAMR6ADAAAwHIEOAADAcAS6CbW7uyue58nm5qY4jiNra2s0Go028OY4jmxubornebK7uzvqfwqBI4NAN0F6vZ60221xHEeazaZsbW1Jp9OR/f39UXcNwBGxv78vnU5Htra2pNlsiuM40m63pdfrjbprwEQj0E0I3/fFcRzxPE/29vZG3R0AEBGRvb098TxPHMcR3/dH3R1gYhHoJoDneeK6rnQ6nVF3BQAidTodcV1XPM8bdVeAiUSgM1yr1ZJWqzXqbgBAJvybBQwGgc5gnufxDyMA47RaLSp1QMkIdIbyfV9c1x11N2I1Gg2ZnZ1NnTOT9XVxLMuSSqUilUol03G63a7UajWp1WrS7XYLnTNJ0vVYliWNRqP0c8Jsvu/L7Oxs5Hcj6Tml379Do+K6rnF9BsYZgc5AvV5PHMcpZc6cbdtBIFKtVqvJ/fv3ZWpq6tBzqk1NTR0KlI1GI3i8zEDnum5sX+KCmQpulmVFPh71Psuy+g56cdfT7XZlcXFRKpVK0KdGoxH7+Yabfg15qT/jcChQn0OW88d91oMOx2ksyzrwPUz6niS1qO/yoDUajeBz00ObZVli23ZwTdVqNfHvh/6di/o7nfbnqT47dd5h6HQ64jgOq1+BkhDoDNRut0sbrrBt+8A/7OrHxHVdmZmZifyhi3suHIjSKlXhUKNeFxUy4o6h91tXRqCLCwhJ500LqL7vS7VazRwgwp9VEbZtRwaWvGEsLuzGfc6DZllW5qqU+nMsWh198eKF2LYtx44dS7zOzz//XP7u7/5Ozpw5E3xXTp48/U2pCQAADP9JREFUKa+++qr88pe/lKdPnwavffLkidi2LZZlBYFuaWkp+CyfPHkiIunfc5HoQJf2nqjX9Ps5FeF5nrTb7aGdD5hkBDoDOY5T2tYk4X/Yw0Etb6DLUh1R50kLdKpKEH5ODxT6D5L+/8sKdPp1pv1YRgW6LMNmcfoJdEk/0GUFOpGDldlhyHu+foPKxx9/LL/3e78XWy3d39+Xmzdvyne+853E739cAI37fiRVUWdnZ+X69euRjy8sLBQKdCLlVKnz2NvbE8dxhnIuYNIR6Ayzu7srzWaztOOF/2FXFQOR9ICm/6DqPwT9VOiiAp3+oxzut/pBDA8XDTrQRf2YRjXbtkcW6JJ+nMsMdMOs0hU5Vz+Bc319Xb773e/KwsKCTE9PHzpvuHo3NTUlt27dOnB3hN/+9rfy+PFjuXnzprz66qvi+37wfUgbZo8abo0KYmUMuSqjqNI1m03uKAGUgEBnGM/zZGtrq7TjqR8I3/elVqsF/5DnqdCpClr4tWUHOtVX9f/DP2xRYWOcK3RpP+jhPhcNdGkhssxAJ3Lwz2aQkr6XcYoGugcPHsgrr7wiP/7xj+U3v/mNzM7OHvqzePz4sXz/+9+XV155RR48eJDr+CIHq3D6n5U+R1A9pvchy5Cr/rnFfY9HMYS+tbXFilegBAQ6w2xubpa6gbD6h13N30kKM4r+XNbJ/SqsFA104flnqt/379+P7KcJgS4qbOk/2EUDXdpcvrIDXZGgVUSW+WFR78kbNn/zm9/I2bNn5Y033pC9vb3gz0z/s/jFL34hlUpFfvrTn2Y+tqKOOTMzE1TD9Qp5VKDTFy4UCXRJinzG/eh0OrK5uTmUcwGTjEBnGMdxSr03azjQ6SsG8y6KCBtEhS6q32mLIvKueMyzKCI8RJ103aMIdGkBrOxA18+wclZJ1aOsw4xpw+MiItvb2/Lnf/7n8qMf/UiePXt24Pr0c7/xxhvyB3/wB/LZZ5/luhb1H0FxiyJs25br168fqJqr69c/46JDrnHDrsPeBmV/f595dEAJCHSGWVtbK/V4cUOXeefQ6coMdGq7j6wVwCRlVuhUCA7/wI7LkGva+8rYtiQsah5j2fTvRxZ5+/Xs2TP50Y9+JGfPnpXf/OY3h46jf6ZRw6Ii0f8xoL4X+hBw+PvR7XZlbm4ueC785xj3H1LqO7ewsBCEQb2feSp0w17kIlL+v2vAUUSgM8wgA13cKlc9pET9OGSZ6B1esTroCl2cPJWpLEOu+nDeOFXosgS6sit04xbowuEk6xYgeap5cRW6pEAXFretTLg/SVsBhfur+hT1Z0+gAyYfgc4wgxpy1Tc4Df8ARAUQffhHf43+46NvQTLoQBf3o5QUZPQVflkCnf45EOjGJ9Dp1ziIQJdlDp3qh/pepFW/4/7jKe67oX/noubZjXOgY8gVKAeBzjCDWhTR7XYP/GAmrYpTP0jhDVDLDHRpVQ29P1GGFeiizjsuge4ozaGLot8ho5/J/nFDro8fP5ZXXnlFXnnlFVlfX0/sd/h7EXctcf/BoBZORH2+UX+H1Hy8IkPow55Dx6IIoBwEOsMMatuSpAqdyOEhVf2HJU+gCzO9Qhd13nGYQ5e2stPUVa5ZN74N/0eHkrZVR5bAmrQP3cmTJ+Uf/uEf5KuvvpIXL14Ex37w4IH88Ic/PPT3IVzpC58jahVr1gCmVoLfv38/sZqZ9D0e9ipXti0BykGgM8wgNhaO+q/2qB/opKGYSQ10Zdz6K0+FTlc00KVtEGvqPnRZhgPV56v3t5+91+ICnci3Q4bvvPOOHDt2LLEidvbsWdnZ2RGRb2/9ZVnWge9T3GeoAl3c5xv+zqk5d2pfybyBbhT70LGxMFAOAp2BBnXrrzB9Dp3a/039uGSt0IVXqEb9uBQNAmlBZ1QVuqjrGeWdIuLeW2agG2YISJtHFxfmROL/7LLM/0sKdCLfVuparZb87d/+rXz3u98NvvN/9Ed/JJcvX5bV1dXIua/6NAP9O6K+kwsLC7Hn16cz2Lad+jkl/b0f5p0iuPUXUB4CnYHa7XZpQxRx/7CHJ4frwSi8h1actOpa1ATzJFHDlEk/Onk2O9Zbnh+zqPOkhd08+gl0ScOgZW5bMuxJ9EnV3qTvZVw/R3G7K/3cUZ+xPmwc9x9T6vNoNBrBn3eWP98sW/cMmud50m63h3IuYNIR6AzU6/XEcZxSFkfEBbr79+8HVbkoURO9TTeoH/Y8gU4Pu/1+vnE/0GVV6EYxRBd1zrTtPxQ1zJlnGH0QwkEu/B804Y2+o8JpONSFvytq7zl1rCIVumEH206nI47jSK/XG8r5gElHoDOU2v4ASDLI4J03FJYpaWh13EUtiAhLC1aDWIWqzjnIbWeizjkp/zEIjAMCncE8z5NWqzXqbgBALq1Wi5WtQMkIdIZrtVqEOgDG4N8sYDAIdBPA8zxxXbfUDYcBoEydTkdc16UyBwwIgW5C+L4vjuOI53mlbWkCAP3a29sTz/PEcRzmzAEDRKCbIL1eT9rttjiOI81mU7a2tqTT6ZR671cASLK/vy+dTke2trak2WyK4zjSbrdZzQoMGIFuQu3u7ornebK5uSmO48ja2hqNRqMNvDmOI5ubm+J5HneAAIaIQAcAAGA4Ah0AAIDhCHQAAACGI9ABAAAYjkAHAABgOAIdAACA4Qh0AAAAhiPQTSj2oaOlNfYLA4DJQaCbINwpAnmwoz8ATA4C3YTgXq7oF/fcBABzEegmgOd54rqudDqdUXcFE6DT6YjruuJ53qi7AgDIiEBnuFarJa1Wa9TdwATiuwUA5iDQGczzPH5wU9i2LbOzs5FDiK7rytzcnHS73RH0zAytVotKHQAYgEBnKN/3xXXd0o9r27bUarWxDjndbldqtZpUKpUDzbKsyNfpjyuNRkMqlYrYtj2MbhvLdV3m1AHAmCPQGajX64njOAOZM6cC3f3792VqaupQaAo3vfLlum7qe+KaClW+78vs7Gzq6xuNRuq1NBoNmZqaSgy+lmXFVvCKUtegB+O4IBrXooK1CqFZrr8snU5HHMdh9SsAjDECnYHa7XZpw2AqfKiAkLVC12g0IgPdzMxMrsqhCjlpVTLbtnNV0/TqXNagGFfty0qdJ+r9aRXDsKQ/hyxBtWye50m73R7a+QAA+RDoDOQ4Tmlbk5Qd6Pqt0OlUCIqrovm+L9Vq9VC4SQs9g6p0WZYV+/mVFejyHKcse3t74jjO0M4HAMiHQGeY3d1daTabpR1v1BW6PH3TWZYllUpFqtXqgdfEVefUa1TwDIfIRqPR99xBddy4/pYV6FR/h12lazab3FECAMYUgc4wnufJ1tZWaccbRKBbXFzMXanTQ5AaYi0yl8627QNhJ1w1ixsSVY/3s0Ai7bMrYw5dmf3Na2trixWvADCmCHSG2dzcLHUxxDArdLZtZ65ORc1lCweitOpVOBipcKfeH/dedd4iw7BZ5gKWWaET+TaoDnPYtdPpyObm5tDOBwDIjkBnGMdxSr03a1KgU0OaeVa5qkCXZz5dliqTOl648tZoNBIDjV7FSrueuOvKIm24VaT8QDfsLWb29/eZRwcAY4pAZ5i1tbVSjzeoCl1UtS6qQmdZVuYVrnpYWlpakqmpqcSKW1R4SrrmrKtudVnmDw4i0JW95Uqasr9/AIByEOgMY1Kg67dClyVcqeHVqL5Uq9VMK2PLqHTlCXRZwiKBDgCQB4HOMIMecs06Lysq0EU9FpZ1Dp16bd6tT/S5clHPiRwOX8MKdHn3whu3QMeQKwCMLwKdYQa5KCJPBSku0NVqNfE8L1dw0Rc/xA3DJvVPVd2WlpaC6mBc2NH7XlagS5tDl+U1yjjOoWNRBACMLwKdYQa5bUnavm9hUYFOVeDijhOu0IVDW1xVUN8bTg90SZv46udVQ7tR89j0YFRkT7os24ikVTD1Po/bKle2LQGA8UWgM0zZGwuH5Qkc+mvDYSsc6JKGTtX7o4KJet/i4mJkoOt2u/LkyROp1WqRG+yG5/CFQ1bUMKUenopWvsq6S0SWPoxiHzo2FgaA8UWgM1CZt/5S8gYOPdCFFyGEA51atBAVPFSVLhzo1HujgmXckKs6hzpGXBiyLCsy/OmvL1r5SppHl/dWY+N2pwhu/QUA441AZ6B2u1360FfU3RXy7NcWFcqyhhf13qiqk75aNumernEVq7i7Q+jPp92BIs+15Dm/Li1cj+Jerp7nSbvdHtr5AAD5EOgM1Ov1xHGc0hZH5A1gIgcrdPoWIVmOFx6KHfY9SQcpauHD/fv3pVarJQ5l63e3SBr6HnZ1rtPpiOM40uv1hnI+AEB+BDpDqSCF8ZM0zFzWsYtWEItwXXeoe90BAPIj0BnM8zxptVqj7gYmWKvVYmUrABiAQGe4VqtFqMNA8N0CAHMQ6CaA53nium6pGw7j6Op0OuK6LpU5ADBIWYHu/wOGPK1SCOFhXgAAAABJRU5ErkJggg==;" vertex="1" parent="CzsrFGAkAEV4UGydM-g0-1">
          <mxGeometry x="255" y="332.95" width="360.72" height="294.09" as="geometry" />
        </mxCell>
        <mxCell id="-8lB32Ucf1wJ8YC4oSXE-0" value="事件描述：适配类事件" style="text;html=1;strokeColor=none;fillColor=none;align=left;verticalAlign=middle;whiteSpace=wrap;rounded=0;fontStyle=1" vertex="1" parent="CzsrFGAkAEV4UGydM-g0-1">
          <mxGeometry x="95" y="350" width="140" height="20" as="geometry" />
        </mxCell>
        <mxCell id="CzsrFGAkAEV4UGydM-g0-61" value="=&lt;br&gt;!=&lt;br&gt;&amp;gt;&lt;br&gt;&amp;lt;&lt;br&gt;in&lt;br&gt;not in" style="rounded=0;whiteSpace=wrap;html=1;align=center;" vertex="1" parent="CzsrFGAkAEV4UGydM-g0-1">
          <mxGeometry x="195" y="330" width="50" height="90" as="geometry" />
        </mxCell>
      </root>
    </mxGraphModel>
  </diagram>
  <diagram id="9apRQ3SH8OHXtiepVnem" name="标签配置">
    <mxGraphModel dx="964" dy="593" grid="1" gridSize="10" guides="1" tooltips="1" connect="1" arrows="1" fold="1" page="1" pageScale="1" pageWidth="827" pageHeight="1169" math="0" shadow="0">
      <root>
        <mxCell id="E-beLJ-5tgw3SVWUHFMe-0" />
        <mxCell id="E-beLJ-5tgw3SVWUHFMe-1" parent="E-beLJ-5tgw3SVWUHFMe-0" />
        <mxCell id="1C8qiqRe2vAx1xtcDdjs-5" value="" style="rounded=0;whiteSpace=wrap;html=1;align=left;" vertex="1" parent="E-beLJ-5tgw3SVWUHFMe-1">
          <mxGeometry x="10" y="340" width="472.59" height="130" as="geometry" />
        </mxCell>
        <mxCell id="E-beLJ-5tgw3SVWUHFMe-2" value="" style="endArrow=none;html=1;" edge="1" parent="E-beLJ-5tgw3SVWUHFMe-1">
          <mxGeometry width="50" height="50" relative="1" as="geometry">
            <mxPoint y="80" as="sourcePoint" />
            <mxPoint x="980" y="80" as="targetPoint" />
          </mxGeometry>
        </mxCell>
        <mxCell id="E-beLJ-5tgw3SVWUHFMe-3" value="" style="rounded=0;whiteSpace=wrap;html=1;align=center;" vertex="1" parent="E-beLJ-5tgw3SVWUHFMe-1">
          <mxGeometry x="827" y="100" width="143" height="430" as="geometry" />
        </mxCell>
        <mxCell id="E-beLJ-5tgw3SVWUHFMe-4" value="摘要" style="text;html=1;strokeColor=none;fillColor=none;align=center;verticalAlign=middle;whiteSpace=wrap;rounded=0;" vertex="1" parent="E-beLJ-5tgw3SVWUHFMe-1">
          <mxGeometry x="827" y="100" width="40" height="20" as="geometry" />
        </mxCell>
        <mxCell id="E-beLJ-5tgw3SVWUHFMe-34" value="" style="rounded=0;whiteSpace=wrap;html=1;" vertex="1" parent="E-beLJ-5tgw3SVWUHFMe-1">
          <mxGeometry x="838.5" y="350" width="122.25" height="60" as="geometry" />
        </mxCell>
        <mxCell id="E-beLJ-5tgw3SVWUHFMe-35" value="&lt;span style=&quot;line-height: 14.4px&quot;&gt;配置离线标签：性别=女&lt;/span&gt;&lt;br style=&quot;line-height: 14.4px&quot;&gt;&lt;span style=&quot;line-height: 14.4px&quot;&gt;目标主体已导入&lt;/span&gt;" style="text;html=1;strokeColor=none;fillColor=none;align=left;verticalAlign=middle;whiteSpace=wrap;rounded=0;" vertex="1" parent="E-beLJ-5tgw3SVWUHFMe-1">
          <mxGeometry x="841.25" y="350" width="121.5" height="60" as="geometry" />
        </mxCell>
        <mxCell id="E-beLJ-5tgw3SVWUHFMe-36" value="" style="rounded=0;whiteSpace=wrap;html=1;align=left;" vertex="1" parent="E-beLJ-5tgw3SVWUHFMe-1">
          <mxGeometry x="10" y="490" width="472.59" height="110" as="geometry" />
        </mxCell>
        <mxCell id="E-beLJ-5tgw3SVWUHFMe-37" value="导入目标主体文件" style="text;html=1;strokeColor=none;fillColor=none;align=center;verticalAlign=middle;whiteSpace=wrap;rounded=0;" vertex="1" parent="E-beLJ-5tgw3SVWUHFMe-1">
          <mxGeometry x="43" y="530" width="100" height="18.1" as="geometry" />
        </mxCell>
        <mxCell id="E-beLJ-5tgw3SVWUHFMe-38" value="" style="rounded=0;whiteSpace=wrap;html=1;align=center;" vertex="1" parent="E-beLJ-5tgw3SVWUHFMe-1">
          <mxGeometry x="148.38" y="530.0000000000001" width="197.14" height="18.1" as="geometry" />
        </mxCell>
        <mxCell id="E-beLJ-5tgw3SVWUHFMe-39" value="&lt;i&gt;&lt;font style=&quot;font-size: 9px&quot;&gt;*主体文件应为文本文件，每个主体一行，以linux换行符（\n）换行，文件不含表头&lt;/font&gt;&lt;/i&gt;" style="text;html=1;strokeColor=none;fillColor=none;align=left;verticalAlign=middle;whiteSpace=wrap;rounded=0;" vertex="1" parent="E-beLJ-5tgw3SVWUHFMe-1">
          <mxGeometry x="42.996119402985045" y="560.0023809523809" width="271.4283582089553" height="27.142857142857142" as="geometry" />
        </mxCell>
        <mxCell id="E-beLJ-5tgw3SVWUHFMe-40" value="打开本地文件" style="rounded=0;whiteSpace=wrap;html=1;" vertex="1" parent="E-beLJ-5tgw3SVWUHFMe-1">
          <mxGeometry x="265.52" y="530.0000000000001" width="80" height="17.14" as="geometry" />
        </mxCell>
        <mxCell id="E-beLJ-5tgw3SVWUHFMe-41" value="主体匹配" style="text;html=1;strokeColor=none;fillColor=none;align=center;verticalAlign=middle;whiteSpace=wrap;rounded=0;" vertex="1" parent="E-beLJ-5tgw3SVWUHFMe-1">
          <mxGeometry x="10" y="491.9" width="78.5" height="20" as="geometry" />
        </mxCell>
        <mxCell id="E-beLJ-5tgw3SVWUHFMe-42" value="" style="rounded=0;whiteSpace=wrap;html=1;align=center;" vertex="1" parent="E-beLJ-5tgw3SVWUHFMe-1">
          <mxGeometry x="838.5000000000001" y="120" width="120" height="80" as="geometry" />
        </mxCell>
        <mxCell id="E-beLJ-5tgw3SVWUHFMe-43" value="基本信息：&lt;span style=&quot;line-height: 14.4px&quot;&gt;省外漫游看腾讯视频和爱奇艺&lt;/span&gt;&lt;br&gt;场景编码：&lt;span style=&quot;line-height: 14.4px&quot;&gt;SWMYKTXSPH_9902&lt;/span&gt;&lt;br&gt;场景描述：" style="text;html=1;strokeColor=none;fillColor=none;align=left;verticalAlign=middle;whiteSpace=wrap;rounded=0;" vertex="1" parent="E-beLJ-5tgw3SVWUHFMe-1">
          <mxGeometry x="841.25" y="120" width="117.25" height="80" as="geometry" />
        </mxCell>
        <mxCell id="E-beLJ-5tgw3SVWUHFMe-44" value="" style="rounded=0;whiteSpace=wrap;html=1;align=center;" vertex="1" parent="E-beLJ-5tgw3SVWUHFMe-1">
          <mxGeometry x="837.75" y="210" width="120" height="80" as="geometry" />
        </mxCell>
        <mxCell id="E-beLJ-5tgw3SVWUHFMe-45" value="事件规则：&lt;span style=&quot;line-height: 14.4px ; text-align: center&quot;&gt;流量_漫游_省外漫游事件&lt;/span&gt;&amp;nbsp;AND ( app编码=爱奇艺 OR app编码=腾讯视频 )" style="text;html=1;strokeColor=none;fillColor=none;align=left;verticalAlign=middle;whiteSpace=wrap;rounded=0;" vertex="1" parent="E-beLJ-5tgw3SVWUHFMe-1">
          <mxGeometry x="840.5" y="200" width="121.5" height="90" as="geometry" />
        </mxCell>
        <mxCell id="E-beLJ-5tgw3SVWUHFMe-46" value="" style="rounded=0;whiteSpace=wrap;html=1;" vertex="1" parent="E-beLJ-5tgw3SVWUHFMe-1">
          <mxGeometry x="837.37" y="300" width="122.25" height="40" as="geometry" />
        </mxCell>
        <mxCell id="E-beLJ-5tgw3SVWUHFMe-47" value="事件间隔：1200" style="text;html=1;strokeColor=none;fillColor=none;align=left;verticalAlign=middle;whiteSpace=wrap;rounded=0;" vertex="1" parent="E-beLJ-5tgw3SVWUHFMe-1">
          <mxGeometry x="838.12" y="300" width="121.5" height="40" as="geometry" />
        </mxCell>
        <mxCell id="E-beLJ-5tgw3SVWUHFMe-48" style="edgeStyle=orthogonalEdgeStyle;rounded=0;orthogonalLoop=1;jettySize=auto;html=1;" edge="1" parent="E-beLJ-5tgw3SVWUHFMe-1" source="E-beLJ-5tgw3SVWUHFMe-49" target="E-beLJ-5tgw3SVWUHFMe-51">
          <mxGeometry relative="1" as="geometry" />
        </mxCell>
        <mxCell id="E-beLJ-5tgw3SVWUHFMe-49" value="场景基本信息" style="rounded=0;whiteSpace=wrap;html=1;align=center;" vertex="1" parent="E-beLJ-5tgw3SVWUHFMe-1">
          <mxGeometry x="10" y="10" width="120" height="60" as="geometry" />
        </mxCell>
        <mxCell id="E-beLJ-5tgw3SVWUHFMe-50" style="edgeStyle=orthogonalEdgeStyle;rounded=0;orthogonalLoop=1;jettySize=auto;html=1;" edge="1" parent="E-beLJ-5tgw3SVWUHFMe-1" source="E-beLJ-5tgw3SVWUHFMe-51" target="E-beLJ-5tgw3SVWUHFMe-53">
          <mxGeometry relative="1" as="geometry">
            <mxPoint x="370" y="40" as="targetPoint" />
          </mxGeometry>
        </mxCell>
        <mxCell id="E-beLJ-5tgw3SVWUHFMe-51" value="&lt;span style=&quot;line-height: 14.4px&quot;&gt;配置事件规则&lt;/span&gt;" style="rounded=0;whiteSpace=wrap;html=1;align=center;" vertex="1" parent="E-beLJ-5tgw3SVWUHFMe-1">
          <mxGeometry x="220" y="10" width="120" height="60" as="geometry" />
        </mxCell>
        <mxCell id="E-beLJ-5tgw3SVWUHFMe-52" style="edgeStyle=orthogonalEdgeStyle;rounded=0;orthogonalLoop=1;jettySize=auto;html=1;" edge="1" parent="E-beLJ-5tgw3SVWUHFMe-1" source="E-beLJ-5tgw3SVWUHFMe-53" target="E-beLJ-5tgw3SVWUHFMe-55">
          <mxGeometry relative="1" as="geometry">
            <mxPoint x="610" y="40" as="targetPoint" />
          </mxGeometry>
        </mxCell>
        <mxCell id="E-beLJ-5tgw3SVWUHFMe-53" value="配置标签" style="rounded=0;whiteSpace=wrap;html=1;align=center;fillColor=#fff2cc;strokeColor=#d6b656;" vertex="1" parent="E-beLJ-5tgw3SVWUHFMe-1">
          <mxGeometry x="450" y="10" width="120" height="60" as="geometry" />
        </mxCell>
        <mxCell id="E-beLJ-5tgw3SVWUHFMe-54" style="edgeStyle=orthogonalEdgeStyle;rounded=0;orthogonalLoop=1;jettySize=auto;html=1;" edge="1" parent="E-beLJ-5tgw3SVWUHFMe-1" source="E-beLJ-5tgw3SVWUHFMe-55" target="E-beLJ-5tgw3SVWUHFMe-56">
          <mxGeometry relative="1" as="geometry" />
        </mxCell>
        <mxCell id="E-beLJ-5tgw3SVWUHFMe-55" value="配置&lt;span style=&quot;line-height: 14.4px ; text-align: left&quot;&gt;消息格式&lt;/span&gt;" style="rounded=0;whiteSpace=wrap;html=1;align=center;direction=west;" vertex="1" parent="E-beLJ-5tgw3SVWUHFMe-1">
          <mxGeometry x="690" y="10" width="120" height="60" as="geometry" />
        </mxCell>
        <mxCell id="E-beLJ-5tgw3SVWUHFMe-56" value="完成" style="ellipse;whiteSpace=wrap;html=1;aspect=fixed;align=center;" vertex="1" parent="E-beLJ-5tgw3SVWUHFMe-1">
          <mxGeometry x="910" y="10" width="60" height="60" as="geometry" />
        </mxCell>
        <mxCell id="d6dQd03-4qfxfvlk8FU9-1" value="" style="shape=image;verticalLabelPosition=bottom;labelBackgroundColor=#ffffff;verticalAlign=top;aspect=fixed;imageAspect=0;image=data:image/png,iVBORw0KGgoAAAANSUhEUgAABe4AAAHBCAYAAAAfNCs3AAAgAElEQVR4nOy9/3NU933vzx+AZ9rO7c10JpncacbtJ7e9bW/VfsBN08hOSoitTmInxeRSQcK16zgYmRDsJGyxgwuW7VZQLyGAg5zEKGA7gLPC2ARh4xhBjM1aIAxGAoQEWgnzbfUFWEDSvu4Pyns5+97zfc/unl09HjPPsdk9X97ny4L0OK99vScJFI+jb4ts+J7Imn8VebJG5Hv/PynjXIt+Uw4cOEDKOO3t7XLs2DE5efKkJJPJUv8NAQBQ0YyMjHheJ5VKydatW6Wvr09ERJLJpLz55pvy0UcfZba5a9euzJ9v3Lghr7/+uuzatStnf21tbXLkyBEZHR0VEZF33nkns5zazrFjxzLLv/POO9LW1mZ5LLt27cqM65133pG1a9c65p133slso6+vT3bs2CE3btzI2qdaZmBgQD744IOs47h+/bqsWrVK4vG453MJAAAApSGdThd0235Syn0HnTCOKehzHWYq+ZyG4fpNKvUAJiQj10s9AgD4HWH4ixgAAAAAAAAqD37fLDxhP8dhH185UoxzGpaHL4h7AAAAAAAAAACAgCm19JsohP08h3185Uihz6lx+6W8foh7AAAAAAAAAACAgEHYFoewn+ewj68c8XpO823HU6priLgHAAAAAAAAAAAIGIQtQPjw87lE3AMAAAAAAAAAAFQQyHuAcIG4BwAAAAAAAAAAAM9tOsIwKSZApeH3c1XKzyPiHgAAAAAAAAAAAAAqjnwfhjE5LQAAAAAAAAAAAABAgPj9xksYvvmCuAcAAAAAAAAAAAAACBGIewAAAAAAAAAAAACAEIG4BwAAAAAAAAAAAAAIEYh7AAAAAAAAAAAAAIAQgbgHAAAAAAAAAAAAAEiPiYyOiEhpJ6YVQdwDAAAATBzSYyJDFyQ9eE5k5HqpRwMAAAAAAAAWZMT9gQMHCCGEEEJImQQAAAAAAAAqlyxxDwAAUM4cOHBAuru7Can48HMbAAAAAABAZYO4BwCAigFxTyZK+LkNAAAAAACgskHcAwBAxYC4JxMl/NwGAAAAAABQ2SDuAQCgYkDck4kSfm4DAAAAAACobBD3AABQMSDuyUQJP7cBAAAAAABUNoh7AACoGBD3ZKKEn9sAAAAAACCMpNPpkqQSQdwDAEDFgLgnEyX83AYAAAAAAFDZIO4BAKBiQNyTiRJ+bgMAAAAAAKhsEPcAAFAxIO7JRAk/twEAAAAAAFQ2iHsAAKgYEPdkooSf2wAAAAAAACqbQMX92NiYnD17Vo4dOyaHDh2StrY2+eCDD+TUqVMyPDyc9/YBAADsQNyTiRLEPQAAAAAAQGUTiLhPp9OSSCTk4MGDcvjwYent7ZWhoSG5cuWKXLx4UY4fPy7vv/++HDt2TFKpVCADd6KpqUmamppsl2lpabFdpqmpSR555BFpb28PengAAFAAEPeVme3bt8uCBQuko6Oj5GMJSxD3AAAAAAAAlU3e4j6dTsvJkyelra1NEomEpNNp0+WuXr0qR48elUOHDsnAwIC/0f6Onp4e2bx5s+0yTuI+lUrJ6tWrpaWlxXIfS5YskUceecTxAUC+NDU12T4caG9vl9WrV5s+9GhpabF8T9HT0yMNDQ055z2VSklTU1Pe1wMAICxMZHHf3t4u999/v7S2tnp6r7u7Wzo6OmTZsmXS3t7ua/sqra2tcv/991tux6+AR9znBnEPAAAAAABQ2eQt7s+cOSNtbW1y9uxZx2VHRkbk2LFjcvjwYbly5Yqv/YnclOpKuqvKeDdRkntgYECWL19uKszVey0tLZl9OVXdO1XvW5FKpaS9vV2WLFliKuDV/jdv3pzzntPDB+M2rMT96tWrs/br9lwW+mEGAIAfEPf+xf2CBQtk2bJlvravoov7ZcuWSVVVlVRVVcnMmTNl48aNsmDBAlm9enXm9enTp0tra2tmDOp1L7Ebd6UGcQ8AAAAAAFDZ5CXuh4aG5NChQ9Ld3e16nStXrkh7e7t0dXV53p+R9vZ22zY2VhX3SlbrInrJkiXS09OTed+4bktLiyxfvty2Mr2npydnPS/oDyNEsh8g2K2jzoHxWwKrV6+Wbdu2mUp347GYyXsn3LQhAgAoBYh7f+K+u3tcus+cOVNaW1ultbVVpk+f7lqcP//885lt6OJeSfWOjo6MuFeV88Z92h0bFfe5QdwDAAAAAABUNnmJ+56eHmlvb/dcPe93PZ3NmzfLe++9lyWsnaIkt1mLGSuJ7VZu21Xxm9HS0uL6mwL6AwaR3Op447EZxbqx4r69vT3nIURPT480NjYi7gGg7Jmo4n7ZsmXS0NAgM2fOzIj07du3Owr37du352zHqnrdTv6b7WvBggWyePHirO3pAh5x7z+IewAAAAAAgMomL3F/9OhR6ejo8LzewMCAHDp0SM6dO+d5Xbc4yeWmpibT6vbly5ebPgRoaGiQhoYGR3lvJsa9olrnKEFvhlULn56eHlm+fLns2bPH9mGG2RjdPABRDwUQ9wAQRiaiuFctZhoaGuT++++X7du3y8yZMzNV8N3dudK9vb1dZs6cmSPu7XrUB9kqZ+vWrTmtctw8aLDKzJkzbfvzV2IQ9wAAAAAAAJWNb3GfSqXk8OHDcvr0ac87vXr1qrS3t8uZM2c8r6ta5Bj71ZthJ5eVpN+zZ480NDRIZ2en6zY3TtJaVdE79Z23w424N54HYyW+/kBCxLni3iuIewAIKxNR3CsJv3HjxoxY3759uy9xb4zbdjnGbdi1yunutq+4Vw8cjALeTe99s/UmQhD3AAAAAAAAlY1vcZ+PfM9nXUV7e7usXr1aOjs7XbfJUYL73XfflYaGBjl9+rQ0NDRYtp7R5bRZex0jqqXO8uXLTSeD9XJsTuLeOCY1Tn0SWqtWPMuXL5czZ87I8uXLc9rvuAFxDwBhZSKKeyW/t2/fblkRr7ekMYp7fVJYJeJ1Ca/Lf7VeocT9888/n6nGV+urcRu3gbgHAAAAAACASsS3uE+n03LkyBE5ceKE552qSW3Pnj3reV2FEvdu+7IbUbJ7YGAgR9zrfeKNyziJe9WmRlXw+6269yvujaLeOE67inv9HLgBcQ8AYWUiinslrvfu3Wsr7nUJr1fc6yI+H3Hf0NCQ6XHvVLGvy/nu7uwWO2a98+l1j7gHAAAAAACodPLqcd/V1SWHDx+W69eve1qvv79fDh06JENDQ573qdDFvZuJXpVs1ivr1Xv5ivumpqbM+04tafxMTGv81sCbb75peXzt7e2Wk9Pq6OJetRGym9gXcQ8AYWUiinsVo1j30i9eiXAzce+lVY56GKAmxzUbo59JZo3Hsn37dle99idCEPcAAAAAAACVTV7i/tKlS3Lw4EHp6+tzvc7IyIgcPXpUOjs7JZ1Oe96nwkzcO01Gq79vVnGvi3C34l6fLFa1zfFada/W81pxr9Zrb2/PmkDWaWJaK3FvnPRWfw1xDwBhBXFvLrSff/55qaqqsu0Vb1dxr6S8sTreuLyq+lfteqza1ngV96ryXh+3Go/VA4KJEMQ9AAAAAABAZZOXuE+n03LixAk5fPiwXLlyxdU6p0+flkOHDkkymfS8PyP5VNwrgmyVY6y2V6jWOV7a0KhK/T179riS48YHFmpdJfCN4/BacY+4B4ByBHGfK+6VYF+9enVWn3s9Zq1vurtvVrw3NDRkKurN2tt0d5v3uHeq2DeT72qf+rcBaJ1zM4h7AAAAAACAyiYvcS8yXkH/4YcfyuHDh+Xy5cuWy6XTaTlz5ozE43FPot+KoCruVVuY1atXS2Njo6+Ke7ue9GZC3wo1HlWl39TU5Fixr467p6cnc06UZLeatNc4VsQ9AFQSiPtccW+cvFWfLNYYXdyrqna1rnH7+ntqG7q4V/s3k+tmk8+q1932wlfLT8TKey8/tyWHRgkhhBBCCCGEhDw6eYt7EZFr165JR0eHvP/++9Ld3Z3T8/7SpUty5MgROXjwoBw5ckQOHDiQt7xXknpgYEC2bdsm27Ztc1Vxr1rKmElsPxX3qkWOlWB32zJHyXGjENdFvhktLS3S2NgojY2NmTHqDxHcVtzv2bMnU7VPj3sAKEcQ99niXp+EVvWt16vqu7uzxb2S58blzLbf2tqaVcVvJu67u8cr743y3mz7Xo9togdxTwghhBBCCCGVFZ1AxL3iwoULcvToUXn//felra1N2tra5P3335dDhw7J6dOnZWRkREZGRqSjoyNved/e3p4llIPqca+LeyO6uHeS9gq9/73VsZiNX4l/q2NTfezb29szx6MeYqh1nMS9EvXqQYVecW+2T8Q9AIQRxP1Nua2kvV5hr9rQ6NJcyXSr1jNu5LmVuDdu36563rgd4wMGs2r/idoiRwVxTwghhBBCCCGVFZ1Axb1bgpD3qqe9nWg3ErS4V7Ld7eSzZpJfSXI3E9EqQW+2vrG1jnHMVpPTGieotXtoYDcWxD0AhBHE/bjcVuLbqi2Okveqxczzzz8vM2fOlAMHDsiCBQt8S3FjWx71mlV/erNqezUuXezrlf1qzG4eAlRqEPeEEEIIIYQQUlnRKYm4F8lP3qsqdGNVuC7a7VriKMzE/Z49ezIV6O3t7TnbaWlpychuu6p0M4ztcIyV8l6P22w9u6p6O9577z3ZvHmz7TLqoYPduQQACAOI+/sz8typ77uqXF+6dKksXrzYVIq7zY9//OPMxLXLli3LkfVmkt44ce29994r8+bNy5L+6uGDWsbpIYTbtjuVEsQ9IYQQQgghhFRWdEom7kWCqbwHAABQTGRxTyZWEPeEEEIIIYQQUlnRKam4F7kp70+ePCnpdLokYwAAgMoAcU8mShD3hBBCCCGEEFJZ0Sm5uAcAAAgKxD2ZKEHcE0IIIYQQQkhlRQdxDwAAFQPinkyUIO4JIYQQQgghpLKig7gHAICKAXFPJkoQ94QQQgghhBBSWdFB3AMAQMWAuCcTJYh7QgghhBBCCKms6CDuAQCgYkDck4mSYoj7AwcOEFJWKfYvVqU+XkLKPXxeCfcBKcV9QEiYo4O4BwCAiuHAAcQ9mRjx8nOb3x8a+SWKlFNKcb/yGSHEf0ohbEt9zKT014X7IJzhuhByMzqIewAAqBgQ92SiBHFPSHYQ94SUVxC2hPuAcF0IyY0O4h4AACoGxD2ZKEHcE5IdxD0h5RWELeE+IFwXQnKjg7gHAICKAXFPJkoQ94RkB3FPSHkFYUu4DwjXhZDc6CDuAQCgYkDck4kSxD0h2UHcE1JeQdgS7gPCdSEkNzpZ4p4QQgghhJRHEPeE3Ewp7lc+I4T4T7E/P3xewxnuA8J1ISQ7luIeAAAAACoPvz808ksUKacg7gkpryBsCfcB4boQkhsdxD0AAABABeP3h0Z+iSLlFMQ9IeUVhC3hPiBcF0Jyo4O4BwAAAKhg/P7QGOQvUa8fPi9Pt5yUM+evmb5/rO+KPN1yUo71XSn5D8thzeuHz8sPX+vMOkd253XVW92y6q3urNc27O+1vQ7lnEoU93uPJ+Xx1zpl7/Fk1v+7WffM+WvydMtJ2bC/t6jnZCLek6ve6pbItmOurw0ZD8I2O6ve6vb1WXD7Gdp7PCmRbcfke7EP5XuxD0Pzuauk+8DrNTzWd0V++FqnvH74vKttq2v3vdiHrtYpp4T980lIMaODuAcAAACoYPz+0BjkL1F7jyfl6ZaTOeI5OXRTMD7+Wqe8+eFF0/VfP3w+6xdWpwQl0dQv1cZfxPVfnr0kn1+0zcT9Swf65YevdZoer1dJqo7Vy/Ho41HXshRCqBLF/bG+K7Jsx/HMtVWfAzcy3kncv374fM794SdKBqptBXlP6qLRTYp97xn/bnJzPjfs77Ucu7pWVsuseqs7c139/h2kj1WNvxQSsJKEbb5R19XPZ9L4GbK7P5w+G14/b2b/npfDdSnU/tT58/JZ0sW93c86dtv1+u93GB80hvnzSUixo4O4BwAAAKhg/P7QGPQvUeoXS11MuKlQM5PWVvFamexnvF7liv7LuZUgsTsPVudAiZq1e3o8i3fjL+9eKv/cjCcIKVzK+zUM+zS7JmfOX5MVb3Rl3d9eZO6qt7oz91++4k1tR384ENQ96fWzXOzqfePfEW4FuNkY9YcsZsv4+XtH377V+q8fPl8SkVdOwladwx++1in7TiRzHuiqbGs/J0/tPCEnz17NetCmHsZY3R/qXvLzDRmn+97t58jL583Lv8mVdB/YZdVb3Z7PiZt/d9189r38+212nY0PYPUHxC1HL2TuabW8289DGK4LIeUYHcQ9AAAAQAXj94fGfH+JyqcyXRccpRD3Vg8UghL3+hid5ItXUeK34j5fca/eK7YILDdxb1d57TZ2ks+q4t7sWyR+4ucBjZ+K+7CKe6O4Up+BDft7HT+jYRT3E+VhW6HF/dHey7Jsx3F5tf2cJIdGLcW9n2+SmH32zf6NNbv/EffB7c/PN9PMrtEbH14wvQfM/v0ttbj/KHlDVr55Sp7fd0YuDbr/PIT9PiAkzNFB3AMAAABUMH5/aAz6lyirXz7d/MJZbHFv95X3Qov7xn1n8pa2VuMslrgvhQgsN3Hv577xEjNxr+7rIOS2n4czlSLuzaS98RjtxhBGce/3euabchK2vReuyzMtJ+XfXz8ubd1D8uSvj+dco5/uO5P12o4PxgXoy/F+eaXtrG3FvZuHPlah4r60+8unRVxYKu5/e3JA/u3VY7J2T4/sPnZRFmvfpNp97KL88LVOebdrUJJD7j4Ppb4uhJRzdDLi/uLFi4QQQgghpMwyUcS933YbfmInQtRxuB2TsSItyIp7vbd4vglS3KvjCUrslOJ+DcM+lRAKQtyr+zUosW32eQ76ngyjuLeT9sZzYzUOtz3uncS9U3sk4/puxH0+rVr8ptyE7Y9+0y3PtJyU7nMpWflmlzy7+1SmArn99LA8vr1DXo73Z5Yfl6EdsuOD87L72EV5bHuHtJrcy/k+6DTeL17/rTR7sOd2XcT9ePKZJ8L4767X+SuM5z/fHvcdfVdk6Wud8ot3E3Lo9LA8tr0j880R4z26Zk9P5p63+zyE4boQUs6xFfelHhwhhBBCCHGfiSTui1Vx7zSpZ9ha5SgRqCYF9fuAI4jJaYO8DqW+X4uxTytRpq6L2b2o30v5tqTyI5ycPrNB3ZNhm5zW7BsLVtW2q97qNn2AGFTFvd3fU/r6bsVwPlX9pfj8FHt/G/b3yo9+M35+GveekZ+/c/Pcv9J2Vpa82iEHTg1mfU6W7zguvz05IIdOD0v9r0/I0d7LlveV3wmCqbgv3f7ynZA9LBX36jh2fHBeTn2UkqdbTuY8ZNqwv1ce394h7aeHM3+2+jyU+roQUu5B3BNCCCGEVEgQ97nJVxg7SZRiTE6r+hf7PQdm58HpPFu9b/W603jyafMShvu1GPu06jVsfE2/37x8k8F4nwV5Hfy2VfF6T1p9lq1e1wWm1+pjuwcJ6mGE1US8ZuJO7xVtNkbjNkot7os9uW85C1tjziVHZOWbXfLUzhNy2se5y/fbSUGJ+1KlnO+DfFtMBSXui5GWoxfkB83HZMcHhfk3HXFPyM0g7gkhhBBCKiSI+9wEIe7t1jceh9NX25VU81px/8rBszkPDwot7q2S73rFar1RqeLeeF+4PafG+7IQwsdvtW1Q92SxReSqt7od53OwEqf6+2EX95Xc3qpQ+zv1UUqe/PVxX581P9900q+5sf2S18lpvbZnKcQ3Xcr1Psi3PY3ZNrzOqxPEN67cfuYPnBqUJa92FOzfdMQ9ITeDuCeEEEIIqZCEVdzb9XH288tk2MW9VRWuX3Gv/uzmHOw9npRlO47Lsb4rns+7VY9yozxA3Bdun27EvfG6O0186kXC5SP0nT6PQd6TZhWtYaog9toqI+ge94j70u9P/V23dk+P53WtPktOldz6Zz2oivtif1OqnO8DJc3dfPbN/l43fvaDqLh3avOXb9S9Uajqf8Q9ITeDuCeEEEIIqZCEVdzrsfuFMmyT04ZF3OsTk9r1uFevG7eh78OpBYvah37unKoKrUQf4t7dvWbX49543Va80WV5Xxu34+bez7f1gpeJifO9J81kslPv+2K2e/Ej7qm4D+bzE5b9+f27zu4aemnB4rdFlNm/ucVul1Su94H6O3Dtnh5f4l6/d9S1cPvw1ao1VyE/v4h7QooXxD0hhBBCSIWkXMS9nZwPY6sctz3uCynu3Z4DYxW2cRuqsleNVckc46SmZpJUH0OxW+yE4X4t1j7dVNwbRY7eK71+5wmp33kic1+4vfeDEPd2UjHIe9LstXKvuDcuu+qtbtPWJ27FvRuxR4/7wu7Pb8W93b9r+Yp7v/OPeG29EsTf7+V2Hxh/RnD7mfEq7u0eAlnt0+u3m7w+aELcE1K8IO4JIYQQQiok5SLu7SRE2MS9U/VkMXrcuz0HVpW6x/quZI1rxRtdmT+r62AlAvV9lEsf8nIU93bnTrWaUedfvy5WQtuuEj2oVjl2D7eCvCfVseufi0oS92bnMt+Ke6sxOl3zYk+CWW7C1iqqx/2zu0/JpUF36zj9O1Mqce82QX4Gy+k+0OV1mMS912Pwev3pcU9I8RKIuB+6PCrXrqdlbMzxd0UAAAAAsKCnp0d2794tmzdvlpdfflk2b94su3a9KR92nHL1M1k5iHsnaRQ2cZ8cyq4YNnvPqeLe6RitBKtXca9LP/ULfeO+M1nLbtjfmyVHI9uOyeNa5ZyxvYJxHH5/ya/0thtB7dOsFZGxtYy6VpFtx7Kul1mldrEq7u0+00Hek8YKUuPrlSTujcepnzO9Yt6vMHMj7ovd2io5VF7C1i6XBkfl2d2n5MlfH5dTH6VcrePmQW2YxX2QbVnK6T5o6x6SFW90Zf09Vm7i3u/fny1HL8jibcek5eiF0F0XQiotOp7F/dVr2HoAAACAfDl48KC8/PLLltn/bpvjz2XlIO6Ngs7s/TCKe7tt+JGeQVTcm4lwXe4oAaj3SDeK1DPnr8naPT2ybMfxnAcQq97qzhLJG/b3+pI8bit8g0y5iXt1rexaZRiFtbqOxmukX5NiiXs1PjeTavq9J40i2fig6/XD5ytG3KtrHNl2LGsOA7XMije6HOeS8DJGu2vuRRQHlXIStk55pe2s/NurHfJu16Djsm7OdZjFfdB/v5fzfVCO4t5pknOrNO4df/j6YeJy6K8LIeUeHU/iHmkPAAAAkD89PT220l7FqfI+7OJeryQ1i5VEcDtJW9B9XFWs5KYf6elHNJpNMKifo1VvdedUMbv5hVwXL/p2jNfFzTl2eqBQjJSbuHdz7fXrbbwmZte5WK1yjPeQ/vkK4p60kuFejq9Yvdq9intjD3H9c7Nhf2/mmxRBjl+dN6u/C0vxoC05VN7CVs8HZy7L0tc7ZdN7fa7ugQ37e/P6N06f7yKoyWmNsfs3IMj7s5zvAy995c3+TQxyclpj7Lbj5yFg97mU1P/6hKzZ0+O6HVTY7wNCwhwd1+J+cPhGsL+xAgAAAExQdu/e7Urc79r1pu3PZ2EW927lbbEnMXUbqz7ebsS92S/NQYtEs4ni3LRf0CVCkC0PjMde6RKwVPu0SzEr7pNDuZ/xoO7JYk+Smk+8iHurnv16guph7VbWleJBW3KovIWtWX6674zU//qEdJ9z1y4n3xgfAhn/nSpGq5xyui6F3J/finvjQ0ivbbFK8ffjr4+cl8e2u/tGSRiuCyHlHh3X4n5o+Eqwv7ECAAAATFBUT3unbN682fbnszCL+0qIkorF7PtczvFafRxkEPeliZtv1ZDwxurbHcVIOQtbsxztvSzLdhyXV9vPlfy6llPK+T7It1VOOeSj5A1Z+eYpWVfAavtS3AeEhDk6rsX9wMBAoL+wAgAAAExU3Eh7FbufzxD3hIwHcU9IeaWcha1VtrWfk6d2npCTZ6+W/PyWSyrxPqiktBy9IE/++rh09hd2onmuCyE3o+Na3F+6dCnY31gBAAAAJiiIe0KCDeKekPIKwpZwHxCuCyG50UHcAwAAABQZxD0hwQZxT0h5BWFLuA8I14WQ3Ogg7gEAAACKDOKekGCDuCekvIKwJdwHhOtCSG50EPcAAAAARQZxT0iwQdwTUl5B2BLuA8J1ISQ3Ooh7AAAAgCKDuCck2CDuCSmvIGwJ9wHhuhCSGx3EPQAAAECRQdwTEmwQ94SUVxC2hPuAcF0IyY0O4j7EdHV1yezZs6Wrqyuv7cTjcamqqpJ4PG76fiwWk5qamrz3AwAAAO5A3BMSbBD3hJRXELaE+4BwXQjJjU5oxH1nZ6esX78+7+zdu9fX/qPRqFRVVflKNBoNZDu6WDcT9262bxxPKpWSSCSS9ZoRp/cBAAAgeMpF3BNSTin2L1alPl5Cyj18Xgn3ASnFfUBImKMTGnHf3NwsU6ZMkRkzZkhtba2vVFdXS319va/9R6NRX/JaX8/PdpLJpMyZM8eVuPeKqrY3i9pnTU2N5fvJZNL3vgEAAMCcchD3hBBCCCGEEEKKF51Qiftp06bJwYMHZXBw0Ffq6uoKIu69vJevuFcV8E6V9F62G4lEJJVK5byv9hWLxTxtFwAAAPIDcU8IIYQQQgghxBidUIn76dOny4kTJ3xvY+HChaEQ95FIRCKRSKZa3aodjRLrjY2NphX3qhreT8W92qeqmo/H4zkCv6urS+rq6iSZTCLxAQAAigjinhBCCCGEEEKIMTplI+6HhoZk586dcvr0acttBCHu7VrLmPWkt6q4j8VimddVy5uWlhapr6/PyHMl5uPxuKm4j0ajvsV9f3+/RCKRnP74akyxWEyqqqoyoj6VSklfX59EIhHLSWwBAAAgGBD3hBBCCCGEEEKM0SkbcX/ixAmZPn26NDc3W24jLBX30Wg0q/1NLBbLVOAbq9rNllWo14ziXsl2N7GrnFcPBI4cOUKVPQAAQAlA3BNCCCGEEEIIMUYHcf87CtHj3li9r+S4sfpeTTxrJu7VumhGZwoAACAASURBVDU1NTJ79mxLue6lp35XV5fU1NRktcxRLXKs+uADAABA8CDuCSGEEEIIIYQYo4O4/x1GAW43QWxVVVWW5LYT93qfeeMyxslmzcR9NBqV+vp6qampkU2bNmVa6tiN2wrj8dg9AFDtfwAAAKCwIO4JIYQQQgghhBijE1pxn0wmZd++fZls2bJF7rjjDlm5cmXW6729vZltBC3uzSS3anvjRtybtbsRuVn5rravi3s1aWw8Hs9U5aue+WpdtaybdjtK2Du12lH7MD5UAAAAgOBB3BNCCCGEEEIIMUYntOJ+3759rnq5r1+/PrONsIn7WCwmc+bMyWlFo+S4qsTXpbua3Fa11TFKf7VNVcFv3F80Gs3sRwl+PwJeHb/fiXEBAADAHsQ9IYQQQgghhBBjdEIr7su94t5YGa///+zZszMTw+rV8qlUKvOaLu7VcsZxGfevV+M7Ha9ZX/toNEq7HAAAgAKDuCeEEEIIIYQQYoxOaMW9Tjn1uK+vr8+psldtaFQ1vcj4BLRKtOttbkQkR9xHo1HTfvn6/nUhbybjzar51Wutra2+ziEAAAC4A3FPCCGEEEIIIcQYHcT97wiy4r6qqsq0zYwS9Lp4b2xsdBT3el98s3GrdfSqe7P9WlXvW01eCwAAAMFRTHEPAAAAAAAA5Qfi/nfoAtzvenbbsWpDYzaxrEi2uNcfGFjtTz10MHvNTPqrbZrJfQAAACgMiHsAAAAAAACwo2zE/dDQkOzcuVNOnz5tuY18xb2byXDN4lbcW+FG3Jth980AnXg8bir+7fYPAAAAhQFxDwAAAAAAAHaUjbh3Q9gr7o3EYjHLvvkKM3Gv99+3q5LX9+E1tM0BAAAoDIh7AAAAAAAAsCNU4n7atGly8OBBGRwc9JW6ujrf4h4AAACgWCDuAQAAAAAAwI5QifspU6bIjBkzpLa21leqq6sR9wAAABB6EPcAAAAAAABgR2jEfWdnp6xfvz7v7N27t6DjBAAAAMgXxD0AAAAAAADYERpxDwAAADBRQNwDAAAAAACAHYh7AAAAgCKDuAcAAAAAAAA7EPcAAAAARQZx759kMimRSESSyaTtMnPmzJF4PG67rXg8LnPmzLHdltsxudmf2+1Eo1HT97u6uqSmpkZisZjlNqLRqOX6ilgsJpFIRFKplOOY4vG47fZSqZTU19dLV1eX47YAAAAAAMA9iHsAAACAIjMRxb2SzlVVVZ6ii/X+/n6pq6vLEc9GCe9X3EejUVdj0sW52f5isZjjdvRjiMVitg8SnN5PpVLS1dUlc+bMySzn9phU9HPm9DAhGo1KTU0N4h4AAAAAIGAQ9wAAAABFZiKKez9YiWolk40C3Vhpnk/FvZ0cj8fjtnI7n4p7tQ0rod7a2iqRSMS1cI9Go5aV+V4q7kVuHre+vWg0Gsg3FgAAAAAAIBfEPQAAAECRQdy7w0miK/nstppfrww3E/epVEoikUhOhblZmxqranYvUty4LbvKda+yXR+3m2p74/aVrPeafNsFAQAAAADAOIh7AAAAgCJTanE/1rZTrn/70/nlu38r6VMHPe03Go16ks9OrWGstutUAW/VxkYtr9ZX21QS26n3vF9prcYTj8clmUxKXV1dlsBXDxPU9v1KfOP+nNa36v/f1dUls2fPznnAEFSffwAAAAAAGAdxDwAAAFBkSi7u3/mV3Pivb/g/gKtDcqP+Hhk7/p6n1Qoh7s1EdxCT0ypZbtXXXh+n32rzVColjY2NWds3jks9FDCet76+PonFYjkPEnQh76dqXm0TcQ8AAAAAUFoQ9wAAAABFBnHvT9wb277YtZXJR9zrwt6pBY5xebU/L8LcqorfuJ1YLOZYJZ9KpaS1tTXTJ9/uQYMbaJUDAAAAAFBaEPcAAAAARSY04j51WW785//x3ibnwf9Prv3LH8r1f/2UXP/2p2WkcaGr/Vr1hLeLU9W3123qFelq+0YBbyXIjTJbCXfjw4T58+dbingv7W3UWPSHE7FYzPaBhXG5fCeNpeIeAAAAAKC0IO4BAAAAikxoxL3PynnTbbkgqFY5VvJYl+PRaNSxol3J5vr6estqeqc2OZFIRObMmSONjY0yZ84c0+XdinvVdsfp4YHdcRnxMjmtUboj7gEAAAAASgviHgAAAKDIIO79TaqqCELcG4W21ZicxL3qr298ABCPxyUSiUh/f3+WxFdjSyaTpttU3xyIRCJy5MgRW9keiUSktbXV8hsJbs6Vfhy6dKdVDgAAAABAaUHcAwAAABQZxH3w4l5JdqOo18W9kucrVqzIyG+j+HYrq9U6aoJYK/FtbGtjfKhg/CaBGrff1jaqQt/4IMC4r3zEPRX3AAAAAAClA3EPAAAAUGQQ997Evb6emTxWAtsojnVxr//ZSk4rnCruGxsbpaurK0damz1EMMp0tbybCWT1BwDG182+TaDv22+rHCvcPAgAAAAAAID8QdwDAAAAFBnEfXDiXklwvepcracEtpmEz1fcK3RxbzaJrN7Gx6x/v5mMNxuDeq2xsTHnXOpj8Vpx70X0W8XNBLoAAAAAAGAP4h4AAACgyCDu3Yt7JZX1Snklh80kuUKX0GaiXL3mtae78TiM4ttsvCK54t6s6t6q3Yx+3lQffavJa43nw2+rHCuouAcAAAAAKA6IewAAAIAiM1HFvVXbF6d1jG1cjILdauJZL9sOuuLeapu6uBcxf5BhtpzxvDlJdrNvJ9AqBwAAAACg/AiNuO/s7JT169fnnb179xZkfIOptNS+MCQLtgwXZPtm7O8ekTvXDMj+7pG8thNrvy63NSQl1n7d9P2Vu6/KHdH89wMAAADumKjiXmRcLHttvaLEuZL2sVgsI7Dzmey2UK1yrI7bzYOGZDIpdXV1lmLcbjtm1f5uK+7t9mkEcQ8AAAAAUBxCI+6bm5tlypQpMmPGDKmtrfWV6upqqa+vz3ssC7YMy20NSal9YUgGU2kRcZbf+rp+om/bTNy72b7x4YLTA4dSPJAAAACY6IRC3D9zr6QTnXLj3/+pqOI+H5LJpLz44otZr6lJad1mzpw58pvf/MZV1X6+4t74kMLumwb59pVXDy/0byeobZuJdv0BitsHIIh7AAAAAIDiECpxP23aNDl48KAMDg76Sl1dnS9xr6S8ysrdV7Pe702OyV1rBixF+V1rBqQ3OSYi42LdqwRX23cj7vM9Nn3csfbrckfU/NiMxwUAAADBUWpxn75wRsZaX5bRN38u13/wD2Uj7gEAAAAAACYKoRL306dPlxMnTvjexsKFC/OquFfV50Zxr14zVt/r7xlFfb7iXm3TqZLey3bNxm51vAAAAFB4Si3uM5SgVQ4AAAAAAAA4g7g3YCayF2wZlrvWDMjibZdzxLl6z1iVvmDLcEb0q9et2tEosb5422XTintVDe+n4l7tU40v1n49R+Dv7x6RrzUOSm9yDIkPAABQREIl7p/8iozFX5f0xYSvjO76KeIeAAAAAAAgYBD3BnR5HWu/nhHfSrIv2DKcWc5MqquK+5W7r2ZEvWp585O9KXlg03BW3/w7ogOZ/ejifsGWYd/i/sOzo1L7wlBOf3w1ppW7r2a1BRpMpeVo//g6Tn38AQAAID9CI+5Hb8hY+5sy1vpyfjn222BODAAAAAAAAIgI4l5ErCd81SvUjb3urfq/KzlubH+zcvfVTAW+8cGA2bL6voziXsl2N7GrnFcPBN7ouEGVPQAAQAkIjbgHAAAAAACAUIK4N7C/e0TuiA5Yimwl+O16zRur2o0Tw6ptGqvv1cSzZuJerXtHdEDuXGM/Jre979XxGR9I2PXwBwAAgMKAuAcAAAAAAAA7Qivuk8mk7Nu3zzG9vb2ZbeQr7vX2MfrrSqTbta4xinS9z7xxGeMDADNxv2DLsDywabwyftmOK5mWOnb7s8I44a3TQwna5AAAABQexD0AAAAAAADYEVpxv2/fPqmqqnLM+vXrM9vIR9wb2+B8df2gLNgynKlQV2Lcjdw2inSzdjciuZX9urhXk8bG2q9nqvJVz3y1rlrWTbsdJeydWu2ofTh9qwAAAADyA3EPAAAAAAAAdoRW3Be74n7l7qvytcZB+VrjYKZK3iiv3UhvkdwJYO9aM5DTikbJcX3iW6OMX7n7aqatjlH6q22qCn7j/hZsGc7sR3/o4AW7yXcBAAAgfxD3AAAAAAAAYEdoxb0f/Ip7Jc43HriWmay1NzkmX2sclP3dI5l+82ZtZtR7egW8sTJe//8719ycGFavlh9MpTOv6eJeLWcch1Hc69X4dhglv/467XIAAAAKC+IeAAAAAAAA7EDcy3gVe+0LQ9KbHMuIe+N7tzUk5Sd7U5llFEqkG6vaVW96vcpetaFR1fQi49JfiXa9zY2I5Ij7BVuGTfvl6/vXhbyZjDer5levbTxwzfM5BAAAAPcg7gEAAAAAAMAOxL2ILN52WfZ3j2RaxCixroT+YCotH54dzbTRMbaiMZPkVpPYKkGvi/fF2y47inu9L75xfaO4N6u6N9uvVfW+1eS1AAAAEBzFFPepa9cIIYQQQgghhIQ8Ooh7A7q41zFO9npbQ9Ky1YxVX3mrNjRmE8uKZIt740MEu/2pYzB7zUz6q22ayX0AAAAoDFTcAwAAAAAAgB2IewNO4l5Vs1v1uxexF/dWuBH3fsZrJNZ+3VT82+0fAAAACgPiHgAAAAAAAOwIlbifNm2aHDx4UAYHB32lrq6uIOJeTUBrJ+wVbsW96p1vV71vJu7VGNV6dlXy+j68hrY5AAAAhQFxDwAAAAAAAHaEStxPmTJFZsyYIbW1tb5SXV0dqLhX/eqtKtUBAAAA/IC4BwAAAAAAADtCI+47Oztl/fr1eWfv3r0FHScAAABAviDuAQAAAAAAwI7QiHsAAACAiQLiHgAAAAAAAOxA3AMAAAAUGcQ9AAAAAAAA2IG4BwAAACgyiHsAAAAAAACwA3EPAAAAUGQQ9wAAAAAAAGAH4h4AAACgyJSTuI/H4zJnzhxJJpOm78diMYnH45brJ5NJmTNnju0yQRGNRiUajQayrVQqJZFIJO9xd3V1yezZs6Wrqyuv7ajzaHV8XV1dUlNTI7FYLK/9AAAAAABAOEDcAwAAABSZUov7eDwuVVVVljHKXyXuW1paJBKJSCqVytpWLBaTmpoaSzHtRtwr6Ww3JrMYHyikUimJx+NSU1OTeV3t2822dOFdSHEfjUYdx6ML+lgs5vgAxe59AAAAAAAoLxD3AAAAAEUmDOJeSfhkMil1dXUZsRyNRk3FfX9/v0QiEVN5H41GLaVxoSrurUS1Eu5mleleZLzTslbyXR9TEBX3Tg8gWltbJRKJWL5fjG87AAAAAABAsCDuAQAAAIpMGMT97Nmzpa6uTk6dOiV1dXXS0tIidXV1EolETMV9Mpm0lNl2bVyKLe7tcCPR3X4bwawtjzpXZ8+etRTpflr5RKNR2281xGIx0wcqAAAAAABQviDuAQAAAIpMGMR9JBKR+vp6aWxslLq6Oqmvr5dYLGZZce8kyOPxuDQ2NubIY7fiPhqNepLPfsS9F8GtHlKoc6H/2U7cG8ek2vf4rbiPxWKZqnn92xHGcanzi8QHAAAAAKgMEPcAAAAARSYs4t6qVU5jY6NtaxYvYrhY4l6X5l7625u1uFHr5yvunarl7UilUtLY2Gj5IEXNDWA8b319fZkHMGao46IfPgAAAABAuEHcAwAAABSZMIh7r5PT6pJX34aVmFdyWZ/8VSdfcW/s8262L2MffjdV8EGIe7UN475UBb2fCXP1fallvFTZI+4BAAAAAMoDxD0AAABAkQmDuHc7OW0sFrOV3E4V9UowO/V2t5rs1UuVvNV4je1mjPuzk936cektadyIe3XsNTU1Mnv2bEsRb7YtK9Q4zI4xn5Y8AAAAAAAQLhD3AAAAAEWm1OLeiFnfdCNKqFuJeSdxr6S5U4V3oXrcm0l7kZsC3GqfQYj7aDQq9fX1UlNTI5s2bZKamhrT8+RW3KtjsRqz24ckAAAAAAAQfhD3AAAAAEWm1OLeqV2L3h5m/vz5jj3TrcR9NBqVTZs2SX19vW01uFdx7wb9oYMu1tXxmT0A6OrqktmzZ2fG7FXcd3V1SV1dncTj8cx2VO951T5I35bVuVTHEYlE5MiRI1JTU2M7/0Bra6urhyUAAAAAABBeEPcAAAAARabU4t6IXcW9em/Tpk2uK9ONGOW33YSpIsGJe7Wd+vr6HHHt1K/feAxW/erdinvVckh/ACCS+20B47aM58HuwYIb1AMap/kFAAAAAAAgfCDuAQAAAIpM2MV9MpmUVCqV6YXf399vK/eNQrurq0taWlpERLImTVUV6FYC2q+4NxPdRlFtrG5XYr2lpSUzZqv2NfqEr17E/dmzZzMV9Lq41ye91belV+PbYTXJbjwep10OAAAAAECZg7gHAAAAKDKlFPdKbtu1yolGozkS3KoPu1Foqwpvs3Ywaht2E7TmK+6t9qkq1pVY7+/vzxyb2aSuZg8AvFbcK3RxbxyPcYzGbZmdCzMZbzZO9VpjY2OgbYcAAAAAAKC4IO7BFSt3X5XaF4ZkMJW2XGbBlmFZsGXY03Zj7dflrjUD0pscc73O/u4RuXPNgOzvHvE9VsWCLcOycvdV1/sGAAAIgjBV3BtRFfaq2t4omM1avojcFNpK+sfj8Yw81kWz1TZE/Il7tW+1H7MxG0W+8X1VUZ9MJnMmqTUbp/7NBNV3Xo+duFfj0R9e6OLe7AGEXf9749iN19DunNH/HgAAAAAg3CDuHejs7JT169fnnb1795b6UPKiEsX9yt1X5Y7ogGw8cE32d4/IHdEBua0h6RhEPwAA5Eupxb1qW9PS0pKZzNQotBsbG3PauYhYV4Lrwtqsqlyh93c3bses7Ysdem96s7Y5RiGuTx6r5LhZVbzZcVr1pbdaRp1rY59/M6mub8vqwYfZ+sbz5jRRsAjiHgAAAACgXEDcO9Dc3CxTpkyRGTNmSG1tra9UV1dLfX19XuNoT4zIfRuH5LMrx+Xxl348IGtbU3Ld3F1nWLbjiuvqc52Vu6+6Etn5CG4v4l4tG2u/niXu3Yzzjmi26FfrxNqvW+6vNzmW2R8AAECQlFrcK1FsFL1WE6Qa0SvcRURaW1ulvr4+s2w0GnUU8FZi36qK3S7q4YJZ73gdq8lp9WXU+JXc1/dlPIdO27f7loGIebsbK+wmErYaEwAAAAAAlCeIeweam5tl2rRpcvDgQRkcHPSVurq6vMT9ez0j8oVVudXgn1mRlMe3XxEzJX/1RlqaD1+XL6wa8C3ujfituFfyO58HAGqbagxvdNzwXXE/mEpL7QtDjtLeOHbEPQAABE0pxb2TSHaS23brW1XTm2FXle8Hvfpeoff0dxLbdn34/WB2vvQxOZ1v48MDr/EzbwAAAAAAAJQexL0Dzc3NMn36dDlx4oTvbSxcuNC3uL8xKjL/l8PymRVJWf7rKzKUSktaRPaeHJfXX1g1IAd7swW2XoEelLj3ItndYGxP42a9BVuGTfepi3U7ca+32elNjkntC0OmFf+IewAAKBSlrrgHAAAAAACAcIO4d6DU4r7n0pjUrB2Ur/90SC5dyRbRa1tTcltDUtbvy66iKpS4D7LHvap8X7BlWO5aMyAPbBq2rKAXyZboQU5Oq/rcm20LcQ8AAIUCcQ8AAAAAAAB2IO4dKLW4V1Xpi1657Ok9kZtyPIwV97H261L7wpBsPHAtI8cf2DRsOU5jL3yjuI+1X3fdckfvpa+LeV34I+4BAKBQIO4BAAAAAADADsS9A6UW90pMm030erhvRP7xRwOWsjxocR9Uxb0u3pVQX7Bl2HJC240HrsnibZdz1s8HfbyIewAAKBaIewAAAAAAALADce9AmMW9Est+xb1ZtbpV25igxL0aszoeo7jvTY7J1xoHHYW8EvdvdNywbbGjjt/s3KlvEBjfsxL3dlX7AAAAfkDcAwAAAAAAgB2Iewd0cZ9MJmXfvn2O6e3tzWwjrBX3duLeTFp7jS65zcZjFPdmfzZDtQiyesig708/d8ZJcd2IeyruAQAgaBD3AAAAAAAAYAfi3gFd3O/bt0+qqqocs379+sw2guhxH9mW28f+t6duyO3PFqfHvXEyWS/vGVET0RqlvJmoX7Bl2HTMxgcNfh4w3LVmQLZ/cF3uiA7IxgPXcqQ+4h4AAIoF4h4AAAAAAADsQNw7UOqK+55LY1KzdlC+/tMhuXQlW2SvbU3JbQ1JWb8vZbpuUOJePTwwSm6zPvMrd1+1rJY3k/Yi5uLeqjJf/dls34u3Xc6pvjeruF+5+6qs3H3V8j3EPQAAFAPEPQAAAAAAANiBuHeg1D3ub4yKzP/lsHxmRVKW//qKDKXSMjom8vaJG3LnmgH5wqoBOdhr3+M9H3G/YMuw3NaQlGU7rmTay1jljuiALNtxJasFjRqDVVsbq9Y4aj2z93RxP5hKy0/2piwfAJi1GULcAwBAKUHcAwAAAAAAgB2IewdKLe5FRN7rGZEvrDKX5ktevSy6klcTr5rFTGKboarsrdrfmFW9G1mwZVjuiA7Iz/dfy1pOPQhw0xvf6sGD1b71yXER9wAAEFYQ9wAAAAAAAGAH4t6BMIh7EZH2xIjUvjAkn105Lre/9OMBWduakusm3jwIce+Ek7h3i5vJaN3uuzc5JrUvDGW2hbgHAICwgrgHAAAAAAAAOxD3DoRF3JcCLxO/WlXNOxGkuLcav5l4N4p746S3buI0CS8AAIATxRT3qWvXCCGEEEIIIYSEPDqIewcmsrgvBkGLe9XiR0l2q/7+dtX4AAAAhaaY4v78+XOSSCQIIYQQQgghhIQ058+fy/ldDnHvQHNzs0ybNk0OHjwog4ODvlJXV4e4t8CPuAcAACh3iinuE4mEpKWfEEIIIYQQQkhIk0gkcn6XQ9w70NzcLFOmTJEZM2ZIbW2tr1RXVyPuAQAAIENYxf3oxnUy+q25MvbWKyX/wZUQQgghhBBCJkoQ9z7o7OyU9evX5529e/eW+lAAAAAgJIRV3KelX8bqH5OR26st3x/d1lTyH2oJIYQQQgghpJKCuAcAAAAIAaUU96Mb18lY/WOWGV3yiIzU3Gn+3rfmysjUqTL2k5Ul/8GWEELCnLG2XTL63YdkrG1XycdCCCGEkPAHcQ8AAAAQAkop7sd622Sst01k5zpJP7tYZOc606SfXZx5P/3cUsvlCCHhjd9fHEs97ko5T2MPzZaRf/h74e9QQsKVUss5QggxC+IeAAAAIASEoVWO7FwnY0sfk9HaWZI+2iZjzzwpY0sfk/T2VyS9/RUZub1axpY+JpLsl9HaWTJ631yRZD8hpFySh5ySnetKP/4yOU+JRELOtbRIIpHISX88LiNTp8qFrVst3zd7nZCJlOHHH5ehxYtl6NFHC5fFi2X48cclkUgg7gkhoU0igbgHAAAAKDlhEvdKzkuyX9JH22S07qHxdjjPPJl5fbR2VtZyhJAyCOK+KOcpkUhIatYsGV6yxDTX77zT/L1Fi+RGdbWl1CdkomRo0SIZWrhQBhcsKFiGFi6UoUWLJJFA3BNCwptEAnEPAAAAUHLCKO7TR9vGK/C//4iMNa6TkbvulNHaWSJJxD0hZRnEfVHO08UNGyQ1a5allOyPx00r64eXLJFrd98tg8uXl1ycElLKDD78sAzOny+DDz1UuMyfL4MPPyyJBOKeEBLeJBKIewAAAICSEzZxP9a4TsaeeVLSe3ZlZFb6aJuMfvUeSW9/BXFPSDkGcV/w85R+8T/l2t13y9W5czMScnjRIhlesiQj6y9u2CA3qqvl4oYNmWXOtbTI5XnzSi5MCQlDhh59dLwyvpDifsECGXr0UUkkEPeEkPAmkUDcAwAAAJScsIj70a/ek5HyZhmte0jGlj4mI3fdibgnpNyCuC/4eUo/t1SGlyzJanfTH4/L9TvvzMj8ixs2yMjUqVmi0qonPiETMYh7QggZTyKBuAcAAAAoOWER92oiWqPEGv3+IzkT0Y5+/xEZe6lJ0kfbSi/ZCCHugrgvynkyE5EXN2zIiHvV577UcpSQsAZxTwgh40kkEPcAAAAAJafU4n50W5OM3vvl3Ar77z8iI1Onjot6kwr8kdursyatJYSEOIj7opwnJR8vz5uX1SJH/Xd4yRLbHviETPQg7gkhZDyJBOIeAAAAoOSEQtzfU5Mlr9JH22S0dtZ4Ff7Rtqx+9yqjtbNk7KWm0os2QohzEPdFOU9KPvbH43Lt7rtzJP3wokX0syfEJoh7QggZTyKBuAcAAAAoOWEU96PffySrbc7YqpUyWvdQlsBH3BNSRkHcF+U8GQXkxQ0bctripGbNkuElS3JkZX88Lsm1a0suTQkpdRD3hBAynkQCcQ8AAABQcsIk7sdeahoX8s88KWMvNd3MqpUy+tV7ZOT26kxve8Q9IWUUxH3Bz9PYD+fL8JIlWVEtc1RuVFfL1blzc5a7dvfdMjJ1qgysWFFycUpIKWMp7ufNk8EHH/SeefMQ94SQskwigbgHAAAAKDlhEvfpo20y+tV7xvvar1qZEfdmst6ruL9w8qh88fPV0vTc6sxrrTua5S///M/k2LutrrbhdXkv42rd0VwwGdi6o1m++PlquXDyaOnFJAnsmk6aNCkr+j10tf+UPPDN2qx7vmRB3Bf8PKVf/E8519JiKSQvbN0qN6qrM/3uw5Bl287LgxsveF7vhbc/ki+tviTxjr6s1ztO9cnXGy/Ksm3nfY3ntfhZuXtd7nZJfnktflamr74kr8XP2t4LX2+8KB2nvJ37eEef3L3OfttekiPu588fl+8PPCADc+fKwDe+4T5z58rgAw+Mrz9/PuKeEFJWSSQQ9wAAAAAlJ0zi3in5tMrJV9yr9R/4Zq1c7T/lS8q17mjOWd9K3F84eVRm3vOVrLGZyVo9D3yzVi6cPJolbIMS908sfjTnfKnxO43LmCcWacg4ywAAIABJREFUP5q13WPvtspf/vmfhUMwlzhurrHZOTSLmbi3u14FPf+I+6KcJzshmZo1K1Ntf2HrVlcSU4nw2xqSnvPC2x85bn/ZtvOulzXGjbj3I3StthtkHtx4QaqfTWaN64W3P8r7/KpteD2XxYgu5V94+6McSa8v4/b6vX24X+5edynnnFrF7CGC8bUccf/tb8vg/Pky9Oijcnn5crlcXy+Xn3rKOfX1cnn58vHtzZ8/vh3EPSGkjJJIIO4BAAAASk45iXvV6360dpaMTJ1qOmmtVfIR90qAuhXTVpL8V7/4aUaaqnGYifsnFj8qkyZNkkfqvm26HV3E63/WhW0Q4v6JxY+abkON34tINltWyfugv3nQ9NzqwKX0xa4PZfmS78snP/FxuWXyZPnnr/yTxN/aKelLfTnLpi/1ydH9b8vCeQ/In976KZk0aZL8we//nvzzV/5Jtm54Xq6d7XG9X6/f+LAT98bzXJTK/AoX92Z/v5TiPFnJyuFFi+Ta3XdLfzwu/fG4DC9aJNfvvFOGlyyxrdK3q2C3qpCOd/TJl1ZfciWQ1fa9Vlq7Efevv38289DBbQX+sm3nCyruH9x4wXT7XqT7a/GzUv2s+bIvvP2Ra4FdrKj7Qb8G+rkw3k9qnW/+/KLEO/ryeoB0W0Mys90HN15wXDZL3P+u0n7oO9+Ryw0Ncq2lRa6//bZcb211zttvy7WWFrnc0CBD3/nOzcp7xD0hpEyCuAcAAAAIAaEQ9/d+2ZPcUq108hVrbkWoEulOlc5uJXHTc6szElwXqW7GVGxxbzemoMS9Os/5fKMhn2viNpcTJ+Xb//cb8pd//mfy/I9WyqsvbZCvf/Vu+eQnPi5vvbo1a9lrZ3vk6R/+m9wyebLUfPEfZe2KZ2T3ti3y6ksbZN5935Q/+P3fk9p7vybnjn+Q93UwO2azb2OcOfI+4r4ACau474/H5ercuZKaNSunRc6FrVszve2HFy0qqLhXr3kVrsY2Og9uvJDZn5dWOfqybuStXfy24bGT6kGJe3X8ftoPFSpm3yZQ5/DBjRcyYzXeT8bXne5Dp+j3qaeK+3nzZOC++2Ro0SK52tQkYwMDIqOj7n64Gh2VsYEBudrUJEOLFsnAffch7gkhZRXEPRScVColkUhEIpGIpFIpT+vG43GpqamRrq4u0/e7urqkrq5OkslkEEO1JRqNSjQatXw/Ho/LnDlzijIWAACoPEot7tNSGDH3xOJHswSxW3Hf9NzqjDxWQlMto/6sy2VjRb7XinE/Pe6LKe6dZHuQ4r4QVfdBi/vYxp/JH33sY/Kb7a9kXhs83SmzZ/6zfPv/fkNSZ7tFkv2SvtQnz/3Xf8otkyfL+miDjJw/k7Ott17dKp/8xMflv+qfMK3WN7vuXiruzVoQUXFfmIRN3J9raZHhRYskNWuW44Szl+fNk5GpU03b5wQt7r20cdHlrVFuF6LHvZK3002qw/ONk1APStyrbYWl6l4dt9u2SVbfvEDcE0JI8ZNIIO4ris7OTlm/fn3e2bt3b2BjisfjUlVVJfF43PO60WjUVvgrcX/q1CmZM2dOzj7UQ4OqqirP0fdrJu6Nsh5xDwAA+VCp4t5Y1W4l1nQRqotlo8Q3bltV4Dc9tzrz/3aV4lYV0F5a73TG97nuJb9u5X8EJu6Pvdsq0+74nKUsDlLcO73vJzu3vhiouI8+vUxmz/xnGejpyLx2/aPT8p1v/2vWPXDq0LvymSl/K9996FuW7XBGL/TKE4sflSWPfEcuJ05mnU8/94l+jKpf/kQX91f7T8maFU/L5z5zm0yaNElumTxZpn/+dnkj9svMAxN1Xn7242dlU+MamfI3fy2TJk2Sz3/us1nLSbJfRs6fySxzy+TJcv+cWfLhu3tKLu7HnlokAytWyODy5TK4fLltCxw9w4sWmS4fJnFvbKuz5o1z8qXVl2TFjnOe26W4Eev6vvON0+SsQYp7q9Y0pYhZL3vj+Xa6ZoVoW6TOn74v9bCDVjmEEDKeRAJxX1E0NzfLlClTZMaMGVJbW+sr1dXVUl9f72v/fkW5mZzv6uqSmpoa22V1Wa7LdTWeWCzm6ThisZgrcW98sIC4BwCAfKhUca+Lejfi3m3Ft7F1joqfKvEnFj8qK5Yv9Vxxrz9QKGTFvdXDC/08ByHu3ezPa5S8VhXybsS4F/l6OXFSNqz7kdz6qT+WTY1rMq/HNv5Mbpk8OdBvD3ituFf36b33fDlzzieauB85f0YWL3xY/vTWT8mK5Utl97Yt8sLaVVL9938nn/zEx+W9N3dknZepf1Ml0z9/u/zyZz+RX/7sJ/LFz1fLp//kVvngt2+JJPslfalP/qv+Cbll8mRZNP9B2bn1RVn6g0fkK3dND2aC5QJOTusnQU1OG4S4VyK4+tmkLN5q3ote7ceLdLeqhl+27Xxglet21eTquIIS91bnLmjR7WYi4oUvX5Bv/vxijiDf/M5Zxwp647cq/EzeazVGJqclhBB3QdxXGM3NzTJt2jQ5ePCgDA4O+kpdXV3e4t6LKDeT5CLm1fa6PHeS5UFX3FdVVWX2n0wmZc6cOZljRdwDAEA+VKq4V+JSSWA34t6ux7pdn3sl/N1KfLWt1h3NmXHde8+XHSv3jYJRPw47Me9X3LsR7UGL+yAm0tW3Z7wmw70nZM2Kp+WpxyOW+W3Lq67vL3XNf/QfT2a1w3nysR9I1V/9hRyP7wvsfvYi7i+cPCoz7/mKTLvjczLtjs9lpPJEE/enDr0rNV/8x5xj++C3b8mn/+TWnAd7d037gvR3HMosp7cb6jq4X6b8zV/LU49HMtc7falPNqz7UTDf7AipuA9Dxb2V1DWTzG4nu1VCeOHL4xOl6ts0PrjwMnazc2gn0oMW904PCrzkt0f65bu/vCB1L1pnx/v2Dzf062V2Xy3bdj6nNZLbinsvy3oW9/PnZyrvB+bOlYFvfMN95s69WWk/fz7inhBSVkkkEPcVRXNzs0yfPl1OnDjhexsLFy4subjv6uqS2bNnSzwel2g0KqlUKrPt+vp600p8Y1TLHL8V90bi8Xhmv5FIJNOSR7UA8vNtAgAAAJ1KFvdG0ekk7vX3jX3rvVTU6xXdantGuW/WusTYdscYo+S26rHvJLv1tkFu40bo+mnt4iTuvVSVO+XYu61S9Vd/4VrGu82Nc6fl7dd+JTu3vijfW/CQ3DJ5cpbMfWLxo6bnXH/IM2nSJNfH6+XcND23Wh6p+3bm+qmWR+pemSji3um+Xbvimaw/P/6972a1xdEfTO3c+qLc+qk/lkOtb2RtL/Fhm1T//d8h7hOFm5zWjahVAtypUl4tp49/2TbzSv5E4uaktl4r2d30Z/dTUe4k7gvRZsZvghT3ZsfmVdy7bpVjzLx5Mvjgg96j2uMYg7gnhJRBEPcVhpO4Hxoakp07d8rp06ctt1Fqca+2EY1GJZlMSn19fUaWz549O2ui2lgsZts/X21r06ZNnivvVWW9qvJX6erqkkgkInV1dZ6q/wEAAOyoZHFvlG5O4t6LFD32bqvMvOcrrkR4PhPXKsmrxuVFwKtKcz/tX/SxuxH3QVbcBy3u7Xr0BxE1Ee0ffexjsn/XayLJcXFvVnHf33FIVj75RKa6/19mfDVwca+q7dve3pVz/SZaxb3K9Y9OS9fB/bJz64vy9A//TT7/uc9mPUSyuo/115ueWy3Vf/93kviwLWu5gZ4O+dqXaxD3FuLeqce7Wawq7pV4tZK6X2+8KN/8ufmY1bpB9q/P5xwaxXPQFfflJu7NJiM2O4YHN17Iue8KWnFfiCDuCSFlkEQCcV9ROIn7EydOyPTp06W5udlyG0GI+3za0kSj0RwBrgS9U/saq/FYPUhQk9s6tdqJxWJZbXri8bjU1NRkPURA3AMAQD5UsrhXou2Ln6+Wjvf2Wop7JTjNhLKfiWW9VLebiVQ/KYSgrgRxn/iwTe75pzsz2wu6x73Kh+/ukf/1Pz+dWddtj/um51ZnPTzKZxJjde+tXfGMPLH4UdPrp6S+8fxWsrgfOX9GftzwlPzB7/+eTJo0Sf73X/y5zLznK/L0D/9NpvzNXwcm7ofOHJfae7+GuE8EJ+6tpOvd68YnpbVqa7Ns23nLSVHtEu/ok7vXmY9x2bbzvid7LXdxn0+P+2Xbzpsuv3jreV/i3qrtkN03FvRvXyDuCSHEXRIJxH1FERZx77fiPpVKSWNjo8TjcYnFYhkRrtrSGCvr1eS1ZqLfbDxeHiqo8aiWPV1dXVni3myiWsQ9AADkQ1jEfXr7KzL2UpOpzBqtnWX5nlP0FiFm4v5Xv/ipq0lpVZ5Y/KilfG7d0ZzTysaP/LdqpeJ3W27Eup5K6HF/4eRRmfsvX8+I1nx63KfOdsv3FjwkCx68X66d7cl671DrG3Lrp/5YXmxcK5K82Qt98cKHs3rf6zGKe6djcftQY8XypXLs3VZTIW/2bRGzyYyDnCBYkvkLab/73b/rNfmjj31M1q54Jut4VGsbr+J+orXK8dviRpe5Xiqi7eS2cbJSs3YpStI69dRXYvvtw/0ZgRzv6JM1b5yT2xqSOZJ9zRvnpPrZ3Ne9iHt63FtX3Js93DC7xurY9evg5v5yO9Ey4p4QQsaDuK8wyl3cG+nr68tU2ptV1Sthf+rUqaxJYq3GYzY2s4p71dPebLJcq8p+tR7iHgAA/BIWcT/6/Udk5PZqSR9ty5FZI1OnSnr7K5Le/oqM1j3kS+K7mZzWTZzWaXputSfpqfra5yurC9USxm7CXjvhaRY34t7r+St2VixfKp/+k1uzxO3I+TPy1OMR+fSf3Cof/PYtkWS/pC/1yS9+slr++x/+N1kfbcgR/ZLsl5Nt78jdNV8qSI974/k23vNm51dfriDXoETivum51fK//uen5cN392ReS1/qk9d++Qu5ZfJkz+K+5/AB+dxnbpN/j3wva3LaX/xktdwyeXLFiXs7Seyl4j5fkaxXSVuJYKMcdxrfsm3nTYWxqurXHxBYSWM3MWvvUkhxbzexbyniJO7NJhU2k/Gqgj+fHvdOQdwTQsh4EgnEfUWhi/tkMin79u3LZMuWLXLHHXfIypUrs17v7e3NbCMs4l7kZlW9/r5egW+szrcaj5+KeyNGce9lW/lMjAsAABOHsIj7kdurLYX8yNSpmf8fW7UyI/K9CLEgxL2qdrerzFeTzLrZnmqN0rqj2baK300KJe6dzlGQ4t6N2Pczfr/tb8xytqNdvnzndPnbv/4r+dmPn5WdW1+Uh+6fK//9D/+b/OInq7MmNh05f0ZWPbNcbpk8WT572xRZ+eQTsutXL8vWDc/LfbNnyS2TJ8uf3vop2bj+x7ZV+X7vV13IW7XEMRP3QV4DSfaXTNy/9+YO+eQnPi41X/xHiW38mezc+qI8/K375Y//xyfljz72Mc/i3vhA5qH758rOrS9K/eOLM614yk3cp2bNknMtLbbC1WqiV7fi3k2rmHxFsJm4NQp6fdxqWaex6cfoVxDbnUf1flDi3uq4Sxmn8/bgxgsyffUlqX7WemJhda1Um518rouxlZJ+bRD3hBAynkQCcV9R6OJ+3759ruTy+vXrM9sIi7hXct5K2hur39V+9WWTyWRmYlsznHrcG6HiHgAACkkYxP3YD74lo3UPZeTVWGO2qBuZOjVL6o9+/5Giinslf52q4s32YRU18awSgvlK60KJe6f+50GKe3VO8u33b3btguzffu74BxL57sPyyU98XG6ZPFm+ctd0ebN5s4xdTOQsm77UJ6cOvSv/Hvme/O+/+HOZNGmS3DJ5skz//O2ybuV/ePqWhZe2OmbXzu5+Vw+OCtbvvkTiPn2pT96I/TIzGe2f3vopWbzwYTke3yff+fa/yjf+z71yOXHStbiXZL+MXUxIyysvZbb5+c99Vl5sXCtfqP6H0In7/njcVmCOTJ0qw0uWmL6nRKlVpbhbcR9Uf3srEWwnsnUpq1fNO7WxCapy3ekBQZDi3ukhQSlivF4PbryQ09veKN1VVb1dOxxj25sX3v7Itbg3rrdix7nMvWuctBhxTwgh40kkEPcVRVgq7vOZnFbEetJZ1TrHTKArSW+U58lkUurq6jI96r2MSZfwiHsAACgkYRD3o3dNk/SeXeNSrHFdTkW9Lu7TR9tk9Kv35Ah+o4TMd5LPJxY/mpG+Vm1DzCYTddNiRFXu65JQSVMzuepmUlUvvfK9xK7vvJ9xWYl7p7Y8Ey1m95cXMWyU8E4PlYz7CnJy4ExKJO7LLnmcp7GnFklq1iwZXrIkkxvV1TKwYoWlyByZOlUubtjgSya7Efdu+rvnI4KVpLarLl+27byranc3E5sGJa+9jMHLhLCFOt/5xjhJrbpW6pjN7iG9dY7VtwjcTJyr8vivciv19Ty48YIMPvywDM6fX1hxP3++DD78MOKeEBLqIO4rjEroca/kvF4lr9rmWFXPi0hG3qv9GyvqzcS78X1jb3szCY+4BwCAQlJqcT9W/5iM/eBbGXE1WjtLRr//iIytWiljSx+TsWeelJGpU8d72y99TMYa143/93f/X3LR5lGiuhGjRokaZPV5vmM3E+5BVdwXotp+osco7ks+dwDivuDnaeypRTIydWqOmE+uXetL3C/bdt5WABvFvS6e1evGfvFBi3u1LzeSWq/qLkXspHpQFfdhrLbX7yUl8Z3mPDB+S6GYPfuHFi2SoYULx6vuC5ShhQtlaNEiSSQQ94SQ8CaRQNxXFJUg7o3bUaJcX8asBU40Gs2R+sb1lHhXDwCsKu3j8TjiHgAAik4pxf3YT1bK6D/fI2NPLZKxxvEJakdrZ4kk+zMV+JLsl5G77vQ1IW0YYhT2XsWpsZo98NYlHqPGUgj5q6R9qY+RFDCI+4KfJytxbyXm9fftliPBRFWO5zNRr1W8yH9ineHHH5ehxYtl6NFHC5fFi2X48cclkUDcE0LCm0QCcV9RVIq4j8fjUlNTI11dXSJiXm0fjUaz1tPXUWNR6yjxrqS/VV/9SCQira2tiHsAACgqJRX39Y+Ni/sfzpf0nl0y+tV7soS9ymjtrBxxryrySy7aCCHOQdwX/DxZifvB5cuz2ucYMzJ1qlyeN0+uzp0rI1On2rbVIYQEH8Q9ISSsSSQQ9xWFk7gfGhqSnTt3yunTpy23Ueoe93q1vcJJ1OvL6CLdSbwbsau4V+Lfy/HZtfcBAAAQKX2rnLSMy6rRuodkbNXKHJGlhH6mPc5LTTK29LHxdjpLH/M8SS0hpARB3Bf8PNlV3J9raTGVhk4V+YSQwgZxTwgJaxIJxH1F4STu3VDqivtYLJYj5EVyZbrZvtRktB9++GFWtb2Is7jXW+jox+BF/AMAAHglDOJ+7AffktG6h0SS/ZI+2iZjzzyZ6W8/9lLTeMW9obo+fbRN0kfbSi/ZCCHugrgv+HlS4l6vqHfbKocQUvwg7gkhYU0igbivKJqbm2XatGly8OBBGRwc9JW6ujrf4h4AAAD8UWpxP7qtSUbvmpYR8WMvNeVMOju29LGM2Jdkv4zeN3e8rQ7ynpDyCOK+4OfJruK+Px6Xy/Pm5VTeI+4JKW0Q94SQsCaRQNxXFM3NzTJlyhSZMWOG1NbW+kp1dTXiHgAAoMiUUtyPbmuSkalTZeQf7xiX8d9/xHQS2rHGdTL61XvG//+ZJ2Xk9mpa5BBSTkHcF/w8OU1Oe3HDBrlRXS0Xtm41fZ8QUvwg7gkhYU0igbivKDo7O2X9+vV5Z+/evaU+FAAAgAlFySvuvzFLxn7wLVuZld6zS0amTkXaE1KuQdwX/Dw5iftEIiGpWbPk6ty5lu8TQoobxD0hJKxJJBD3AAAAACWn1OI+LeZiTm+DM3LXnTnSPr1nl2mFPiEkZEHcF/w8uRH3ybVrqbgnJERB3BNCwppEAnEPAAAAUHLCIO7Tzy6WscZ1mV72Y0sfywj59NE2Gb1vrqm4V5PXlly2EULsg7gv+HlyI+71IO4JKW0Q94SQsCaRQNwDAAAAlJyS9rj/1lwZmTpVRu+aJmPPPCnpPbuyJNbYqpUyctedMrb0sZt/vr06I+tH75uLuCekHIK4L/h5UuJ+eMmSTBD3hIQ7iHtCSFiTSCDuAQAAAEpOKcX92FuvyOi2phwxN7Zq5biUX7Uyp2XO2Kr/x97d+zaSJ2ie/6Nk1ALtFNooFLblXgGHQ6WAGyywxo2Mwnlyeq08ozEN8Ly9Km+B3AWmDQptVVkDZJVV1Cvfgi8RDL6FRIkKkZJIUSL1nBH8RZIUXyVKpFTfL/ABZjJTJMXMxkw/DP3i78HYv/1/BefeM9wD64/h/sXfJ664B94ehnsA66pSYbgnIiIiWnnrcFTO4DDX+1//49GV96N6/+t/qPv9/xEM9//v31c/tgGYjuH+xd+n3v/zf6vzn//z0Ch4+W//NnU0ZLgHVovhHsC6qlQY7omIiIhW3toM90/w8N//mx7++3978tcDeD1P/S+Oq37db+V9eviff5v92P/zb+r+l/9d3Q//m7p/+Ub3/+k/zfV1AF7Oqsc5ABiH4Z6IiIhoDVqH4R4A8Lq6//X/VO//+/vKXwcAAFg/DPdEREREaxDDPQAAAADAYLgnIiIiWoMY7gEAAAAABsM9ERER0RrEcA8AAAAAMBjuiYiIiNYghnsAAAAAgMFwT0RERLQGMdwDAAAAAAyGeyIiIqI1iOEeAAAAAGAw3BMRERGtQQz3AAAAAACD4Z6IiIhoDWK4BwAAAAAYDPdEREREaxDDPQAAAADAYLgnIiIiWoMY7gEAAAAABsM9rXW2bWtzc1OxWCz8tUgkop2dHbXb7Wc9jiT5vq/t7W3Ztr3wa4vFYtrc3HzS1xIREY3GcA8AAAAAMBju31n7+/v661//+mz//Oc/n/T80WhUGxsbTxKNRsc+3tbWlnzflxQM7VtbW2P/7KzXNfg4g0UikYm/N+sxF/0AgYiIaFIM9wAAAAAAg+H+nbW7u6s//elP+uGHH5482v/lL3/Rx48fl/q62u22dnZ2Fhq6zddEIpHw12Kx2MIju3mcT58+aWdn50kfJpjHWORrn/JhABER/XFjuAcAAAAAGAz376zd3V19++23yuVyT36MH374YS2Ge9u29eHDh/AomkXG88Er8p8y9k96/fNe6b+M5yQioj9WDPcAAAAAAIPh/p31nob70aNoBsfw0VF/1vMOXrX/nNfPFfdERPRSMdwDAAAAAAyG+3fWrOH+9PRUf/vb37S/vz/xMdZhuDdn2Zs/P3q2/bzDfSwW08bGRjjcP/Wqfa64JyKil47hHgAAAABgMNy/s2YN97lcTt9++612d3cnPsY6DPfmJrfmz0cikaGvnWe4HxzpueKeiIjWPYZ7AAAAAIDBcP/Oeg/Dvbm6/l//9V+1s7Mj3/f18ePHoZHetm1tbm6OHczNc5ijdj5+/Li04Z4r7omI6KViuAcAAAAAGAz376z3MNxHIhFFIpFHZ9wPNuuKe3OVvu/74eMNvo6nHpXDFfdERPRSMdwDAAAAAAyG+3fW6HCfy+X017/+NfTDDz/oT3/6k/7lX/5l6Nf/4z/+I3yMVQ73g4P7c4b7wQaH++e+fq64JyKil4rhHgAAAABgMNy/s976cD/YOg330x573jGfiIhoWgz3AAAAAACD4f6d9R6OyjG91HAfiUTmOuomFosNvXbzkwBbW1vh75mz9sd9MBCJRMI/R0RENCuGewAAAACAwXD/zvojDfeTbk67ubk5NOiPG+6nXYE/Os7HYrHwMUd/z/z57e3t8DnN4w9+HRER0awY7gEAAAAABsP9O+uPNNw/54r7eYf7wavtR39vXKNn4UejUc66JyKiuWK4BwAAAAAYDPfvrFnD/enpqf72t79pf39/4mMw3H8Z52Ox2NCxOeb3Jp1rP+51cWQOERHNE8M9AAAAAMBguH9nzRru5+mpw300Gp3r7PhpBgfxdTnjfjQz5s/zPRAREc0bwz0AAAAAwGC4f2etcrhfdutwxT0REdFrxXAPAAAAADAY7t9Zu7u7+tOf/qQffvhBf/3rX5/kL3/5y1oM90RERH+kGO4BAAAAAAbD/Ttrf3//yYP9oH/+85+r/laIiIj+UDHcAwAAAAAMhnsiIiKiNYjhHgAAAABgMNwTERERrUEM9wAAAAAAg+GeiIiIaA1iuAcAAAAAGAz3RERERGsQwz0AAAAAwGC4JyIiIlqDGO4BAAAAAAbDPREREdEaxHAPAAAAADAY7omIiIjWIIZ7AAAAAIDBcE9ERES0BjHcAwAAAAAMhnsiIiKiNYjhHgAAAABgMNwTERERrUEM9wAAAAAAg+GeiIiIaA1iuAcAAAAAGAz3RERERGsQwz0AAAAAwGC4JyIiIlqDGO4BAAAAAAbDPREREdEaxHAPAAAAADAY7omIiIjWIIZ7AAAAAIDBcE9ERES0BjHcAwAAAAAMhnsiIiKiNYjhHgAAAABgMNzTixWJRLSzs6N2uy1Jsm1b29vb8n3/1V+Lbdva3NxULBYb+nXf97W9vS3bthd+zFgsps3NzSd9LRER0WgM9wAAAAAAg+H+nZXJZPTjjz8+26+//vqs1xGLxbS1tfVopI9EImN/fbB2u62dnR1tbGw8STQaffSY0Wh04vPO85rGFY1Ghz6YICIiek4M9wAAAAAAg+H+nbW7u6uvvvpK3333nb7//vsn+frrr/Xx48cnvwZzdfuig7sZz81wP26An9akrzO//unTp4U/EDCP9ZQPE57yYQAREf1xY7gHAAAAABgM9++s3d1dffPNNzo4OFCj0XiS7e3tJw/3vu9ra2tLGxsbY4+l2draevTro80z3I97rElfN+nq/0Va9MOEZTwnERH9sWK4BwAAAAAYDPfvrN3dXX377bfK5XJPfowffvjhScO9Gbd/+umncLxfhBnhlzncm1+LRCILfz/jvjeuuCciopeK4R4AAAAAYDDcv7NmDffNZlM///yzisUy7O98AAAgAElEQVTixMd46nAfiUQUiUQmXln/lCvuI5HI3EP5x48fHw33sVhMGxsb4XC/yAA/7gMArrgnIqKXiuEeAAAAAGAw3L+zZg33uVxO3377rXZ3dyc+xlOHe9PgcTkvccX9pON4Rr9ucKTninsiIlr3GO4BAAAAAAbD/TtrnYb7lzrjPhKJ6Jdffpl5VE40GtXOzo4+fvy4tOGeK+6JiOilYrgHAAAAABgM9++sdRruF73ifnNzU7ZtTx3Jpx3HM/h17XY7/HPmawb/zFOPyuGKeyIieqkY7gEAAAAABsP9O2t0uPd9X7/99lvoH//4h/785z/r73//+9Cvl8vl8DFe6or7eZs03EciEe3s7Kjdbs99c1rzdVxxT0RE6x7DPQAAAADAYLh/Z40O97/99ttcV4f/+OOP4WM8d7iflDm6pt1uT/1zk86qH/za1x7uJxWJROYe84mIiKbFcA8AAAAAMBju31nrcMX9pJ4y3Nu2rc3NzUfD+3OG+0gk8qSb5Y47omfS6zPP89SfOiAioj9eDPcAAAAAAIPh/p21yjPuzYi96Nn2o2O5Gco/fvyozc3NseN3LBYLz8Q3LTLcT7sCf3ScH3yucR8Y+L6v7e3t8LWYxx/3GomIiCbFcA8AAAAAMBju31nrcHPa0aLRqDY3N/Xx40d9+PBBm5ubU4+XmTTAx2KxiTePnfZ1zxnuB6+2H/29eV57NBrlrHsiIporhnsAAAAAgMFw/85ap+F+9BiZwaNyzJg/7mr0RW8EO+vrnjPcmw8LzFBvfm/Sa7NtWx8+fBj6vjgyh4iI5onhHgAAAABgMNy/s2YN981mUz///LOKxeLEx3jucG/G7tHz7EfPuDdD++jV84O//hTLPuN+0vc37/MTERHNE8M9AAAAAMBguH9nzRru5+mpw70ZxCddzT7t5rTRaDQc+33fX5sr7omIiF4rhnsAAAAAgMFw/87a3d3VN998o4ODAzUajSfZ3t5e6hn3RERENDuGewAAAACAwXD/ztrd3dVXX32l7777Tt9///2TfP311wz3RERErxzDPQAAAADAYLh/Z2UyGf3444/P9uuvv676WyEiIvpDxXAPAAAAADAY7omIiIjWIIZ7AAAAAIDBcE9ERES0BjHcAwAAAAAMhnsiIiKiNYjhHgAAAABgMNwTERERrUEM9wAAAAAAg+GeiIiIaA1iuAcAAAAAGAz3RERERGsQwz0AAAAAwGC4JyIiIlqDGO4BAAAAAAbDPREREdEaxHAPAAAAADAY7omIiIjWIIZ7AAAAAIDBcE9ERES0BjHcAwAAAAAMhnsiIiKiNYjhHgAAAABgMNwTERERrUEM9wAAAAAAg+F+jWs2m/I8T47jyLIsJZNJYIhlWXIcR57nqdlsrvqfLBERPSOGewB4u3oPVd12yqpf2Go0Cy/yHJ27shrNghrNgjp35al/ttUu6fw8r1a7pG6vOvdz3N4Gz3Hh27q7f/x/K9q3JV34jm5aRd13F/+/Jb0HT61WUZcNR41mQb2H6X+20SzosuGo1SpO/bOD7u4ruvCDv4fb2+nv0zJcXbtqNAvh+9x78HTbKeu0ltPVtfuk9+k19B6qql/Yumw4upvx7yn8d9Uqqn5hq35h6/a2pLv7im5vS+o9zP9vDAAwP4b7NavX66lWq8myLLmuq3q9rlarpW63u+qXRmtYt9tVq9VSvV6X67qyLEu1Wk29Xm/VL42IiBaM4R4A3q5ur6rrG1e2k1S1mhn6vftuRTetoq6uXTWvpru+Keq2Ux47hDavXBWLaZXLlhrNgu7uK0PMQHzfrejsPK9sNi7fd9TuD6yjf3bSc1S9jApuSu3b0tDv9R6quvAd2XZS/qUz88ODccxjlCuWqtXM1MG391BVtZpRuWLpwnfmHofbtyUV3JSqXkbNK3fo9+7uK2peufIvHV349kTzfDDRewg+TKlWMyqVLd3dV9R7CJ7D9x2lUkc6r+fVuVvs/+YG/5aCDzemvcZ5NZqFR3+X5nlsO6ly2VKrPd8HI/6lI6eQlOMk1bxydXXl6rSWU+euPPcHKwCA+THcr1G+78uyLHmep06ns+qXQ2+wTqcjz/NkWZZ831/1yyEiogViuAeAt+u+W1HzqqB0+kiumxr6vZtWUcViWtlcXFbmeCqnkFS9/vhq996Dp7PzvI6PD5TJHMs7yery0hlyde2q9+Dp6spVoZDSweGeTk6zuvCdR3+2eVXoD83DY/jlpSO3mFYmG1erVRz6vc5dRdVqRoeH+7q4sHXbKavbq040bmjvPVR1dp6XU0jKLaaHfhqg9+ANff3dfUUFNyXbSapWy+n+vjLy+OP/LlqtojLZuNxiWpeXztDvNa9cpdPHOjjY095ebKzff/9dxWJaNyPf/+O/8+CKdcs6VjYb74/Xweherlg6PNxT/cIOX+skDyPfR+euLNtO6uhoX7HY+Ne4iGTySKenuUevv9urKpU+kuMkdX3zZbif9lrrdVvZbFyWdazLhqPT05wSiUM1m4W1/ckCAHjLGO7XJM/zZNu2Wq3Wql8KvYNarZZs25bneat+KURENGcM9wDwdk0b7tu3JZ2e5lSuWCqV0lN5XlaNxuMR9PomGP/39mLa39/T0fG+4onDIbadVLdX1clJVsnUkWKxmI6PDxSPHzz6s9lcXM2rx88zbbi/bBRk20nt78eUyydUcFNyi+mJ6hf2o/dp0nB/d1/RZcNRNhdXKn0USB3p8HBfBwd7Oj4+UCp1FP5eNhcPjngZc5zPrOHeso5l28ngKJv+VeNG/cLW4eH+XMN9564it/+BTGXgpwfO67YymbhSqSPVznK6vgl+kmKSVruk++6XDyLMcJ/JHMtxkjo9zT7LeT2vm5vH38u44b59W5r6Wk9rOeXyifB7OznJyrKOVa5YY/89AQCeh+F+DSqXyyqXy6t+GfQO498WEdHbieEeAN6ebq+qzl1wFE79wlYydSTbTuq2U9Ztp6z7bjU4Kuem2D8OpzDV9bX76Kic3kNVJ6fZ4Ip961ilclr5fEKJ5KGOjw/kuilVKpZOT3O6aRVl20lZ1rGKpbQqFUuZTFzHxwdKJg/lFoNfO63l1L4thVevd+6C13t2npfjJPtXVBfUuavovhv8mUo1I8s6VjodfI9OYbrz83z4PXQ6ZV3fFNVoFlQqW8pk48rl4rpsFHR9ExwjdF7P6/BwX6lUMCbbdlLx+EEw2qePZDvJ8LUlkoeq1+2h43ru7iu67ZR12SjIsoLR++w83/97CH66YHC4PznNPnr/6/X5hvv7blVXV244fPv9Dwg6d+X+1fb7OjraVzYbl9N/3ZOUy5ZuWkV1u9XwMWw7KdtJ6vQ0F/5bmkdwDwJbF76jqytX7duSOnflsYP6uOH+9DQ79bVmMseKxw90eLivTDauTOY4/LdVqWR0fT39ww4AwGIY7lec53kMq/SilctlrrwnInoDMdwDwNvTagc3a/VOsiqW0jo+PlA6fRRe7Tzrqu1Zur2qWu2S8vmEMtm4amc53XcrwZXxbkrp9FE4ut7dV3RxERxlUiylwzPXz87zyucTyuUSuhlzk9f2bUn1C1u1Wk4FN6V0+liJxKHK5eBseXO1dS6XUDYb18lpVmdnedXO8jo9zck7yap2ltPZeX7I1fWX8+WbzUL4HpnxN5E4VLGYlneS1XndDof7ctkKx/y8nQiuaK9YuroOrlw/Oc0qk4nr4uLLcN97CJ7j7DyvctlSInGodPpYBTel2llOzStXd/cVXV+74XvhuilVqpkhpVJa8cShKtWMWu3H58IP/r17J1nF4weqVDNq35bUe/B02XCUtxPhBxAHB3vaP9hTInE49BMDg2w7OXQTWzPcF9xU+FML992K2rel/vOMP+vf/BuoehmdnGaHjr+Z9G9rdLgvl62xr9FIJA51eLiv/f3+9zTwe6VS+sVuzAwAf1QM9yvM933Ztv0ij23btjY3NxWNRl/k8ZdZu93Wzs7OxNdq27Y+fPjwYu/VHyHbtjnznohozWO4B4C3pfdQ1fl5XplMXHt7McViwfnosdjv4fnitbPHZ4sv4rYTXMGdSBzKdVPhGH/bKck7yWh/f69/tE5V7duSarXg+JLLxpcBtdUuqVKxtL+/J993dN8dHn79S0dp61j7+3uKxWKKxX7viymTiatcsfpHt8TlnWTVewjOr7+7q4RXypvz3Yd9eY76hS2nEFwtH1yxvafDo/3gyvhCcPW7Ge5Pa7nwvHvXTQVXzp/lw7PiL3xHuVxCF/6X4b7bq6pYSiseP3j0PRwe7qtUssIb/9bOcqp6mUejvVGuWLpsFMYew2Nc+LbS6WPl84nwvTavwbKCDwzu7ivKZuPKZuPhzYQn3w/gy2OPDvfBBwIFFYtpFQop3d1Vxg7y993g7yOZPJRTSD5puJ92z4Jurxq+DvMTGdO+DwDA8zHcr6heryfLsl7sTPtoNKrNzc2Fxm7f97W1taWNjY2FbW1tPXkYXtZwv8yB37wXOzs7arfb4a9Ho9GF3pdxfwexWEwbGxuKxWLPfp3z1mq1ZFmWer3eqz0nEREtFsM9ALw9t52ymleuzs7yKrgpHR3tB1eD+7YufFs3rWAsvmkV59ZqFdW569/4tVvV9bWr8/O8Gs1COIyaK/HP67YazYJOTrLKZuNKJA+Vyyd0dp4Pz4/v9qrhlermyvDB76FzV1azWZDvOypXLGWzcSWTh8GYfp5XuWIpHg+O5Lnw7fAon9tOWfULWwU3pfbtl6vTx92ctnP35aiccnhUTkKN5uOjcgqFYLA+r+eVyRwrbR3LdVM6r9uqX9gqldJKp49UH7ni/qZV1GWjoJPTrJLJQ2WzwYcOfv/GvTet4Hn8Syf4+7mw5V864evyfUcXF8GvN5oF3dwUdds/Tmjw/bq6cuX2/65dN6Wr6+Bq/stLR+n0kfL54EOF3kM1+CmFXFxX1+6jx5lk3BX3wYcvGaXM418MHxP0oOD7Nz+F4Z1kJ5437186wc2Ss3EdHOzpqP8BSq5/34PO3eN/r61WUXf3FTUaBZVKaVmZYzWv3KGfBOB8ewBYPob7FVWr1ZZyfIkZvZ8yto+Oy2asXnRQjsViQ8N9JBIZ+zyTHncZw715zs+fPz/7ynLzPkQikUe/t8gHIrFYbOKfnfZ7L5XnearVaq/2fEREtFgM9wDwdrVvS+FROY6T1H3/yvhgXM+rWEzPrVQKbuxqxnBzjv7gMHrfDc7VP6/b4RXxuVxwnnoul3h0REy3V310dv44ozenvWn1j6bJBjdgrZ3ldH6e1323ola7pNNaTpZ1HI7jF77dPzveHXvF+qSb03buyuFwn+0/V6ViKZk6DD6MyCVUqQRXxOfthJLJw6HhftDozWnNhwxnZ8ExOt5JVt5JVpVqRicnWbXawVFBJydZVb2MvJOsqtWMqv3v98uHA9UvPwGRPNTh4Z6KpXRwhM+1K8dJKpE8VLli6bYTfM2yhvv7blWXjWBwTyaDGxHXznLh0Tl39xWd1/OKxw/kFJJDP3ExyvcducWUstm49vvDfdo6VjYbfODkXzrB+zTwXpQrlq6uXF34ztBwf3tb0sWFrbOz3NSjhQAAT8Nwv6Isy1Kn03mRx37K1faSljrcD47esx73OcO9uQJ+3Mj+1CKRyKMr7QefbxnDvfmel/m6Z9XpdGRZ1qs9HxERLRbDPQC8Xdc3RSVTR9rfjynTPxql26uq0QyOFjk+PggdHe/r8HBfe3sx7e/vDf3e8fGB4vEDlcvW0BnxDwquKr/vBjeSbTQLqnoZWZnj8KazjWZB992KvJOsrMxxeLyOf+mENyhddLhv35bkXzo6P8/LO8mqUEgpn0+ofVvS1bWrajUTjNVlS6X++fV7ezFVJ5wRP264N4O4Ge7z+YROT4Mjf9LpI6X6N/w9Oc3q9DSnQiGlVOpo7uG+2wtuJJvNxnV0tB/c+NVOKpU6Ujp9FN4vwLKOlcnElbcTSlvB+2rehwd56txVdHaeVzp9pP2D4O+tVErrslFQ7Syng4M95XKJ8Ea1DwqGe8s61sWFHb6fg4K/l+G/k3HDvXnvWu2SyhVLyeShrMyxav2bDF82CnKLaR0e7unsLK9O5/H7Mvj4N63gpwwSieAnE87P87rq3zy5XLZ0dLSvXC7RPyLpWEdH+6rVgvsYDA73V9euSqW0bCepxpQPCwAAT8Nwv4KazaZc132Rx550tfg8o/zg1w5+vTkvf/RrzTD96dOnuYb7X375Za6jeEaP3Rk33Jsr7Jc9fE/6Xk3LGu7n+f2XyHVdNZvNV3s+IiKaP4Z7AHib7rtV+ZeO9vf39Pvvv2t/f09W5litdnB8yN1dZWisvbkpql63wyunR8fc9m0pvEp+8HluO2Vd+MHRNMlUcKNQx0nq8tLRbaccnjF+d19R86qgSsUKboiaOlLeToQj77TxfnS47/aCq7nvuxWd1205hZSszLHOzvIq9W9kurcXUzJ5pEIhpVIprUT/mJ15h/tWu6Tm1Zejck76x7x07soqFFKy7aROaznd3X15HdlcfOxxMQ8aP9w3mgVlsnFlMnF17srq3JV1cppV3k7oshEM924xLf/SUfs2+CmJQiE1NNxf3xTDoTuXi8vKHKtctlQuW8rlgxvSXlzYQz9pkMsltLcXnLM/+gHN8fGBbDupiwv70bFC44Z78/7d3QcfIOTyCR0fH6jgppTJHCuVCv4OWmNuQDz8GJ56/b9X86GI+YmAm1ZRnpdRLpfQ9U1wZNOF78iyjsObDg8O9xe+o0wmuHnw9c3zbsQMAHiM4X4FeZ4313+pfkqThuVFhvvPnz9rZ2cn/LPRaFQ7Ozv69OnT0FXx5sr0z58/v9oV9+YK+5c6H958r+Outje/v6zh3rwvr3kD4Xq9vpQjmoiIaPkx3APA23R97apSsYauxM7byfCqeXOj1lb/vHszrKfTR3LdVHDF+W0pPA9/8LHvu5Xg3Pb+1e6ZTLx/HnlCxWJatbOcrq5ctdqlIVfXruoXtqrVTHjVdCYTl20nValYql/YY89vv7x0gg8G+lfRn53nw2NwSuXgg4Cjo+Cq+LydCK/sPznJqtEshCPvaW380SlmuM/ngyvRvZOsXDelSjUTDveVqqVWO3g/bCepXD6hqpcJzlpvBzfgzWZnD/e5fHBkUKVi6eQ0uHo/kQg+VDCjfSZzHA735j31wvf6eGi4b9+W5BRSOq/ndXISHB9ULluqneVUO8upXLEe3UMgl0uE/x7cYurRsUintZyur92pN6cd92/utlMOxvtcXInEoQ4P95XJHIc/dTHPv9txN6e9aRXlnWRl28nwvW1eucpkgqvyz+vBcUNW/307reWUSEw+tggA8DwM9yvIcZwXuSnttCF4keE+FouFx994nheO6oMD+rg/u4qjcpbZrNchLXe4lx6/Vy9dq9WS4ziv9nxERDR/DPcA8PaYITqXS6hUTus4fqBM5li1s5wymbhOT3PhkSjeSVa+7+jubni4N1eEn9Zyj4Zac2W43R+Zs9m48vlEeHV7pZqZybaTymbjcgrJ8DiYUjmtm/4V9eb8+9bAefaHh3tKp49VKlmq1XKqVDLKZuOKx4MrxQuFlMplS647fFX6TauoTObxcG+e4/qmqHLFUjp9rHj8QLl8Qvl8QtVqRhcXdvhTBKe1nE5PgyN/zE8MnJ5mdVrLqdj/iYAL3xkaizt3lfC8+lTqSMlkcBROLh/8tEHBDc51d92UXDc48sdxkvIvHVWrGRUKKTlOMJjbdkK2nVCplNZt/14D5kOUzl1Fvu+Ew32zWQjev3bx0Qch5qicet3W9c3jGxHfdsqPhvZ5hvveQzCoFwopHRzsaW8vpkwmrqsr99HRO5NMHO69jHL5hG76N6T1L79ccX/h26p6GSWTh6rVgg8rEolDXd88/t4BAM/HcL+CLMtSt9td+uNGIpFHx8yYFh3uzeMN3rxWGr763lyZvsjNaX3f1/b29tCYvS7D/axjcqTlD/ezrvBfdt1ul3PuiYjWNIZ7AHh7bjvl8Ep0Mxi7bkqdu7IcJ6lS2dJ5/6r1ROJQlWpG993Hw73vO8EV4oXk0OPf3VdUv7BVO8ur0QgG4tNaTul0cJb8vPL5hHoPVTWvXJ3Wcjo5zequfwPd9m0pPAIlbR3p4DAYgnO5uM7reTWaBVnWcchcjW1uTjs63KdSR4+Oymm1ijo7z8vtX81/eLinROJQ1WpwJX2nE5zbb9vJ4Eib/rE25mryo6N9ZTJffj2fT6jRLITH0vQevOCmqhVL2WxcB/2brubtRDjwm3PdB102HNUvbF1eOo9+r3lV0M2EQXpwuJ92RMyybk476v6+orOzfPj+mPfTKSR10yrOvJfBgyYP91Uvo0wm+LDhsuHo5CSrVOpIZ+fBv4XT06z29mJynGT4kwpcbQ8AL4PhfgUlk8mlP2YsFtPGxkY4ApsjZWYZHJZHh3szZI+7en7wuJpFrrj3fV8fP34cGqvHDffmuef5HiZZ9AiaeT4gmPd9Hff+Tnq8SR+2vFQv8e+PiIieH8M9ALwtvYeqPC8jx0mq2D9PfXCMv7p2w2NrKv1B+ew8/2i47z0EHwA4TjBatweOsDFnmnf657t3e1W1b0u6vinq6srV1ZWrRjO4Oap3ktVlwwluGjqgfmHrwrd1d1fpP1Zwxrs5nsX3HaWt40D/ZrCp9JH8Syc83/6mfzW+4ySnDvdX164ODvdU9YZvTmuu5DdH5KRSR7KdZPi99h6quu8GV8y3WkW1WkXd3BRVrWbCm6Re3wS/ftE/AqjV/vI+dXtVlSuW8vlEeDPVXC6hs/N8+D1f3zwe7s/OgqNeSuXg+KDH47079uiZVQ335u+/3P+wKB4/0MlpVufnwRE2x8cHyuUSql/YM59v3HDfvi3p5DQryzpW3k6ERxVZmWPVL+zgg5/+cB+PH4T3Tpj3eB4AwGIY7lfQsofTwTF90tXbT7nifvTDANPoVeeLHpUzeqTPU664f4nBe97hftlX3DPcExGRxHAPAG9Nt1cNj6zx+1dsmzH+QcFNa81V7pZ1LNdNqdEoPBruHxQM9KVSWpZ1rPP+2Dz6fL2HYNT1vOA8+cFxv163VSylxw7N9Qtblar16MapxvVNUZ4XHENTLvfH74ExfvBxgmNkRob7TFz1C1u+76hUtrS/H9NpLafO3Zfnumw4wcBcz6tYSiuXS4Q3p530/vYeqqpf2AMfFgRH1ZQrlmwnqevrL8fC9B6C8/nN+fPJ1JEKbmro5rSVavAhy6BMNq5Y7Hclk4fK5RKPfr/gptS+fXxW/yLDfSp9pNNaTpeN4Cr+QTf9G8AOfs244b73ENzE97we/NRCcJ+DuE5Ogp9s6NyV1WwWwp9oMDctnnaTWjPcZ7Px8Kcwrq9dXV274Y1ojfN6Xq12KbhB8oWtvb2Y9vf35DhJ3dwU1eOYHAB4EQz3K2jZR+WYm8QOHl8z2qLDvRnTd3Z2hkb2wQ8JzDj/lDPuY7FY+FqfMty/xI1d/wjDPUflEBGtbwz3APC2mKu8z+t5de4ej/EP8tTtVnVez+vgcC8cWccN9w/ydHqaUy6XmDgW9x48tdql4MaxFWvoivbT/s1XPS879LXdXlXFUlrp9JFOTrJjjzTpPXjhgH556cjtnyE//3B/rJPTbHhMTdo6lu87uu9WwuG491ANr6w/O8/LKSTnGO49NRoFOU5SqfRR+PyWdfzoqJxB5ua0bv+nIO67VV1c2HIKKaX6P1FwcLAXHDFztK/ff/+9f9zMfnglebL/UweWdayb1uNhfpHhPh4P7glQqViP7j9wdp4Pr3Y3XzM63PceqsGHKydZZbPx4Ga3+YTO6/mh96/bq4Y39E2nj1QopHR7W370Hnd71fDooGTyUInEoXK5uFKpIzWahYH3P/gpCPN3bc7jb1652tuL6ehoX5WKFf69TvuQAADwNAz3K2iZN6e1bVvb29vyfX/qeemLDveDg/Lo/7yzs6NEIhGeB7+qm9POM4wv0h/hjHtuTktEtL4x3APA22LOBP8yaD4e46+vXZVKaR0e7qvRCK6Sn/RnG41Cf2QfPxY/KLgBa7GUDm/gan7dv3RUKAQ3XL26dvuvr6pWu9g/Piau9pgRd9SThvtscFNUc4a8OR6o1Xp8Pvyiw/31jSvHSSoWi4U3zDUfQNx2yuqOuRHr6HBvntfciPfuvhIM44WUSmVLsVhMxVJaBTelePxA9Qs7eOye+bDh8Wt7reH+vG6rc1cOz+1PJA6DY4hapbHn2PcegvG+UEjq+Dg4Rqd9O/xhzU2rqNpZTk4hqcP+/QwSiUOVy18+DAp+uqOiRrOgk5OsbDupSsUKjhBqFMIz7huNQvhnuTktACwfw/0K8jxvrv9SvWjLGu4/ffqkzc3NR0fZ/PLLL0M3ljVX+n/+/Hklw715rmVdsT7PVfzLHu5H36uXrl6vy/O8V3s+IiKaP4Z7AHh7zLg7+Sr6rDKZY2Vz8XCMn/RnW+2SqtWMDg/31bwqjB1m77sVndfzyucT4Vn6D/pyU9Gjo/1wrL7vVnR6mlUuF585khuLDPedu7IajYI8LxOO6Hf3wYBbqViqVCy12sM3Sp1nuL/tlMOboubzCR0fH+jgYE/ZbFzn53m1b4OjYYqltM7P87rtDA/T44Z789w3N8XgqB07qdpZThd+cOxLpf+TE5WKpVw+odpZ7tHjDlpkuLes4Hz4m1YxOMN/gPnQZ/BrRq+47/aqOj/Pq1bLyb90hu6BMOnf5GXD0WktN3QfAOO8npdtJ5XNxlUopHRympXvO7q4sFU7y6lSseQ4we+b44Mq1Yz8/lFEhUJKsVhMtp3UZf/op/PzvOp1e+p7AQBYHMP9Cmo2m3Jdd+mPu6zhftJZ+eMG+e3tbX369OnRcD/uRq0vMdybr13WeG8+jJh0Bfwyh/uXOO5nVq7rqtlsvtrzERHR/DHcA8DbNUMJOHEAAB/lSURBVO6Gs527igpuSun0kWpnufCYmknD/X23orOznPb393R+nh86I94wZ51XqhlVKlb/HH1Pd/cVNRoF2XZCV1fBjVDb7VJ4Y9ez8/xc38ciw323V9Vtp6zraze88t0cu5PLJ5S3E7ppzR7ubztlXV278i8dnZ0H47lTSCpvJ5TLBeftW5ljZbNxNfvfW6tVVCJ5qGo1M3O4N38Xlw1HlWpG2WxcnpcJb/C7txdTpZrR1XVwM1+7f779yUlW1zfFoSN/jNe4Oa3jJFWr5cL35/qmGH5oMctNq6ira1e3neB/v7uvhH8Pl42CvJOsTk+zajQK6gz8xEilYsm2E8rng383pVJatVpOjWZBF76jYimtZOpIydSRsrm4zs7y6tyVVSikVO5fkb/q/ywCwHvCcL+iLMtSp9NZ6mMu86iccb+3s7Mzdhx/7lE5swbsccN9JBIZ+vPmw4Jp3988zTrnfpnD/bKP+plVp9PhfHsiojWO4R4A3q7RMb7bC67uLhRScpz+0N2t6r4bDNX+paNUani4f1BwXE4icaiT02x4bIk5k7x9WwpdXNg6O8/rplVUux382k2rKP/SCUbea1f1C1uHh/vhjUrN1952ykNnw5uxPbia31ahkFI2Fx86Q/9Bni4ugt/L5RK67t9UdVT7NhiZLetYjpPsD8Zfjqq5u6vo9DQn2/4y3PuXwU1ts9m44vEDHR8fBO9NMaV63ZZ/GVx9H48fqHaW0/VNURe+rXj8QKe1XDiIB99DVVfhzYCDmwbfd4PncJyk0taxisV0+IHC4HBvrk6/bBSUzyeUSh2pXLZ0c/P4yJ/XGO6z2bjcYkrn9fyzNfv3A+g9eOr1f0pk8Dm73aqur12dnGblnWT7V/aXdd8N/mz7tqRSKa20dSzLCo4rsqxjucWUrq7dL+/VhCOeAABPw3C/omq12tKPLDHD/adPn8Ze8T6JGY/nGffHNTrcz8pcJT/4GqZd5W7G9F9++UWbm5va2NgYO/LHYjFtbGw8++r7acfXRKPRJ723k96D1zwmx/M81Wq1V3s+IiJaLIZ7AHi7xl1Fb64mb9+WwrPHL3xbnpeR4yQVjx+oWEwPPc5tpxyesd57qIaDqjkyxjA3Uz063h/69aOj/dDh4b5isd+1v7+no6Mvfy5tHatSzYTjrfkgoVbLKZuLK5k8lFNIPrpBrrlR7MHBXngl/6hcLqFE4lBHR/sqldPhleq3tyVdXjo6Oc0ql0sobR0PDffl/lX2VS84kqXVLqlzVwmHYzMOp/o3jU2ngyu+LxvmDPvgfgL1uq1S2dLhUfCBhe8Hj5XNxcPjce7uvlx9Pjrcm7+35pWrSsVSMnk49jie1xjuj48PtL+/F/5dP4fjJHU95gOIQd1eVff3lfC4I3Nz2stLJ7gpbv+sfvMhgOMkFU8EH7IcH+/r7Cw39ngnAMDTMdyvqF6vJ8uylnaTWun5Nzqdd7gfN7y/5HEv5qaxGxsbcw3dZsB/6ig+7Sa1y7ri/rWvtm+1WrIsS71e71Wej4iIFo/hHgDerm43GJfzdkKVSib89eBqc3Oj1WJ4FEyxmJZbTKt+YQ8/Tv/qejOAmqudT0+zKhbTS1GpZnRxYYfP0b4t6ews37+aPi7XTYVnlw++ts5dWfW6LccJbuxacMcoBEfpVL2Mmldu+LW3tyX5fnBUjeumVC5b4Wswx+00rwpqtUrhleGDz313X1G9bqtYTCuXiyuXT+i8/mVQ7z0EHyxUqpn+zXiPdXaWV7tdCr/2suE8+jDi+qaoZPJQp7Wcbgd+775bCf6+zoKfargfuQluo1mQU0jKO8lOvcrc7b8vs0bz0X8DjWZB5+d5ndZyS3F56ahz9/h9naX3UFXzqqC8nVDVy6jR/PLv4uLCluumlM3GVa5M/wADAPA0DPcrzPf9Vxtu33LRaHRpZ9jPmxn/X+IDCfPYzz3WZ5HMT1QQEdH6xnAPAG9Xt1fV7W1JtbPgBqLj/kz7tqRGs6D6ha36ha1GszD1BqiDj22OwlmG4Gr2L8/buSvr8tJR1cvo5DSry4YzcWQ2N6S96H8Poy4ugqNtzE8MmK+7uw+GcPPnmlfu0GuY9z1uXrk6O8/rrH8PADNED34wUq1mVDsLbsw6+AHIuNH6tlNWtRoM0oPHB5nHnPQ+tNolnZ3nddkoTP0+6nU7/IDhrV6Nftsp6+z88ffQuSur0Szo7CzX/3CD/98CAJaN4X7FeZ6ncrm86pdB77hyubz0Y5mIiGj5MdwDAAAAAAyG+zWoXC4z3tOLxL8tIqK3E8M9AAAAAMBguF+TPM+TbdtLPfOe/ri1Wi3Zts2V9kREbyiGewAAAACAwXC/Rvm+L8uy5HmeOp3Oql8OvcE6nY48z5NlWZxpT0T0xmK4BwAAAAAYDPdrVq/XU61Wk2VZcl1X9XpdrVZL3W531S+N1rBut6tWq6V6vS7XdWVZlmq1mnq93qpfGhERLRjDPQAAAADAYLhf45rNpjzPk+M4sixLyWQSGGJZlhzHked5ajabq/4nS0REz4jhHgAAAABgMNwTERERrUEM9wAAAAAAg+GeiIiIaA1iuAcAAAAAGAz3RERERGsQwz0AAAAAwGC4JyIiIlqDGO4BAAAAAAbDPREREdEaxHAPAAAAADAY7omIiIjWIIZ7AAAAAIDBcE9ERES0BjHcAwAAAAAMhvs1rtlsyvM8OY4jy7KUTCaBIZZlyXEceZ6nZrO56n+yRET0jBjuAQAAAAAGw/2a1ev1VKvVZFmWXNdVvV5Xq9VSt9td9UujNazb7arVaqler8t1XVmWpVqtpl6vt+qXRkREC8ZwDwAAAAAwGO7XKN/3ZVmWPM9Tp9NZ9cuhN1in05HnebIsS77vr/rlEBHRAjHcAwAAAAAMhvs1yfM82batVqu16pdC76BWqyXbtuV53qpfChERzRnDPQAAAADAYLhfg8rlssrl8qpfBr3D+LdFRPR2YrgHAAAAABgM9yvO8zyGVXrRyuUyV94TEb2BGO4BAAAAAAbD/QrzfV+2ba/6ZcxVNBpVJBJ50tft7Oyo3W4P/brv+9ra2lIsFnvS67FtW9vb25zjPme2bfNeERGteQz3AAAAAACD4X5F9Xo9WZa1tDPtbdvW5uamNjY2FrK1tTXXoBuNRrWxsbHw0D7PcP+UET4Wi8392p+SeX2jr928D/Pa3Nx89OFMLBZ70nv5nFqtlizLUq/Xe7XnJCKixWK4BwAAAAAYDPcrqlarLfX4Etu29eHDh0cjcbvd1s7OjqLR6KOvWWT8No8zboSf1jzDfSwW0/b29kJjdjQafbHh3ry2cT9hEI1Gx47x44rFYhP/7LTfe6k8z1OtVnu15yMiosViuAcAAAAAGAz3K8qyLHU6naU93rKGezNaL3rlvhm5zfOZ/32Ro3JG/2wkEln4dQwa9z3PUyQSmfgBxbKG+9H36TXqdDqyLOvVno+IiBaL4R4AAAAAYDDcr6BmsynXdZf6mMse7hc5xiUSiQwN0IPj9kuccW++1w8fPjx5nJ/22JubmxNf17KG+3l+/yVyXVfNZvPVno+IiOaP4R4AAAAAYDDcryDP8+b6L9WLtE7D/eBRM2a4//Tp08JX749r9Er10ed+bpM+aBj8/WUN9+Z9WvaHD9Oq1+tLPaKJiIiWF8M9AAAAAMBguF9BjuMs7aa0pmXdnHYZw7305Qz6n376aewQbl7vIqP1pONlFhnT53n8aa9pmcO9tPwPHmbVarXkOM6rPR8REc0fwz0AAAAAwGC4X0GWZanb7S71MdfpivvBJl3BHovFZl5dP+7P//TTT9ra2nr0us33ucgNbkebdUyO+X6WOdzPusJ/2XW7Xc65JyJa0xjuAQAAAAAGw/0KSiaTS3/Mdbk57WiThuloNDr2iv9xr3FjY+PRY5gr+sd9rbmp7aJXsk96D8e97nnNM9zPeg+W3Uv8+yMioufHcA8AAAAAMBjuV9A6D/fzjNejTbriftLobr7m48eP2tnZGXuFu7n6/TWPkZl3uF/2FfcM90REJDHcAwAAAAC+YLhfQet8VM5ThvtxxWKx8Ka0o8P94HE80Wh04XHe931tb2+PfY3RaPTJN3v9Iwz3HJVDRLS+MdwDAAAAAAyG+xX0EjenNVe3P/fmtOPG/EUbPB5n3FE5g2P1rLHc/FnP88IPIHzf1+fPn7WxsfFopP/8+fPCN701/RHOuOfmtERE6xvDPQAAAADAYLhfQZ7nzfVfqhdp0pXbi15x/9whefQxRx/PXG0/+HomHbUz+GfHfR+2bWt7e1u+7w89rxngFx3vx7220ZY93E+7se9LVK/X5Xneqz0fERHNH8M9AAAAAMBguF9BzWZTrusu9TEjkcjYwX2R4X7an31qo8P9uA8GJl3pPvhhxKzXNvq4T/3JgUnv4+DzLGu4n+eDgmXnuq6azearPR8REc0fwz0AAAAAwGC4X1GWZanT6SzlsaZdYb7IcL+s8+0HGxzUpw3Zoz8xMPo9me9j0tXpy7pyfZ6je5Y13M9zRf4y63Q6nG9PRLTGMdwDAAAAAAyG+xVVq9WWdmRJJBKZeHX5vMP9rGH8qZnh3pxJP+38+Gnfh3m9k87qX+YAPu1DgGg0utA9BCa9rpd6v6fleZ5qtdqrPR8RES0Wwz0AAAAAwGC4X1G9Xk+WZT37JrVmAJ40iI8O95FIZGhYNr8+eF78MhscumcdCWNe62verHVc025Su6wr7l/7avtWqyXLstTr9V7l+YiIaPEY7gEAAAAABsP9CjM3UqX1y1zd/xLnz5vHnvbTB8vOtu2lfyhDRETLjeEeAAAAAGAw3K84z/NULpdX/TLoHVcul5d2LBMREb1cDPcAAAAAAIPhfg0ql8uM9/Qi8W+LiOjtxHAPAAAAADAY7tckz/Nk2/azz7wnkoIz7W3b5kp7IqI3FMM9AAAAAMBguF+jfN+XZVnyPE+dTmfVL4feYJ1OR57nybIszrQnInpjMdwDAAAAAAyG+zWr1+upVqvJsiy5rqt6va5Wq6Vut7vql0ZrWLfbVavVUr1el+u6sixLtVpNvV5v1S+NiIgWjOEeAAAAAGAw3K9xzWZTnufJcRxZlqVkMgkMsSxLjuPI8zw1m81V/5MlIqJnxHAPAAAAADAY7omIiIjWIIZ7AAAAAIDBcE9ERES0BjHcAwAAAAAMhnsiIiKiNYjhHgAAAABgMNwTERERrUEM9wAAAAAAg+GeiIiIaA1iuAcAAAAAGAz3RERERGsQwz0AAAAAwGC4JyIiIlqDGO4BAAAAAAbD/RrXbDbleZ4cx5FlWUomk8DasixLjuPI8zw1m81V/8eHiOjNxXAPAAAAADAY7tesXq+nWq0my7Lkuq7q9bparZa63e6qXxrR1Lrdrlqtlur1ulzXlWVZqtVq6vV6q35pRERvIoZ7AAAAAIDBcL9G+b4vy7LkeZ46nc6qXw7Rs+p0OvI8T5Zlyff9Vb8cIqK1j+EeAAAAAGAw3K9JnufJtm21Wq1VvxSipdZqtWTbtjzPW/VLISJa6xjuAQAAAAAGw/0aVC6XVS6XV/0yiF40/p0TEU2P4R4AAAAAYDDcrzjP8xgzV1S73dbOzo5isdiqX8ofpnK5zJX3REQTYrgHAAAAABgM9yvM933Ztr3ql/GixWIxRSKRpTyWbdva3NwcGtqj0ai2traedIa6Ge53dnbUbreX8hppdrZtc+Y9EdGYGO4BAAAAAAbD/Yrq9XqyLGupZ9pHIhFtbGzMbXAA931fW1tbC339oHHjuXnMn376Se12W9FodObjTBvRlz3cS8EHC6PvxaTM8y/jvVm0SCSizc3NRx/0mNf/lL/zwe8pGo0+6/UtUqvVkmVZ6vV6r/acRERvIYZ7AAAAAIDBcL+iarXa0o8MiUQic13dbgb1RY6ImTQcz/qaZV7N/tThftFxe9IHCbZt68OHD4/eA3Pl/rjxOxaLPXu4j0QiEx8jFovN9fcy7e983Pv60nmep1qt9mrPR0T0FmK4BwAAAAAYDPcryrIsdTqdpT7mc664n+dxFx36l30EzXOG+0U/dJj0/K893M967csY7qWX+fuaVqfTkWVZr/JcRERvJYZ7AAAAAIDBcL+Cms2mXNdd+uMu+4p7M0iboT8Sicw1lA9eIe77vnZ2dhYerseN4fMO96Pvw7Rxe973zDz/aw735nGnvb5lDferuOredV01m81Xez4ionWP4R4AAAAAYDDcryDP8+b6L9WLtszh3gy5ZhQefGxzVv2koXrwyu1oNPrkq91HrwKfZ7g339vgazPjthnRB39v3PBvHmP0vXzt4X7S840+/jJ+ymKeDwmWXb1eX/pxUUREbzmGewAAAACAwXC/ghzHWepNaU3LOirHPM7giDv6oYAZeqeN8k85S3+w0aF+nuF+3BXog782z9X4k25Y+9o3p41GozOPr1nWFffzPt8ya7VachznVZ6LiOgtxHAPAAAAADAY7leQZVnqdrtLf9znXnFvButxQ/CkxzZfM+73xl2lv8gNYUevAp813E+6anxw3J7nCv1JN4N9zSvu570CfpnD/TJupLtI3W6Xc+6JiAZiuAcAAAAAGAz3KyiZTK76JTwqEolMHYCnfSgwbvyedpzOYLPOVh8c2mcN95Mea3DcHv0zowP5tMF8FcP9rPdv2cP9Mm7iu0jr+J8FIqJVxXAPAAAAADAY7lfQMsdKM8guenzLuCvcl9XgkTLPHe7N70ej0ZnD/aQb5w4O0pOusDfvwbTXs67D/TyPz3BPRLT+MdwDAAAAAAyG+xX0UkfljGvRc+YXvdnp6FnwZvj+9OnTXMPzrOFe+jKsJxKJicO94ziPBvnRPzN4nM7oDXRnjf/mta7bcL/IEUTT7mtgXutrDvcclUNENBzDPQAAAADAYLhfQS91c9pxY+9Thvt5h+Zxjx2NRhWNRucenucZ7s1rMsPyuOH+l19+mTg6j950ddINbROJxNRz5Z/yocZTb0477xn3gz8tMK11POOem9MSEQ3HcA8AAAAAMBjuV5DneXP9l+pFG3fF9KyjdMbdyPU5w71pmcP9tD877Qp50+j5/GaAH33ORc7bH+wlrrg3r3vaKD/veyzNN9yPfsDx0tXrdXme9yrPRUT0FmK4BwAAAAAYDPcrqNlsynXdpT6mGXFHz5V/7SvuR1/Pqof7ca9x8Nz8wWY91qQh/aWG+1lH1yxytM2sfwfzXuG/zFzXVbPZfLXnIyJa9xjuAQAAAAAGw/2KsixLnU5naY83eGTM4Hnmf/Thft7vZ9ZwPWnsH/zaZQ/30x533Fn905r172CRv4dl1Ol0ON+eiGgkhnsAAAAAgMFwv6JqtdrSjgmJRqOPrrxe5Kalo+e9P+fmtKZ5h/txx9YM/vTAc/z7v/97+BpmHRk0672JRCITB/iXGu6nff24v/NZjzPtz897Vv6y8jxPtVrtVZ6LiOitxHAPAAAAADAY7ldUr9eTZVnPvkntsm8o+tJX3I8b0F9qMF7We2O+l1nHzJjvNRKJDH1/85xBP+u5B38SoN1u66effpr6uOM+/Jj051/7avtWqyXLstTr9V7l+YiI3koM9wAAAAAAg+F+hfm+P/cV0/THzXzY8RIfcEw7Auilsm17aR80ERG9pxjuAQAAAAAGw/2K8zxP5XJ51S+D6FUql8tLOyKKiOi9xXAPAAAAADAY7tegcrnMeE/vPv6dExFNj+EeAAAAAGAw3K9JnufJtu1nn3lPtG61Wi3Zts2V9kREM2K4BwAAAAAYDPdrlO/7sixLnuep0+ms+uUQPatOpyPP82RZFmfaExHNEcM9AAAAAMBguF+zer2earWaLMuS67qq1+tqtVrqdrurfmlEU+t2u2q1WqrX63JdV5ZlqVarqdfrrfqlERG9iRjuAQAAAAAGw/0a12w25XmeHMeRZVlKJpPA2rIsS47jyPM8NZvNVf/Hh4jozcVwDwAAAAAwGO6JiIiI1iCGewAAAACAwXBPREREtAYx3AMAAAAADIZ7IiIiojWI4R4AAAAAYDDcExEREa1BDPcAAAAAAIPhnoiIiGgNYrgHAAAAABgM90RERERrEMM9AAAAAMBguCciIiJagxjuAQAAAAAGwz0RERHRGsRwDwAAAAAwGO6JiIiI1iCGewAAAACAwXBPREREtAYx3AMAAAAADIZ7IiIiojWI4R4AAAAAYDDc06sViUQUjUZX/TKeXCwW09bWlnzfH/v7vu9ra2tLsVjslV8ZERG9hxjuAQAAAAAGw/07K5PJ6Mcff3y2X3/9damvq91u65dfftHGxsZc4300GtXGxsaQaDQajuOjvzcoEokMPVYkEpn65ycZHenHDfeDY/1LDfe2bWtzc/PR92V+fd7vZ9z7HolEpn4YQURErxfDPQAAAADAYLh/Z+3u7uqrr77Sd999p++///5Jvv76a338+PFJzz9ucF+EGb2j0ah2dnbUbrfVbre1s7MzNNxPGsfHXdUfiUQejd6zGjfST/q1zc1N2bb9IsO9GefHje7m92Y93+D7N65IJBK+10REtLoY7gEAAAAABsP9O2t3d1fffPONDg4O1Gg0nmR7e/tZw/3gCGzG7FlX2Y+O3k8Z7icN1Mu84n701wdH72UP9+b7mfShw7KG+3kfh4iIXjaGewAAAACAwXD/ztrd3dW3336rXC735Mf44YcfljLcmyHbXJE+rWUM95MG6KdccT/62ra3t/Xp0ydtbW2FY/o8x/ZsbGzM9f2Pa/Bq/nEta7iXuOqeiGgdYrgHAAAAABgM9++sWcN9s9nUzz//rGKxOPExnjPcm+Ydtcdd2S7NPuPejNWjV9NPOsfdWOSKezNkmyNyfvnlF21tbcnzPH38+FEfP34ceu3LvuJ+1gcOyzjj3jTrQwIiInr5GO4BAAAAAAbD/Ttr1nCfy+X07bffand3d+JjPHe4N0fKjA7go5lxftzQ/dQz7sc1bQA3V9NPG6zNa/n8+XM41I87AmiZw/08j7XMK+5f6sa6REQ0fwz3AAAAAACD4f6dterh3oz2gyOxudLdjMLjzoofbdZwP8+V8oPPb4b7ea+6N69t8LkHb0477ka1yxy/57kCfpnD/Tx/hoiIXjaGewAAAACAwXD/zlr1cD+pwWNdpg32plnDvTm2Zp7z7EeH+8HfH3fFvW3b2t7efvQax431gy17uJ/1Pr3EcP+cewEQEdHzYrgHAAAAABgM9++s0eHe93399ttvoX/84x/685//rL///e9Dv14ul8PHWNZwP3pkzuCNZ+c5RmfacP/58+dHY/Sk4fw5V9yPfj+Dvz7uHP55fgJg3vdunuH+w4cPM8+lZ7gnInobMdwDAAAAAAyG+3fW6HD/22+/zTUu//jjj+FjPHW4Hx2y5xmBR2+wasbqeW5OOzjum+cfHbtnjdbznHFvWrcr7kc/GHnOzWkZ7omIVh/DPQAAAADAYLh/Z63LFfeLjMrjznKf5+a04/7n0XHafK0Z+hcZukdf12sP97POuB/3QcW4OOOeiOhtxHAPAAAAADAY7t9Z63LG/TxXjEuTj3uZZ7gffJ6dnZ2xzzd4Rf3oFfqjvz94tv241/Waw/0859ePO89/XPOM8st87URE9LQY7gEAAAAABsP9O+u9DPeDo/S04d783uAZ+pNehxnuPc/T1tbW1CNlVj3czzq6Zt4b0w4+1rThfp4r/ImI6GVjuAcAAAAAGAz376z3MNyPDs3ThvtIJKLNzU19+PBh7E1gI5FI+DhmuPd9f+IV+uaq+1gsttLhftbzRSKRud5fab7hPhKJPOkmukREtLwY7gEAAAAABsP9O2vWcN9sNvXzzz+rWCxOfIxVn3E/evX3pOF+dLyORCJDV96Pfigw7qicSc264t4817yectPXSYO7eW/n/YBg1tX5i1y9T0RELxfDPQAAAADAYLh/Z80a7udp1VfcR6NRRSKRcKQfHPcHf23cCG9+f2dnR//2b/82NHrPGu4HH3vc2D7v97TMxh1h8+nTJ/30009Tv270g4VpHxxwtT0R0XrEcA8AAAAAMBju31m7u7v65ptvdHBwoEaj8STb29vPHu5peUWj0YWusF+kRY7cISKil43hHgAAAABgMNy/s3Z3d/XVV1/pu+++0/fff/8kX3/9NcM9ERHRK8dwDwAAAAAwGO7fWZlMRj/++OOz/frrr6v+VoiIiP5QMdwDAAAAAAyGeyIiIqI1iOEeAAAAAPD/t3cHrW0rARRG//8fDMzGxosw6rhTgw0CO7JuF0HwHkmhi1YS6fng7Mcbo7kYeWG4lyRJ2kGGewAAABaGe0mSpB1kuAcAAGBhuJckSdpBhnsAAAAWhntJkqQdZLgHAABgYbiXJEnaQYZ7AAAAFoZ7SZKkHWS4BwAAYGG4lyRJ2kGGewAAABaGe0mSpB205nA/DNs/hAIAAPBrw1A/3OUM95IkSSu31nA/z3PO55a3afsHUQAAAD56m2rO55Z5nv93nzPcS5Ikrdyav7jvvaf37R9GAQAA+Kj/qJ/e7Qz3kiRJK7fmcP94PNLaN7+6BwAA2Jm3qaa1IY/H48NdznC/k67Xa2qtOR6PKaXk5eUF4K8rpeR4PKbWmuv1uvVXofTPtOZwn7w/Z3z/brwHAADYi/dX5HzL7Xb79B5nuN+w5/OZ1lpKKTmdTum9ZxzHTNO09dEk/SNN05RxHNN7z+l0SiklrbU8n8+tjyZ96dYe7pPkdrultSH9RzXgAwAAbORtqum9prVfj/aJ4X6zLpdLSimpteZ+v299HElKktzv99RaU0rJ5XLZ+jjSl22L4T55f21O7z3nc8sw1Ly+vgIAALCSYXj/I9re+6evx/lvhvsNqrXmcDhkHMetjyJJnzaOYw6HQ2qtWx9F+pJtNdwvzfP8hz+RJEmSJOl3+t372E99GG6kyzUAzgAAAABJRU5ErkJggg==;" vertex="1" parent="E-beLJ-5tgw3SVWUHFMe-1">
          <mxGeometry x="10" y="90" width="810" height="239.59" as="geometry" />
        </mxCell>
        <mxCell id="1C8qiqRe2vAx1xtcDdjs-1" value="用户状态" style="text;html=1;strokeColor=none;fillColor=none;align=left;verticalAlign=middle;whiteSpace=wrap;rounded=0;fontStyle=1" vertex="1" parent="E-beLJ-5tgw3SVWUHFMe-1">
          <mxGeometry x="48" y="350" width="90" height="20" as="geometry" />
        </mxCell>
        <mxCell id="1C8qiqRe2vAx1xtcDdjs-2" value="in" style="rounded=0;whiteSpace=wrap;html=1;" vertex="1" parent="E-beLJ-5tgw3SVWUHFMe-1">
          <mxGeometry x="150" y="350" width="50" height="20" as="geometry" />
        </mxCell>
        <mxCell id="1C8qiqRe2vAx1xtcDdjs-3" value="=&lt;br&gt;!=&lt;br&gt;in&lt;br&gt;not in" style="rounded=0;whiteSpace=wrap;html=1;align=center;" vertex="1" parent="E-beLJ-5tgw3SVWUHFMe-1">
          <mxGeometry x="150" y="370" width="50" height="60" as="geometry" />
        </mxCell>
        <mxCell id="1C8qiqRe2vAx1xtcDdjs-4" value="激活" style="rounded=0;whiteSpace=wrap;html=1;" vertex="1" parent="E-beLJ-5tgw3SVWUHFMe-1">
          <mxGeometry x="230" y="350" width="160" height="20" as="geometry" />
        </mxCell>
        <mxCell id="TXHcop2mQ14bukHYit2q-0" value="确认" style="text;html=1;align=center;verticalAlign=middle;whiteSpace=wrap;rounded=0;fontColor=#3333FF;" vertex="1" parent="E-beLJ-5tgw3SVWUHFMe-1">
          <mxGeometry x="153.71" y="445" width="50" height="20" as="geometry" />
        </mxCell>
        <mxCell id="TXHcop2mQ14bukHYit2q-1" value="&lt;div&gt;取消&lt;/div&gt;" style="text;html=1;align=center;verticalAlign=middle;whiteSpace=wrap;rounded=0;fontColor=#3333FF;" vertex="1" parent="E-beLJ-5tgw3SVWUHFMe-1">
          <mxGeometry x="203.71" y="445" width="50" height="20" as="geometry" />
        </mxCell>
        <mxCell id="N-ax6UfBvDjq_Gbz4nXE-0" value="" style="shape=image;verticalLabelPosition=bottom;labelBackgroundColor=#ffffff;verticalAlign=top;aspect=fixed;imageAspect=0;image=data:image/png,iVBORw0KGgoAAAANSUhEUgAAARcAAAEgCAYAAACerDfBAAAY1ElEQVR4nO3c327iaJ7G8bonboNrCFcw3ICPZveA1bY0Bz6enNpRyxIyOYmoA0cKk5kgvQqWqEVsZp1KpjPQpNNOKnHcobM8e9D7MsbY+CXhpYE8H+mVphLKpnrK3/r5D/n0v6+v+PXXMV5efkH8HOHp6RHfvt3j4f5n3Id3CH++Q/jzT1xcXFw56w734c94uA/x+O0B0dMj4vgZn3799Ve8vPyC5yjC47cHhD/f4afbHzH6cYAfBzcYDn7A4J8/YPDPf3BxcXGl1g8YDn7Aj8Mb3P44wN1PI9yHP+Px8Rs+jccviONnWMEYRER5rq6u4HkeHMfB999/D8dx4Hkerq6upq+xgjFuR0Pch3f49PLyC6LoiXEholydTgfff/997up0OgB+i8s/b67x0+2P+PTLLzGeHr8xLkSU6erqamFY5Lq6uoIVjHF9FeDH4Q0+/RI/4/HbA+NCRJk8z1OKi+d5sIIxvgYXGNz8A5/i+BnfHu4ZFyLKJK+xFC3HcWAFYwR/7+Pmhyt8ip+f8e0hZFyIKJNKWOSygjH+56KHm398xaf4OcID40JEOZaNy98veviBcSGiIkvH5b+TcblnXIgo2/Jx+S/GhYiKMS5EpAXjQkRaMC5EpMVGxmUymaDf76PZbKLRaBSuo6MjdLtdvL6+rvy9ENHbbGRc+v0+Go0G2u02er1e4RJCoNFowPf9lb8XInqbjYxLs9lEu93G3d2d8vJ9H4eHh5xeiDbERsalXq+j2+1iNBopr4uLC9TrdTw+Pi69vyAIsLe3hyAIFr5OCAHTNOd+b7lchhBi7uvVahVhGM583TRNuK5b+J7iOIZhGCiVSiiVSiiXy4Xvj2iTbGRcHMfB+fk5bm5ulFev14PjOHh4eFh6f6px+fz5MyqVCgzDwJcvX1Aul6cHv1yGYSCOYwghpv9bkl8vl8uoVCoIwxCu685tgzGhXbCRcbFtG+12G5eXl8rL933Yto37+/ul96caFwAIwxCVSgW2bc9NJq7rToPium7uhCKnkvQUlNx+ehIi2jYbGRfLsnB2doYgCJRXp9OBZVkL45I3JRStrAjI06GsySUMw5lTmmUmEcaFdsWHikselclFBkNOKlnXVOTkMhgMUK1WEQTBdEoRQsxMNnIbWYHKW+nTLKJNxrhAPS61Wg2lUglCiIWTS6vVmk4qYRhOQ/PlyxdUKhWUSqXcUyZOLrQrGBcsd83Fdd2Z06QgCFCr1aYTRfIujxBiJi7JbcgLummMC+2KDxOXt15vkavo4qyMQRiGME0TtVoNruvm3pLOw7jQrvgwcckjD+ZSqZQ7TaQVXSuRd4pM08y8JZ2cfpL7f0vciDbVRsbFcRwcHx8vFZfT01NYloXn52fl/cipw7Zt7O3twbbtzDtD6dfLA10IkRskGRU5wSSZpjn9fVmnTYv2SbQtNjIuMhQnJyfodDqFS77e8zzlx/+TB23ymsuiJ2jTpyyL4iJfm74FLb8u98G40K7ayLjc3t6i1Wrh4OAAlmUpLc/zMBgMMJlMCrefPmDTF3TzApN+XdZ1nOTvS996Bn4LkrzYCzAutLveHJd//7c/4rv//A8tcYnjGKPRCMPhENfX14VrMBhgNBohiqLCbcvrJcmDNetukWmamWGQX8t6yjYZpbzJJXlKJF/HuNAu2sjJBQDG4zGiKMLT01PhiqIILy8vhduUk0bWhwyzbkWnX5+8EJv+wGLyrlEyPMnpRQYnGSRe0KVdtbFxWbWsSURa9JyLPPj/9Kc/TScIGY/k9uTrWq3WzPeSoZFP7ibjxsmFdtWHicsiqk/oyou5ydOj5OQhn87N+jR0rVbjp5zpQ2FciEgLxoWItGBciEgLxoWItGBciEgLxoWItGBciEgLxoWItGBciEgLxoWItGBciEgLxoWItGBciEgLxoWItGBciEgLxoWItFhZXKxgzMXFxTVdnFyISAvGhYi0YFyISAvGhYi0YFyISAvGhYi0YFyISAvGhYi0YFyISAvGhYi0YFyISAvGhYi0YFyISIuNjMtkMkG/30ez2USj0ShcR0dH6Ha7eH19Xfl7IaK32ci49Pt9NBoNtNtt9Hq9wiWEQKPRgO/7K38vRPQ2GxmXZrOJdruNu7s75eX7Pg4PD9cyvcRxDMMwIITI/Z7rutrfB9Em28i41Ot1dLtdjEYj5XVxcYF6vY7Hx8el9uW6LgzDQBzHS/0+IQQqlQrCMJz5ehiGqFarCIJgqe0R7ZqNjIvjODg/P8fNzY3y6vV6cBwHDw8PyvsJwxCVSuVNU0Ycx3NhAfKjIwVBgL29vZn4JAMn31OpVJpZi7ZJtIk2Mi62baPdbuPy8lJ5+b4P27Zxf3+fuU0hxNwBu8yybTvzoE8uIQRM08z8Xrlcxp///OeFv79cLk/jlDzlKgoW0SbayLhYloWzszMEQaC8Op0OLMvKjUtaEATTg3lV5DaTk5AQYua0S3VyYVxo233YuJim+aZrLUEQoFqtIgzDuesrcmoxTXP6+vQ1HcaFPooPGZdlTpHSU0ipVEKr1Zoe6PJrtm2jWq1if39/Jiamac7ERk436f3wmgvtmg8XF3lwq0wtpmlO45KcWLK2WavVEMfxzJSRdcuakwt9FB8qLvLA/cMf/rB0XCQhxNw0kzWZCCEyQ6ISl/StbMaFttGHiYsMi2mabz4tAoAvX75Mb19nTSbyazJM6YipnBYxLrQLNjIujuPg+Ph4qbicnp7Csiw8Pz9nbjM5haTv4OTJmlyA2UBkbScZr/TdqKLJJS8+jAttm42MiwzFyckJOp1O4ZKv9zxP6fH/98YFyL7tLMnpJWsfKnFJX9vh5ELbaCPjcnt7i1arhYODA1iWpbQ8z8NgMMBkMinc/nvjkr6jk55OXNedfi95PSbvAbvkdJK+2yTfL+NC22Yj4xLHMUajEYbDIa6vrwvXYDDAaDRCFEVK23/PNZfktRvgt2CUy+XpJCLDIoSY7ifrorAMiOu6c3eXsl7PuNC22ci4AMB4PEYURXh6eipcURTh5eVFedtvnVyyToWSF3XToZH7koGRr5V3k+T+ZTwMw8iMCONC22hj46KTSlzSU0TRxwVM08wNQPLZmrz9pu8SpU+9+CMcaNswLgnpOzWcFoje7kPGhYj0Y1yISAvGhYi0cBxHKSyO4zAuRKTO8zyluHiex7gQkbqrqyuluFxdXTEuRLScTqezMCydTgcAGBciWt7V1RU8z5teg3EcB57n4erqavoaxoWItGBciEgLxoWItGBciEgLxoWItGBciEgLxoWItGBciEgLxoWItGBciEiLhXGxgjEXFxfXdK0sLkREb8W4EJEWjAsRacG4EJEWjAsRacG4EJEWjAsRacG4EJEWjAsRacG4EJEWjAsRacG4EJEWjAsRabG2uEwmE/T7fTSbTTQajcJ1dHSEbreL19fXlb8XItJvbXHp9/toNBpot9vo9XqFSwiBRqMB3/dX/l6ISL+1xaXZbKLdbuPu7k55+b6Pw8NDTi9EW2htcanX6+h2uxiNRsrr4uIC9Xodj4+PS+/PdV0YhoE4jpVeH4YhKpUKhBBz3zNNE6ZpLv0eVsF1XVQqFYRh+LvsX5UQAqVSCa7r/t5vhTbE2uLiOA7Oz89xc3OjvHq9HhzHwcPDw9L7C4IA5XJZ+S+7ECL3IC6KSxAE2NvbQxAE068l4ybDVSqVZpZKNFTjIg/uZdcqYpD885XL5Zn/Dov+XOt8j7R+a4uLbdtot9u4vLxUXr7vw7Zt3N/fZ25zmb+gRX9pZUCWOUgNw4DjOAtfUy6Xp+FKTkWLYpb+M75ncpEHvsoBmo6gyn7jOIZhGDAMA2EYTv930cSoMlnKbTMu22ltcbEsC2dnZwiCQHl1Oh1YlpUblyzJv+zLnBJVq9Xcf3FXNbkUxUW+9+S+knF5y8GmGhf5uuS+TdNcOInI95P8c2RtJwvjsvt2Ki55YQmCALVaLfcvcvpAV5mIkgfPquKSt53k60zTXGqSUY1L1oS06PdmhSX9+xYFhnHZfTsTl6KJJe+gzDpIXNctPDDScSmXy5mnTctcc8k64NIH/bLXkpY5LVL9vfI9LIpD0f8fvOay+3YiLvIgKPqXMGvMl9dYfu/JJe9Azpoo0qE0TfNd156yQpo3mch9pe+qua6beQol/1tmvZ6Ty27b+rjkTQ1FF1mDIJhea7Ft+92TS1Fc0td00nHJu8CbFZdlppe3TC7JWMkoqEwieddnsk6TGJfdt/VxSRNCzPylzTrw5QXaIAjw+fPnzGsuqz4tWhSXRQdR3t0i1Wsv7zktkn8ulWd8FsUl7/WMy25b63Mux8fHS8Xl9PQUlmXh+flZeT8qU0Wa7gu6efGR+xRC5B6YeXFRfWjtPXGR+1eJxrJxMU2Tcdlxa4uLDMXJyQk6nU7hkq/3PE/58f+sv4xvjcsqT4uCIEC1Wp0JhNzncDicu/2c3pfqhegsmxgX+d55QXe3rS0ut7e3aLVaODg4gGVZSsvzPAwGA0wmE6V9qN7eTV8/eE9cii6mVioV7O/vz/0rLff59evX6QNoefvKC4gQAtVqFYPBIPe9qsYlb5JQPf1aJi6q74mTy3ZbW1ziOMZoNMJwOMT19XXhGgwGGI1GiKJIafvyNCF9V2JRXGQg3ntaJLchD06VB9827QndrIvE8r+DysG9TFzy/r9KY1y221p/WNR4PEYURXh6eipcURTh5eWlcJvyL2DeX+ysuKQPuPdMLsn9CyGm//LLbeaduqjGZdmH5tLe8/j/shdoVV6/zBPUjMt22+qfRCdPSVRG/kUPsCU/+7Psbe1FB0r6LlH64M1631kXf4v+hS/6874nTqp0XJtZ9El12nxbHZdVUZ0iKJ9KNFQmkfQp6TKfEaPNwrgQkRaMCxFpwbgQkRaMCxFpwbgQkRaMCxFpwbgQkRaMCxFpwbgQkRaMCxFpwbgQkRaMCxFpwbgQkRaMCxFpwbgQkRaMCxFpsTAuVjDm4uLimq6VxYWI6K0YFyLSgnEhIi0YFyLSgnEhIi0YFyLSgnEhIi0YFyLSgnEhIi0YFyLSgnEhIi0YFyLSgnEhIi3WFpfJZIJ+v49ms4lGo1G4jo6O0O128fr6uvL3QkT6rS0u/X4fjUYD7XYbvV6vcAkh0Gg04Pv+yt8LEem3trg0m020223c3d0pL9/3cXh4WDi9CCFQqVQQhuHK3zcRvc3a4lKv19HtdjEajZTXxcUF6vU6Hh8fF27bNE2Ypjnza9d1p79OxyeOY9RqNQRBkLvNMAxRrVYXvoaI8q0tLo7j4Pz8HDc3N8qr1+vBcRw8PDzkbjcMQ1QqFQgh5r4mA5OMSxzHMAwDtVpt4aQThiFqtRrK5XJhYIIgwN7e3szrXNeFYRiI43j6fkql0szitEW7bG1xsW0b7XYbl5eXysv3fdi2jfv7+9ztuq47c8DKGCQP+GRchBDTgx74LTzpg151CSHm9p9e5XJ5uv9kAHkqR7tubXGxLAtnZ2fTA19ldTodWJaVGxeV0xtg8YH8loM8PS2pTi6MC30kWx0XIcTMtZbk14umjuQkw7gQrd5Wx2V/fx+1Wm0mGoZhoNVqLTxwgyBAtVpd2YEdBAHK5fJcwHjNhT6yrY6LlHUdJXngpmMif/3169fMg151yX1yciGa96HjUnRgqwZAJS7p29qMC+06xuX/vScAKqdFjAt9NGt9zuX4+HipuJyensKyLDw/P2du0zTNzOsYnz9/njlwi2KT97VVTS558WFcaJetLS4yFCcnJ+h0OoVLvt7zPKXH/xdNLunvZ4UkGYPkdouut8jtFcXlreEi2lZWMMbZX0/Q/ttf9Mbl9vYWrVYLBwcHsCxLaXmeh8FggMlksnDbRXExTXPmSdv0wS6f2k0f7CoByJqe0tPJ/v5+ZrgYF9pla5tc4jjGaDTCcDjE9fV14RoMBhiNRoiiqHDb6bgkyalC3rJO3rFJvkaetiSfm1kmAMn34Lru3McNkp91WnbbRNtorT8sajweI4oiPD09Fa4oivDy8qK0XXlgy88DJScU+fh98tfJgMiD3zTN6S1jOeWoBED+frmf9PSUNRElv8+40K7aiZ9El/x8jwxJ+lRIkgHJmjIk1c8bVSoVfPfdd7lTU/ouUfphuvQ0Q7RLdiIuyR+xIK+BZJ3+SHLa2N/fX+mTukT0LzsRFyLaPIwLEWnBuBCRFowLEWnBuBCRFowLEWnBuBCRFowLEWnBuBCRFowLEWnBuBCRFowLEWnBuBCRFowLEWnBuBCRFowLEWnBuBCRFgvjYgVjLi4urulaWVyIiN6KcSEiLRgXItKCcSEiLRgXItKCcSEiLRgXItKCcSEiLRgXItKCcSEiLRgXItKCcSEiLRgXItJibXGZTCbo9/toNptoNBqF6+joCN1uF6+vryt/L0Sk39ri0u/30Wg00G630ev1CpcQAo1GA77vr/y9EJF+a4tLs9lEu93G3d2d8vJ9H4eHh9qnlziOYRgGTNNc+H0hhNb3QbRL1haXer2ObreL0WikvC4uLlCv1/H4+Ljy95MUBAH29vYQBAEAIAxDGIaBMAwBZMfFdd3C2LiuC8MwEMexvjdPtKHWFhfHcXB+fo6bmxvl1ev14DgOHh4eMrfpui5KpdLcMgwDtVot83vp18VxPBeBMAzRarVQLpcRBMFcXGSMWq3Wwj/zly9fUKlUGBj6kKxgjLO/nqD9t7/ojYtt22i327i8vFRevu/Dtm3c398r7SMIApTL5bmJIgxDVCqVzElDhiMrOkKI6QQj4yK35bruzHZM0yyMWXrxNIt22domF8uycHZ2hiAIlFen04FlWQvjIoSAaZq5YZGvyZseFn1PSk4ucn9ppmnOBSfPotgR7Yqtj0ty8kge3PIAzpsaKpUKhsNh7oValUkkuT/GhWjW1scFyL7bE4YhqtXq9CJtkhAClUoFvu+jVqvNRUhOJ3mxkPtjXIjybXVc8qaLSqWCy8vLmbgkD34Zl0V3gxgXovfZ6rhIyYNVhmMVcVn2tIgXdIn+Zefi4rouTNOcOy3i5EK0Xmt9zuX4+HipuJyensKyLDw/Py/ctjxYW63W9KBXiYvv+yiXy7nPyajGJSs2RB/d2uIiQ3FycoJOp1O45Os9zyt8/D9rEkjGJT2ZrHpy4ccDiOatLS63t7dotVo4ODiAZVlKy/M8DAYDTCaThdsuikv68f5VX3NJb5+I1hiXOI4xGo0wHA5xfX1duAaDAUajEaIoKtz2Mk/gLnrNWycXlQfxiD6atf6wqPF4jCiK8PT0VLiiKMLLy4vSdvPiIiOQfJy/VCrNPWGb9QSualx4vYUo2078JLqs05K8kMgQpT+oKB+kk19XjUv6FIuIfrPVcUl+KlpGQR74RQe8nE6A3+JUrVZnXp+Oi/zsUvJBvTAMl7oFTfSRbHVciGhzMS5EpAXjQkRaMC5EpAXjQkRaMC5EpAXjQkRaMC5EpAXjQkRaMC5EpAXjQkRaMC5EpAXjQkRaMC5EpAXjQkRaMC5EpMXCuFjBmIuLi2u6VhYXIqK3YlyISAvGhYi0YFyISAvGhYi0YFyISAvGhYi0YFyISAvGhYi0YFyISAvGhYi0YFyISAvGhYi0WFtcJpMJ+v0+ms0mGo1G4To6OkK328Xr6+vK3wsR6be2uPT7fTQaDbTbbfR6vcIlhECj0YDv+yt/L0Sk39ri0mw20W63cXd3p7x838fh4WHh9CKEQLlcRhAEud83DANxHK/8z0VE2dYWl3q9jm63i9FopLwuLi5Qr9fx+Pi4cNumacI0zemvXdeF67rTX6fjEoYhTNNcGJswDFGpVCCEeOefnOhjWltcHMfB+fk5bm5ulFev14PjOHh4eMjdblYEgiCAYRjT4KTjYppm4SQThiFs20apVGJgiN5gbXGxbRvtdhuXl5fKy/d92LaN+/v73O0KIVAqlWaWEAJxHMMwDAghZuLiui4qlQrCMJxuIwgClMvlue0sWjzNIlpsbXGxLAtnZ2cIgkB5dTodWJaVG5dkQBaRcQnDELVabe7aTBAEqFarM8FZxHVdxoWowFbHJe9CrcokkpxeGBei1dvquOzv76NWq82drnz58mVhLIQQjAuRZlsdFyk9wRTFgnEh0m9n47LsaREv6BKt1s7GhZML0e9rrc+5HB8fLxWX09NTWJaF5+fnzG2appk5Vdi2vVRc0r8movdbW1xkKE5OTtDpdAqXfL3neUqP/79ncuHHA4hWb21xub29RavVwsHBASzLUlqe52EwGGAymSzc9nuvuaQ/PkBE77e2uMRxjNFohOFwiOvr68I1GAwwGo0QRVHhtt8zuag+iEdEy1nrD4saj8eIoghPT0+FK4oivLy8KG03/QTu58+flePC6y1EeuzET6JzXXfmc0Wqk8twOIRhGDOfoCai1diJuJimOROIrLik7yy5rrv0LWgiUrcTcSGizcO4EJEWjAsRacG4EJEWjAsRacG4EJEWjAsRaZGMy/8By89UaX3nV0EAAAAASUVORK5CYII=;" vertex="1" parent="E-beLJ-5tgw3SVWUHFMe-1">
          <mxGeometry x="230" y="370" width="164.69" height="170" as="geometry" />
        </mxCell>
      </root>
    </mxGraphModel>
  </diagram>
  <diagram id="iIcsJw7qSNi_TIn_368d" name="消息配置">
    <mxGraphModel dx="964" dy="593" grid="1" gridSize="10" guides="1" tooltips="1" connect="1" arrows="1" fold="1" page="1" pageScale="1" pageWidth="827" pageHeight="1169" math="0" shadow="0">
      <root>
        <mxCell id="nkBFL_KFsk74_XmOxyPC-0" />
        <mxCell id="nkBFL_KFsk74_XmOxyPC-1" parent="nkBFL_KFsk74_XmOxyPC-0" />
        <mxCell id="aHI8mtEWfMJIREGYtlvq-0" value="完成" style="ellipse;whiteSpace=wrap;html=1;aspect=fixed;align=center;" vertex="1" parent="nkBFL_KFsk74_XmOxyPC-1">
          <mxGeometry x="910" y="10" width="60" height="60" as="geometry" />
        </mxCell>
        <mxCell id="aHI8mtEWfMJIREGYtlvq-1" value="" style="endArrow=none;html=1;" edge="1" parent="nkBFL_KFsk74_XmOxyPC-1">
          <mxGeometry width="50" height="50" relative="1" as="geometry">
            <mxPoint y="80" as="sourcePoint" />
            <mxPoint x="980" y="80" as="targetPoint" />
          </mxGeometry>
        </mxCell>
        <mxCell id="aHI8mtEWfMJIREGYtlvq-2" value="" style="rounded=0;whiteSpace=wrap;html=1;align=center;" vertex="1" parent="nkBFL_KFsk74_XmOxyPC-1">
          <mxGeometry x="827" y="100" width="143" height="430" as="geometry" />
        </mxCell>
        <mxCell id="aHI8mtEWfMJIREGYtlvq-3" value="摘要" style="text;html=1;strokeColor=none;fillColor=none;align=center;verticalAlign=middle;whiteSpace=wrap;rounded=0;" vertex="1" parent="nkBFL_KFsk74_XmOxyPC-1">
          <mxGeometry x="827" y="100" width="40" height="20" as="geometry" />
        </mxCell>
        <mxCell id="aHI8mtEWfMJIREGYtlvq-4" value="" style="rounded=0;whiteSpace=wrap;html=1;" vertex="1" parent="nkBFL_KFsk74_XmOxyPC-1">
          <mxGeometry x="8" y="100" width="810" height="170" as="geometry" />
        </mxCell>
        <mxCell id="aHI8mtEWfMJIREGYtlvq-5" value="消息格式：" style="text;html=1;strokeColor=none;fillColor=none;align=center;verticalAlign=middle;whiteSpace=wrap;rounded=0;" vertex="1" parent="nkBFL_KFsk74_XmOxyPC-1">
          <mxGeometry x="40" y="225" width="80" height="20" as="geometry" />
        </mxCell>
        <mxCell id="aHI8mtEWfMJIREGYtlvq-6" value="场景编码" style="rounded=0;whiteSpace=wrap;html=1;" vertex="1" parent="nkBFL_KFsk74_XmOxyPC-1">
          <mxGeometry x="120" y="225" width="60" height="25" as="geometry" />
        </mxCell>
        <mxCell id="aHI8mtEWfMJIREGYtlvq-7" value="号码" style="rounded=0;whiteSpace=wrap;html=1;" vertex="1" parent="nkBFL_KFsk74_XmOxyPC-1">
          <mxGeometry x="190" y="225" width="60" height="25" as="geometry" />
        </mxCell>
        <mxCell id="aHI8mtEWfMJIREGYtlvq-8" value="可选字段：" style="text;html=1;strokeColor=none;fillColor=none;align=center;verticalAlign=middle;whiteSpace=wrap;rounded=0;" vertex="1" parent="nkBFL_KFsk74_XmOxyPC-1">
          <mxGeometry x="40" y="120" width="80" height="20" as="geometry" />
        </mxCell>
        <mxCell id="aHI8mtEWfMJIREGYtlvq-9" value="user_id" style="rounded=0;whiteSpace=wrap;html=1;" vertex="1" parent="nkBFL_KFsk74_XmOxyPC-1">
          <mxGeometry x="210" y="120" width="60" height="25" as="geometry" />
        </mxCell>
        <mxCell id="aHI8mtEWfMJIREGYtlvq-10" value="年龄" style="rounded=0;whiteSpace=wrap;html=1;" vertex="1" parent="nkBFL_KFsk74_XmOxyPC-1">
          <mxGeometry x="280" y="120" width="60" height="25" as="geometry" />
        </mxCell>
        <mxCell id="aHI8mtEWfMJIREGYtlvq-11" value="性别" style="rounded=0;whiteSpace=wrap;html=1;" vertex="1" parent="nkBFL_KFsk74_XmOxyPC-1">
          <mxGeometry x="260" y="225" width="60" height="25" as="geometry" />
        </mxCell>
        <mxCell id="aHI8mtEWfMJIREGYtlvq-12" value="X" style="rounded=0;whiteSpace=wrap;html=1;fillColor=#e51400;strokeColor=#B20000;fontColor=#ffffff;" vertex="1" parent="nkBFL_KFsk74_XmOxyPC-1">
          <mxGeometry x="310" y="225" width="10" height="10" as="geometry" />
        </mxCell>
        <mxCell id="aHI8mtEWfMJIREGYtlvq-13" value="" style="rounded=0;whiteSpace=wrap;html=1;" vertex="1" parent="nkBFL_KFsk74_XmOxyPC-1">
          <mxGeometry x="838.5" y="420" width="122.25" height="50" as="geometry" />
        </mxCell>
        <mxCell id="aHI8mtEWfMJIREGYtlvq-14" value="&lt;span style=&quot;line-height: 14.4px&quot;&gt;消息格式&lt;/span&gt;：&lt;br&gt;场景编码，号码，性别" style="text;html=1;strokeColor=none;fillColor=none;align=left;verticalAlign=middle;whiteSpace=wrap;rounded=0;" vertex="1" parent="nkBFL_KFsk74_XmOxyPC-1">
          <mxGeometry x="837.75" y="420" width="132.25" height="40" as="geometry" />
        </mxCell>
        <mxCell id="aHI8mtEWfMJIREGYtlvq-15" value="" style="rounded=0;whiteSpace=wrap;html=1;align=center;" vertex="1" parent="nkBFL_KFsk74_XmOxyPC-1">
          <mxGeometry x="838.5000000000001" y="120" width="120" height="80" as="geometry" />
        </mxCell>
        <mxCell id="aHI8mtEWfMJIREGYtlvq-16" value="基本信息：&lt;span style=&quot;line-height: 14.4px&quot;&gt;省外漫游看腾讯视频和爱奇艺&lt;/span&gt;&lt;br&gt;场景编码：&lt;span style=&quot;line-height: 14.4px&quot;&gt;SWMYKTXSPH_9902&lt;/span&gt;&lt;br&gt;场景描述：" style="text;html=1;strokeColor=none;fillColor=none;align=left;verticalAlign=middle;whiteSpace=wrap;rounded=0;" vertex="1" parent="nkBFL_KFsk74_XmOxyPC-1">
          <mxGeometry x="841.25" y="120" width="117.25" height="80" as="geometry" />
        </mxCell>
        <mxCell id="aHI8mtEWfMJIREGYtlvq-17" value="" style="rounded=0;whiteSpace=wrap;html=1;align=center;" vertex="1" parent="nkBFL_KFsk74_XmOxyPC-1">
          <mxGeometry x="837.75" y="210" width="120" height="80" as="geometry" />
        </mxCell>
        <mxCell id="aHI8mtEWfMJIREGYtlvq-18" value="事件规则：&lt;span style=&quot;line-height: 14.4px ; text-align: center&quot;&gt;流量_漫游_省外漫游事件&lt;/span&gt;&amp;nbsp;AND ( app编码=爱奇艺 OR app编码=腾讯视频 )" style="text;html=1;strokeColor=none;fillColor=none;align=left;verticalAlign=middle;whiteSpace=wrap;rounded=0;" vertex="1" parent="nkBFL_KFsk74_XmOxyPC-1">
          <mxGeometry x="840.5" y="200" width="121.5" height="90" as="geometry" />
        </mxCell>
        <mxCell id="aHI8mtEWfMJIREGYtlvq-19" value="" style="rounded=0;whiteSpace=wrap;html=1;" vertex="1" parent="nkBFL_KFsk74_XmOxyPC-1">
          <mxGeometry x="837.37" y="295" width="122.25" height="40" as="geometry" />
        </mxCell>
        <mxCell id="aHI8mtEWfMJIREGYtlvq-20" value="事件间隔：1200" style="text;html=1;strokeColor=none;fillColor=none;align=left;verticalAlign=middle;whiteSpace=wrap;rounded=0;" vertex="1" parent="nkBFL_KFsk74_XmOxyPC-1">
          <mxGeometry x="838.12" y="295" width="121.5" height="40" as="geometry" />
        </mxCell>
        <mxCell id="aHI8mtEWfMJIREGYtlvq-21" value="漫游类型" style="rounded=0;whiteSpace=wrap;html=1;" vertex="1" parent="nkBFL_KFsk74_XmOxyPC-1">
          <mxGeometry x="210" y="160.5" width="100" height="25" as="geometry" />
        </mxCell>
        <mxCell id="aHI8mtEWfMJIREGYtlvq-22" value="dpi_app编码" style="rounded=0;whiteSpace=wrap;html=1;" vertex="1" parent="nkBFL_KFsk74_XmOxyPC-1">
          <mxGeometry x="210" y="194" width="80" height="25" as="geometry" />
        </mxCell>
        <mxCell id="aHI8mtEWfMJIREGYtlvq-23" style="edgeStyle=orthogonalEdgeStyle;rounded=0;orthogonalLoop=1;jettySize=auto;html=1;" edge="1" parent="nkBFL_KFsk74_XmOxyPC-1" source="aHI8mtEWfMJIREGYtlvq-24" target="aHI8mtEWfMJIREGYtlvq-26">
          <mxGeometry relative="1" as="geometry" />
        </mxCell>
        <mxCell id="aHI8mtEWfMJIREGYtlvq-24" value="场景基本信息" style="rounded=0;whiteSpace=wrap;html=1;align=center;" vertex="1" parent="nkBFL_KFsk74_XmOxyPC-1">
          <mxGeometry x="10" y="10" width="120" height="60" as="geometry" />
        </mxCell>
        <mxCell id="aHI8mtEWfMJIREGYtlvq-25" style="edgeStyle=orthogonalEdgeStyle;rounded=0;orthogonalLoop=1;jettySize=auto;html=1;" edge="1" parent="nkBFL_KFsk74_XmOxyPC-1" source="aHI8mtEWfMJIREGYtlvq-26" target="aHI8mtEWfMJIREGYtlvq-28">
          <mxGeometry relative="1" as="geometry">
            <mxPoint x="370" y="40" as="targetPoint" />
          </mxGeometry>
        </mxCell>
        <mxCell id="aHI8mtEWfMJIREGYtlvq-26" value="&lt;span style=&quot;line-height: 14.4px&quot;&gt;配置事件规则&lt;/span&gt;" style="rounded=0;whiteSpace=wrap;html=1;align=center;" vertex="1" parent="nkBFL_KFsk74_XmOxyPC-1">
          <mxGeometry x="220" y="10" width="120" height="60" as="geometry" />
        </mxCell>
        <mxCell id="aHI8mtEWfMJIREGYtlvq-27" style="edgeStyle=orthogonalEdgeStyle;rounded=0;orthogonalLoop=1;jettySize=auto;html=1;" edge="1" parent="nkBFL_KFsk74_XmOxyPC-1" source="aHI8mtEWfMJIREGYtlvq-28" target="aHI8mtEWfMJIREGYtlvq-30">
          <mxGeometry relative="1" as="geometry">
            <mxPoint x="610" y="40" as="targetPoint" />
          </mxGeometry>
        </mxCell>
        <mxCell id="aHI8mtEWfMJIREGYtlvq-28" value="配置标签" style="rounded=0;whiteSpace=wrap;html=1;align=center;" vertex="1" parent="nkBFL_KFsk74_XmOxyPC-1">
          <mxGeometry x="450" y="10" width="120" height="60" as="geometry" />
        </mxCell>
        <mxCell id="aHI8mtEWfMJIREGYtlvq-29" style="edgeStyle=orthogonalEdgeStyle;rounded=0;orthogonalLoop=1;jettySize=auto;html=1;" edge="1" parent="nkBFL_KFsk74_XmOxyPC-1" source="aHI8mtEWfMJIREGYtlvq-30" target="aHI8mtEWfMJIREGYtlvq-31">
          <mxGeometry relative="1" as="geometry" />
        </mxCell>
        <mxCell id="aHI8mtEWfMJIREGYtlvq-30" value="配置&lt;span style=&quot;line-height: 14.4px ; text-align: left&quot;&gt;消息格式&lt;/span&gt;" style="rounded=0;whiteSpace=wrap;html=1;align=center;direction=west;fillColor=#fff2cc;strokeColor=#d6b656;" vertex="1" parent="nkBFL_KFsk74_XmOxyPC-1">
          <mxGeometry x="690" y="10" width="120" height="60" as="geometry" />
        </mxCell>
        <mxCell id="aHI8mtEWfMJIREGYtlvq-31" value="完成" style="ellipse;whiteSpace=wrap;html=1;aspect=fixed;align=center;" vertex="1" parent="nkBFL_KFsk74_XmOxyPC-1">
          <mxGeometry x="910" y="10" width="60" height="60" as="geometry" />
        </mxCell>
        <mxCell id="aHI8mtEWfMJIREGYtlvq-32" value="" style="rounded=0;whiteSpace=wrap;html=1;" vertex="1" parent="nkBFL_KFsk74_XmOxyPC-1">
          <mxGeometry x="838.5" y="350" width="122.25" height="60" as="geometry" />
        </mxCell>
        <mxCell id="aHI8mtEWfMJIREGYtlvq-33" value="&lt;span style=&quot;line-height: 14.4px&quot;&gt;配置离线标签：性别=女&lt;/span&gt;&lt;br style=&quot;line-height: 14.4px&quot;&gt;&lt;span style=&quot;line-height: 14.4px&quot;&gt;目标主体已导入&lt;/span&gt;" style="text;html=1;strokeColor=none;fillColor=none;align=left;verticalAlign=middle;whiteSpace=wrap;rounded=0;" vertex="1" parent="nkBFL_KFsk74_XmOxyPC-1">
          <mxGeometry x="841.25" y="350" width="121.5" height="60" as="geometry" />
        </mxCell>
        <mxCell id="aHI8mtEWfMJIREGYtlvq-34" value="基础标签" style="text;html=1;strokeColor=none;fillColor=none;align=right;verticalAlign=middle;whiteSpace=wrap;rounded=0;" vertex="1" parent="nkBFL_KFsk74_XmOxyPC-1">
          <mxGeometry x="110" y="120" width="80" height="20" as="geometry" />
        </mxCell>
        <mxCell id="aHI8mtEWfMJIREGYtlvq-35" value="突发流量事件" style="text;html=1;strokeColor=none;fillColor=none;align=right;verticalAlign=middle;whiteSpace=wrap;rounded=0;" vertex="1" parent="nkBFL_KFsk74_XmOxyPC-1">
          <mxGeometry x="110" y="163" width="80" height="20" as="geometry" />
        </mxCell>
        <mxCell id="aHI8mtEWfMJIREGYtlvq-36" value="DPI事件" style="text;html=1;strokeColor=none;fillColor=none;align=right;verticalAlign=middle;whiteSpace=wrap;rounded=0;" vertex="1" parent="nkBFL_KFsk74_XmOxyPC-1">
          <mxGeometry x="110" y="196" width="80" height="20" as="geometry" />
        </mxCell>
        <mxCell id="aHI8mtEWfMJIREGYtlvq-37" value="归属地" style="rounded=0;whiteSpace=wrap;html=1;" vertex="1" parent="nkBFL_KFsk74_XmOxyPC-1">
          <mxGeometry x="360" y="120" width="60" height="25" as="geometry" />
        </mxCell>
        <mxCell id="aHI8mtEWfMJIREGYtlvq-38" value="流量" style="rounded=0;whiteSpace=wrap;html=1;" vertex="1" parent="nkBFL_KFsk74_XmOxyPC-1">
          <mxGeometry x="330" y="160.5" width="100" height="25" as="geometry" />
        </mxCell>
        <mxCell id="aHI8mtEWfMJIREGYtlvq-39" value="到访地" style="rounded=0;whiteSpace=wrap;html=1;" vertex="1" parent="nkBFL_KFsk74_XmOxyPC-1">
          <mxGeometry x="450" y="160.5" width="100" height="25" as="geometry" />
        </mxCell>
        <mxCell id="aHI8mtEWfMJIREGYtlvq-40" value="到访地" style="rounded=0;whiteSpace=wrap;html=1;" vertex="1" parent="nkBFL_KFsk74_XmOxyPC-1">
          <mxGeometry x="314" y="193.5" width="100" height="25" as="geometry" />
        </mxCell>
      </root>
    </mxGraphModel>
  </diagram>
</mxfile>
